<svg viewBox="0 0 1360.953 308.827" xmlns="http://www.w3.org/2000/svg"><path d="m0 0h25.086v40.106h-25.086z" fill="#ed583f" opacity=".877" transform="matrix(1 -.017 .017 1 961.704 222.488)"/><path d="m0 0h43.855v70.113h-43.855z" fill="#dfd8d2" opacity=".944" transform="matrix(1 -.017 .017 1 1151.883 186.564)"/><path d="m0 0h25.847v41.323h-25.847z" fill="#ed583f" opacity=".923" transform="matrix(1 -.017 .017 1 329.371 174.748)"/><path d="m0 0h32.947v52.674h-32.947z" fill="#f3cd75" opacity=".829" transform="matrix(1 -.017 .017 1 496.684 135.301)"/><ellipse cx="29.073" cy="29.073" fill="#ed583f" opacity=".806" rx="29.073" ry="29.073" transform="matrix(1 -.017 .017 1 93.827 220.473)"/><ellipse cx="29.709" cy="29.709" fill="#2eafbe" opacity=".833" rx="29.709" ry="29.709" transform="matrix(1 -.017 .017 1 678.585 141.242)"/><ellipse cx="36.347" cy="36.347" fill="#f3cd75" opacity=".886" rx="36.347" ry="36.347" transform="matrix(1 -.017 .017 1 261.08 222.896)"/><ellipse cx="28.985" cy="28.985" fill="#f3cd75" opacity=".938" rx="28.985" ry="28.985" transform="matrix(1 -.017 .017 1 969.396 119.648)"/><path d="m0 0h96.124v41.238h-96.124z" fill="#2eafbe" opacity=".98" transform="matrix(1 -.017 .017 1 123.325 243.546)"/><ellipse cx="42.133" cy="42.133" fill="#2eafbe" opacity=".958" rx="42.133" ry="42.133" transform="matrix(1 -.017 .017 1 840.017 224.573)"/><g fill="#fff" opacity=".805" stroke="#707070" transform="matrix(1 -.017 .017 1 724.52 211.071)"><ellipse cx="24.478" cy="24.478" rx="24.478" ry="24.478" stroke="none"/><ellipse cx="24.478" cy="24.478" fill="none" rx="23.978" ry="23.978"/></g><ellipse cx="37.684" cy="37.684" fill="#273656" opacity=".892" rx="37.684" ry="37.684" transform="matrix(1 -.017 .017 1 1284.281 168.243)"/><ellipse cx="36.4" cy="36.4" fill="#e5efed" opacity=".81" rx="36.4" ry="36.4" transform="matrix(1 -.017 .017 1 1246.115 100.789)"/><ellipse cx="43.29" cy="43.29" fill="#f3cd75" opacity=".957" rx="43.29" ry="43.29" transform="matrix(1 -.017 .017 1 0 120.03)"/><path d="m0 0h38.266v61.179h-38.266z" fill="#fff" opacity=".88" transform="matrix(1 -.017 .017 1 507.098 74.451)"/><ellipse cx="38.037" cy="38.037" fill="#2eafbe" opacity=".928" rx="38.037" ry="38.037" transform="matrix(1 -.017 .017 1 220.383 1.328)"/><path d="m0 0h32.055v29.154h-32.055z" fill="#fff" opacity=".994" transform="matrix(1 -.017 .017 1 893.733 73.288)"/><path d="m0 0h61.503v55.939h-61.503z" fill="#d35341" opacity=".931" transform="matrix(1 -.017 .017 1 928.958 9.51)"/><ellipse cx="38.694" cy="38.694" fill="#fff" opacity=".97" rx="38.694" ry="38.694" transform="matrix(1 -.017 .017 1 703.065 68.971)"/><ellipse cx="36.866" cy="36.866" fill="#ef7e22" opacity=".844" rx="36.866" ry="36.866" transform="matrix(1 -.017 .017 1 408.531 60.706)"/><ellipse cx="37.24" cy="37.24" fill="#cbc530" opacity=".981" rx="37.24" ry="37.24" transform="matrix(1 -.017 .017 1 603.652 23.726)"/><path d="m0 0h80.893v34.704h-80.893z" fill="#fff" opacity=".886" transform="matrix(1 -.017 .017 1 242.927 106.143)"/><g fill="#2eafbe" opacity=".95" stroke="#707070" transform="matrix(1 -.017 .017 1 1276.022 13.117)"><ellipse cx="34.465" cy="34.466" rx="34.465" ry="34.466" stroke="none"/><ellipse cx="34.465" cy="34.466" fill="none" rx="33.965" ry="33.966"/></g><ellipse cx="44.62" cy="44.62" fill="#f8f8f9" opacity=".872" rx="44.62" ry="44.62" transform="matrix(1 -.017 .017 1 1043.825 78.392)"/></svg>