<svg xmlns="http://www.w3.org/2000/svg" xmlns:xlink="http://www.w3.org/1999/xlink" viewBox="0 0 350 333.634">
  <defs>
    <style>
      .cls-1 {
        fill: #f3cd75;
      }

      .cls-2 {
        fill: #2eafbe;
        stroke-width: 10px;
      }

      .cls-2, .cls-9 {
        stroke: #fff;
      }

      .cls-3, .cls-4, .cls-8 {
        fill: #1b1b41;
      }

      .cls-10, .cls-12, .cls-15, .cls-3, .cls-4, .cls-5, .cls-6 {
        fill-rule: evenodd;
      }

      .cls-4 {
        opacity: 0.31;
      }

      .cls-21, .cls-5 {
        fill: #eb3725;
      }

      .cls-6 {
        fill: #a01e22;
      }

      .cls-14, .cls-7 {
        fill: #f0d663;
      }

      .cls-9 {
        fill: none;
        stroke-miterlimit: 10;
        stroke-width: 0.573px;
      }

      .cls-10, .cls-12 {
        fill: #e4a69f;
      }

      .cls-11 {
        fill: #e0cfce;
      }

      .cls-12 {
        opacity: 0.27;
      }

      .cls-13 {
        opacity: 0.83;
      }

      .cls-14 {
        opacity: 0.5;
      }

      .cls-15 {
        fill: #c9c32f;
        opacity: 0.43;
      }

      .cls-16 {
        fill: #254c6f;
      }

      .cls-17 {
        fill: #fbba17;
      }

      .cls-18 {
        fill: #fff;
      }

      .cls-19 {
        clip-path: url(#clip-path);
      }

      .cls-20 {
        fill: #0e1010;
      }

      .cls-22 {
        clip-path: url(#clip-path-2);
      }

      .cls-23 {
        clip-path: url(#clip-path-3);
      }
    </style>
    <clipPath id="clip-path">
      <ellipse id="Ellipse_211" data-name="Ellipse 211" cx="30.051" cy="30.051" rx="30.051" ry="30.051"/>
    </clipPath>
    <clipPath id="clip-path-2">
      <path id="Path_865" data-name="Path 865" d="M179.823,186.071a44.411,44.411,0,0,1-8.393,11.912,33.753,33.753,0,0,1-5.685,4.332c-1.534.993-2.978,2.527-3.61.09-.632-2.166-1.083-4.332-1.534-6.5-.993-4.422-1.9-8.934-2.527-13.446-.993-7.4-3.249-15.071-1.354-22.561,3.52,3.249,7.31,5.956,10.92,9.115,3.7,3.249,7.31,6.588,10.829,10.107a6.779,6.779,0,0,1,2.346,3.79A7.161,7.161,0,0,1,179.823,186.071Z" transform="translate(-155.986 -159.9)"/>
    </clipPath>
    <clipPath id="clip-path-3">
      <path id="Path_868" data-name="Path 868" d="M47.093,185.671a44.412,44.412,0,0,0,8.393,11.912,33.753,33.753,0,0,0,5.685,4.332c1.534.993,2.978,2.527,3.61.09.632-2.166,1.083-4.332,1.534-6.5.993-4.422,1.9-8.934,2.527-13.446.993-7.4,3.249-15.071,1.354-22.561-3.52,3.249-7.31,5.956-10.92,9.115-3.7,3.249-7.31,6.588-10.829,10.107a6.779,6.779,0,0,0-2.346,3.79A7.161,7.161,0,0,0,47.093,185.671Z" transform="translate(-46.1 -159.5)"/>
    </clipPath>
  </defs>
  <g id="Group_821" data-name="Group 821" transform="translate(-123 -1840.366)">
    <rect id="Rectangle_9" data-name="Rectangle 9" class="cls-1" width="162" height="151" transform="translate(123 2023)"/>
    <g id="Group_816" data-name="Group 816" transform="translate(-1339 -174)">
      <ellipse id="Ellipse_203" data-name="Ellipse 203" class="cls-2" cx="153" cy="153" rx="153" ry="153" transform="translate(1501 2019.366)"/>
      <g id="Group_785" data-name="Group 785" transform="translate(1581.846 2047.976)">
        <path id="Path_826" data-name="Path 826" class="cls-3" d="M132.917,165.922l-16.966,16.515L93.3,165.922V135.6h39.617Z" transform="translate(-41.951 -13.219)"/>
        <path id="Path_827" data-name="Path 827" class="cls-4" d="M93.932,134.7a12.465,12.465,0,0,0,5.5,2.617,67.974,67.974,0,0,0,17.056,2.707c5.776.09,11.1-1.534,16.425-3.881v5.415s-12.454,2.617-18.5,2.527S93.3,141.017,93.3,141.017V137.5a11,11,0,0,1,1.263-2.076" transform="translate(-41.951 -13.131)"/>
        <path id="Path_828" data-name="Path 828" class="cls-5" d="M114.6,276.121h38.805c.541,0,1.173-43.137,1.354-45.213,1.263-12.093,2.527-24.1,3.79-36.188.451-4.332.9-8.573,1.354-12.9.632-5.776,3.52-11.1-1.534-17.327-4.061-5.054-15.883-14.71-23.1-12.815-2.437.632-20.576,27.8-20.576,27.8" transform="translate(-44.029 -14.764)"/>
        <path id="Path_829" data-name="Path 829" class="cls-3" d="M108.85,127.245C26.006,127.245,51.726,0,62.465,0c4.512,0,9.115,7.039,11.461,10.107A215.224,215.224,0,0,1,86.65,28.517c1.173,1.8,2.256,3.7,3.429,5.5.812,1.354,2.617,5.415,4.422,2.707.18.812.722,1.624,1.354.812.9,1.263,5.776.18,5.6-1.534.361,2.527,4.873,1.263,5.054-.632a1.48,1.48,0,0,1,.632,1.083c.541,1.444,5.6.361,5.144-.451,1.083,2.166,5.685,2.8,6.949.451-.18.451.361.9.812.9a1.79,1.79,0,0,0,1.173-.541c.632,1.715,3.61,1.263,4.6.18a18.659,18.659,0,0,0,1.354-2.256c1.444-2.346,2.888-4.693,4.332-6.949A200.448,200.448,0,0,1,144.046,9.837C146.482,6.768,150.9,0,155.326,0c1.534,0,2.978,2.346,3.7,3.429A17.256,17.256,0,0,1,161.1,7.49c.451,1.263-.271,2.527.18,3.79a17.9,17.9,0,0,1,.993,1.8c.271,1.173-.541,2.256-.361,3.429a6.034,6.034,0,0,0,1.444,2.256c1.263,1.534,1.263,3.159,1.624,5.054.632,3.249,1.083,6.407,1.444,9.656a145.741,145.741,0,0,1,1.083,21.749,126.985,126.985,0,0,1-2.437,22.651,78.6,78.6,0,0,1-7.31,21.027,53.629,53.629,0,0,1-13.356,16.785,50.556,50.556,0,0,1-20.666,9.927A67.83,67.83,0,0,1,108.85,127.245Z" transform="translate(-37.738 0.009)"/>
        <path id="Path_830" data-name="Path 830" class="cls-4" d="M93.081,125.439s-9.115-9.746-13.717-14.62c-6.227-6.5-11.642-14.259-14.439-22.922-8.663-26.532,8.3-40.159,5.866-40.791C52.471,42.324,66.91-.723,62.488,0,59.871.45,59.42,1.443,57.073,7.67c-3.881,10.559-10.559,34.112-3.881,73.1,3.159,18.5,17.056,35.827,31.586,42.144A44.812,44.812,0,0,0,93.081,125.439Z" transform="translate(-37.761 0.01)"/>
        <path id="Path_831" data-name="Path 831" class="cls-6" d="M120.3,275.3h10.559V157.8L120.3,174.315Z" transform="translate(-44.585 -15.385)"/>
        <path id="Path_832" data-name="Path 832" class="cls-6" d="M141.2,274.7h10.649V156.483a43.733,43.733,0,0,0-4.422-2.707,20.658,20.658,0,0,0-5.866-2.076Z" transform="translate(-46.624 -14.79)"/>
        <ellipse id="Ellipse_204" data-name="Ellipse 204" class="cls-7" cx="9.566" cy="9.566" rx="9.566" ry="9.566" transform="translate(85.552 61.646)"/>
        <ellipse id="Ellipse_205" data-name="Ellipse 205" class="cls-8" cx="7.039" cy="7.039" rx="7.039" ry="7.039" transform="translate(88.079 64.173)"/>
        <ellipse id="Ellipse_206" data-name="Ellipse 206" class="cls-7" cx="9.566" cy="9.566" rx="9.566" ry="9.566" transform="translate(37.632 61.646)"/>
        <ellipse id="Ellipse_207" data-name="Ellipse 207" class="cls-8" cx="7.039" cy="7.039" rx="7.039" ry="7.039" transform="translate(40.159 64.173)"/>
        <path id="Path_833" data-name="Path 833" class="cls-9" d="M98.2,112.832c0,2.527,1.624,6.949,8.844,6.949,6.678,0,7.31-7.581,7.31-7.581h0s.632,7.581,7.31,7.581c7.22,0,8.844-4.422,8.844-6.949" transform="translate(-42.429 -10.937)"/>
        <path id="Path_834" data-name="Path 834" class="cls-10" d="M115.124,97.4c-4.963,0-9.024.18-9.024,3.52,0,3.249,9.024,5.956,9.024,5.956s9.024-2.617,9.024-5.956S120.088,97.4,115.124,97.4Z" transform="translate(-43.2 -9.493)"/>
        <path id="Path_835" data-name="Path 835" class="cls-11" d="M109.971,100.92c0-3.068,1.263-3.429,5.866-3.52h-.812c-4.963,0-9.024.18-9.024,3.52,0,3.249,4.061,5.956,9.024,5.956h.812C111.234,106.515,109.971,103.988,109.971,100.92Z" transform="translate(-43.19 -9.493)"/>
        <path id="Path_836" data-name="Path 836" class="cls-12" d="M65.085,8.1C61.656,8.01,55.7,48.71,55.7,48.71s12.273.451,15.612-.812c0,0-10.2-5.776-8.483-13.9C64.815,25.066,65.085,8.1,65.085,8.1Z" transform="translate(-38.283 -0.781)"/>
        <g id="Group_769" data-name="Group 769" transform="translate(95.118 6.958)">
          <g id="Group_768" data-name="Group 768" class="cls-13" transform="translate(0 0.09)">
            <path id="Path_837" data-name="Path 837" class="cls-10" d="M141.8,38.754S160.12,7.89,163.639,7.8s9.385,40.61,9.385,40.61L162.2,48.049a19.44,19.44,0,0,1-9.656-2.888Z" transform="translate(-141.8 -7.8)"/>
          </g>
          <path id="Path_838" data-name="Path 838" class="cls-12" d="M165.168,7.7c3.429-.09,9.385,40.61,9.385,40.61s-12.9.09-16.154-1.263c0,0,12.454-2.8,9.024-13.537C164.717,24.937,165.168,7.7,165.168,7.7Z" transform="translate(-143.419 -7.7)"/>
        </g>
        <g id="Group_771" data-name="Group 771" transform="translate(18.681 7.77)">
          <g id="Group_770" data-name="Group 770" class="cls-13" transform="translate(0 0.09)">
            <path id="Path_839" data-name="Path 839" class="cls-10" d="M87.6,38.21S67.388,8.61,63.959,8.7,57.1,49.852,57.1,49.852l10.829-.993a20.732,20.732,0,0,0,9.476-3.429Z" transform="translate(-57.1 -8.7)"/>
          </g>
          <path id="Path_840" data-name="Path 840" class="cls-12" d="M63.959,8.6C60.529,8.69,57.1,49.752,57.1,49.752S70,49.03,73.164,47.5c0,0-12.544-1.985-9.837-12.9C65.493,25.746,63.959,8.6,63.959,8.6Z" transform="translate(-57.1 -8.6)"/>
        </g>
        <ellipse id="Ellipse_208" data-name="Ellipse 208" class="cls-14" cx="3.159" cy="3.159" rx="3.159" ry="3.159" transform="translate(39.166 63.812)"/>
        <ellipse id="Ellipse_209" data-name="Ellipse 209" class="cls-14" cx="3.159" cy="3.159" rx="3.159" ry="3.159" transform="translate(87.086 63.812)"/>
        <path id="Path_841" data-name="Path 841" class="cls-3" d="M169.444,112.581a11.643,11.643,0,0,1-.722-2.527,2.27,2.27,0,0,1,.09-1.354,1.161,1.161,0,0,1,1.173-.722,2.015,2.015,0,0,1,1.173.541,7.223,7.223,0,0,1-.632-3.881.689.689,0,0,1,.18-.451.4.4,0,0,1,.451,0,5.929,5.929,0,0,1,1.534,1.083,5.33,5.33,0,0,1-.361-2.346c0-.361,0-.451.18-.632.09-.09.812-.541.812-.541a2.522,2.522,0,0,1-.993-1.624,9.65,9.65,0,0,1-.18-3.61c.09-.451.09-2.346.451-2.617-1.444,1.444-2.346,6.768-3.068,8.212a32.533,32.533,0,0,0-2.346,4.693,23.411,23.411,0,0,0-.993,3.339c-.18.722-1.624,4.061-1.9,5.234a11.7,11.7,0,0,1,2.527-2.707A2.68,2.68,0,0,1,169.444,112.581Z" transform="translate(-48.877 -9.151)"/>
        <path id="Path_842" data-name="Path 842" class="cls-15" d="M161.124,206.1l.361-6.678L155.709,176.4l-.722-9.2c.18,2.346.09,4.783.271,7.129.271,3.79.812,7.581.9,11.461a146.684,146.684,0,0,0,1.715,20.937c.993,5.866,2.8,12.454-2.527,16.515-1.715,1.263-5.6.632-6.678,2.166-.18.18-.18.451-.271.722a3.352,3.352,0,0,0,1.8,2.978,7.422,7.422,0,0,0,3.429.541c2.166,0,4.6.361,5.5-2.346a15.815,15.815,0,0,0,.451-3.61c.361-5.956,1.083-11.822,1.624-17.688Z" transform="translate(-47.325 -16.302)"/>
        <g id="Group_772" data-name="Group 772" transform="translate(91.418 77.8)">
          <path id="Path_843" data-name="Path 843" class="cls-16" d="M137.7,101.181a123.7,123.7,0,0,1,12.634-5.866c4.332-1.715,8.663-3.249,13.176-4.6a113.709,113.709,0,0,1,13.537-3.249,89.407,89.407,0,0,1,13.9-1.263.09.09,0,0,1,0,.18c-4.6.722-9.2,1.354-13.717,2.256s-9.024,1.8-13.537,2.978c-4.422,1.173-8.844,2.617-13.176,4.241a131.982,131.982,0,0,0-12.724,5.5c-.09-.09-.09-.09-.09-.18Z" transform="translate(-137.7 -86.2)"/>
        </g>
        <g id="Group_773" data-name="Group 773" transform="translate(92.343 94.653)">
          <path id="Path_844" data-name="Path 844" class="cls-16" d="M138.793,107.063a20.346,20.346,0,0,0,5.234-.722,50.393,50.393,0,0,1,5.324-.9,70.776,70.776,0,0,1,10.739-.541,59.187,59.187,0,0,1,10.649,1.173,25.909,25.909,0,0,1,5.144,1.534,14.825,14.825,0,0,1,4.512,2.888v.09h-.09c-2.888-2.076-6.407-2.888-9.837-3.52A83.08,83.08,0,0,0,160,105.71a69.942,69.942,0,0,0-10.649.18,48.719,48.719,0,0,0-5.234.722,17.5,17.5,0,0,1-5.324.451q-.135.135,0,0Z" transform="translate(-138.725 -104.875)"/>
        </g>
        <g id="Group_774" data-name="Group 774" transform="translate(0 77.71)">
          <path id="Path_845" data-name="Path 845" class="cls-16" d="M89.644,101.261a131.979,131.979,0,0,0-12.724-5.5c-4.332-1.624-8.754-3.068-13.176-4.241s-9.024-2.076-13.537-2.978S41.093,86.912,36.49,86.28a.09.09,0,0,1,0-.18,103.3,103.3,0,0,1,13.9,1.263,98.54,98.54,0,0,1,13.537,3.249c4.422,1.354,8.844,2.888,13.176,4.6a133.373,133.373,0,0,1,12.634,5.866c0,.09,0,.09-.09.18Z" transform="translate(-36.4 -86.1)"/>
        </g>
        <g id="Group_775" data-name="Group 775" transform="translate(10.649 94.653)">
          <path id="Path_846" data-name="Path 846" class="cls-16" d="M90.976,107.154c-3.7.18-7.31-.812-10.92-1.083a73.268,73.268,0,0,0-10.92-.271A85.175,85.175,0,0,0,58.4,107.154c-3.52.632-7.129,1.444-10.107,3.52H48.2v-.09a13.429,13.429,0,0,1,4.693-2.978,27.593,27.593,0,0,1,5.324-1.534,56.141,56.141,0,0,1,10.92-1.173,64.4,64.4,0,0,1,11.01.632c3.61.451,7.129,1.534,10.829,1.534v.09Z" transform="translate(-48.2 -104.875)"/>
        </g>
        <g id="Group_776" data-name="Group 776" transform="translate(92.14 88.178)">
          <path id="Path_847" data-name="Path 847" class="cls-16" d="M138.59,104.559a64.061,64.061,0,0,1,12.634-3.971A129.068,129.068,0,0,1,164.4,98.512a130.822,130.822,0,0,1,13.266-.812,81.373,81.373,0,0,1,13.266,1.083s.09,0,0,.09a.088.088,0,0,1-.09.09c-4.422-.18-8.844-.18-13.266-.09s-8.844.18-13.266.541a126.538,126.538,0,0,0-13.085,1.715,62.077,62.077,0,0,0-12.724,3.61c.09-.09.09-.09.09-.18Z" transform="translate(-138.5 -97.7)"/>
        </g>
        <g id="Group_777" data-name="Group 777" transform="translate(7.874 85.651)">
          <path id="Path_848" data-name="Path 848" class="cls-16" d="M45.193,94.9c3.7.541,7.4,1.083,11.19,1.715q5.55.948,11.1,2.166c3.7.722,7.4,1.444,11.1,2.256,1.8.451,3.7.812,5.5,1.354a26.427,26.427,0,0,1,5.324,1.8v.09h-.09a21.932,21.932,0,0,0-5.415-1.534c-1.8-.361-3.7-.722-5.5-1.083-3.7-.722-7.4-1.354-11.1-1.985s-7.4-1.173-11.1-1.9c-3.7-.812-7.4-1.534-11.01-2.707-.09-.09-.09-.09,0-.18Z" transform="translate(-45.125 -94.9)"/>
        </g>
        <path id="Path_849" data-name="Path 849" class="cls-5" d="M109.552,276.121H70.747c-.541,0-1.173-43.137-1.354-45.213-1.263-12.093-2.527-24.1-3.79-36.188-.451-4.332-.9-8.573-1.354-12.9-.632-5.776-3.52-11.1,1.534-17.327,4.061-5.054,15.883-14.71,23.1-12.815,2.437.632,20.576,27.8,20.576,27.8" transform="translate(-38.981 -14.764)"/>
        <path id="Path_850" data-name="Path 850" class="cls-6" d="M107.759,275.3H97.2V157.8l10.559,16.515Z" transform="translate(-42.331 -15.385)"/>
        <path id="Path_851" data-name="Path 851" class="cls-6" d="M86.849,274.7H76.2V156.483a43.734,43.734,0,0,1,4.422-2.707,20.658,20.658,0,0,1,5.866-2.076Z" transform="translate(-40.283 -14.79)"/>
        <path id="Path_852" data-name="Path 852" class="cls-15" d="M79.064,243.158h0c.451,3.339.361,3.61-2.8,4.332a15.424,15.424,0,0,1-7.851-.09,4.041,4.041,0,0,1-1.8-1.083c-.9-1.083-1.173-5.5-.271-6.588,1.173-1.444,7.039-.09,8.934.09a4.258,4.258,0,0,1,2.978.993A3.864,3.864,0,0,1,79.064,243.158Z" transform="translate(-39.266 -23.313)"/>
        <path id="Path_853" data-name="Path 853" class="cls-15" d="M66.661,205.2l-.361-6.5,5.776-22.471L72.8,167.3c-.18,2.346-.09,4.693-.271,6.949-.271,3.7-.812,7.4-.9,11.19a141.51,141.51,0,0,1-1.715,20.486c-.993,5.776-2.8,12.183,2.527,16.154,1.715,1.263,5.6.632,6.678,2.166.18.18.18.451.271.722a3.215,3.215,0,0,1-1.8,2.888,7.422,7.422,0,0,1-3.429.541c-2.166,0-4.6.361-5.5-2.256a15.039,15.039,0,0,1-.451-3.52c-.361-5.776-1.083-11.551-1.624-17.237Z" transform="translate(-39.317 -16.312)"/>
        <g id="Group_778" data-name="Group 778" transform="translate(46.107 136.244)">
          <path id="Path_854" data-name="Path 854" class="cls-17" d="M92.1,151.538c-.722-.9-1.534-.541-3.068-.271-3.52.632,0,.722.632,1.715l20.576,27.8a1.982,1.982,0,0,0,1.715.812h-.09a2.564,2.564,0,0,0,1.715-.812l20.576-27.8c.722-.9,4.151-1.083.632-1.715-1.444-.271-2.346-.632-3.068.271l-18.951,25a1.184,1.184,0,0,1-1.9,0Z" transform="translate(-87.491 -150.962)"/>
        </g>
        <ellipse id="Ellipse_210" data-name="Ellipse 210" class="cls-18" cx="30.051" cy="30.051" rx="30.051" ry="30.051" transform="translate(39.798 178.964)"/>
        <g id="Group_780" data-name="Group 780" transform="translate(39.798 178.964)">
          <g id="Group_779" data-name="Group 779" class="cls-19">
            <path id="Path_855" data-name="Path 855" class="cls-20" d="M125.527,225.735l7.761-4.151a1.41,1.41,0,0,1,1.715.361l6.5,8.212a1.389,1.389,0,0,1,.18,1.444l-4.422,9.024a1.394,1.394,0,0,1-1.444.722l-8.844-1.624a1.246,1.246,0,0,1-1.083-1.173l-.993-11.461A1.161,1.161,0,0,1,125.527,225.735Z" transform="translate(-84.826 -200.557)"/>
            <path id="Path_856" data-name="Path 856" class="cls-20" d="M97.538,209.131l6.949-.632a2.231,2.231,0,0,1,2.346,1.8l1.444,8.032a2.2,2.2,0,0,1-.993,2.256l-8.122,4.963a2.024,2.024,0,0,1-2.437-.18l-5.415-4.332a2.12,2.12,0,0,1-.451-2.888L96,210.124A1.9,1.9,0,0,1,97.538,209.131Z" transform="translate(-81.474 -199.294)"/>
            <path id="Path_857" data-name="Path 857" class="cls-20" d="M100.419,244.184l9.927,4.512a1.783,1.783,0,0,1,1.083,1.624v6.588a1.769,1.769,0,0,1-1.534,1.8,27.375,27.375,0,0,1-9.3-.271c-3.429-.9-6.046-5.234-7.22-7.4a1.919,1.919,0,0,1,.361-2.166l4.783-4.422A1.788,1.788,0,0,1,100.419,244.184Z" transform="translate(-81.738 -202.761)"/>
            <path id="Path_858" data-name="Path 858" class="cls-20" d="M124.7,262.478v-1.624s10.829-4.963,10.92-6.678l4.6-2.076-3.79,5.144-10.468,6.137Z" transform="translate(-84.812 -203.548)"/>
            <path id="Path_859" data-name="Path 859" class="cls-20" d="M119.1,198.9l.632,2.527c.09.271.18.451.451.541,1.8.722,9.927,3.971,11.551,5.144a.741.741,0,0,0,.632.09,17.592,17.592,0,0,1,3.429-.451c1.444,0-4.241-5.5-7.129-6.5-2.166-.722-6.5-1.8-8.663-2.256A.746.746,0,0,0,119.1,198.9Z" transform="translate(-84.264 -198.267)"/>
            <path id="Path_860" data-name="Path 860" class="cls-20" d="M81.314,226l.9,1.985s.271,10.107.993,11.281l.722,1.173-1.263,2.617S79.51,232.317,79.6,230.6,81.314,226,81.314,226Z" transform="translate(-80.412 -201.002)"/>
          </g>
        </g>
        <path id="Path_861" data-name="Path 861" class="cls-3" d="M168.462,191.417a9.752,9.752,0,0,1,2.707-1.444c2.978-1.263,3.339,2.527,3.881,4.6a126.814,126.814,0,0,1,2.8,14.168,45.1,45.1,0,0,1-1.444,18.681c-3.429,11.1-13.807,15.973-24.637,17.056a68.707,68.707,0,0,1-15.522-.271c-2.166-.271-4.241-.722-6.317-.993-2.888-.361-6.137.722-8.393-1.715-1.624-1.715-2.166-4.151-2.346-6.5a11.308,11.308,0,0,1,.451-5.234,5.744,5.744,0,0,1,3.52-3.7c3.61-1.173,6.949,2.166,10.468,2.437,7.761.451,21.478.451,27.525-5.415,3.61-3.52.9-14.259-.722-18.5a7.548,7.548,0,0,1-.722-2.8,8.351,8.351,0,0,1,.9-3.339C162.416,194.485,165.033,193.853,168.462,191.417Z" transform="translate(-44.466 -18.499)"/>
        <path id="Path_862" data-name="Path 862" class="cls-3" d="M55.046,186.917a9.752,9.752,0,0,0-2.707-1.444c-2.978-1.263-3.339,2.527-3.881,4.6a54.784,54.784,0,0,0-1.9,9.3c-.722,6.227-.361,21.659,1.534,27.615,3.429,11.1,13.807,15.973,24.637,17.056a68.709,68.709,0,0,0,15.522-.271c2.166-.271,4.241-.722,6.317-.993,2.888-.361,6.137.722,8.393-1.715,1.624-1.715,2.166-4.151,2.346-6.5a11.308,11.308,0,0,0-.451-5.234,5.744,5.744,0,0,0-3.52-3.7c-3.61-1.173-6.949,2.166-10.468,2.437-7.761.451-21.478.451-27.525-5.415-3.61-3.52-2.076-15.251-.451-19.493a7.548,7.548,0,0,0,.722-2.8,8.351,8.351,0,0,0-.9-3.339C60.911,193.053,58.475,189.263,55.046,186.917Z" transform="translate(-37.358 -18.06)"/>
        <g id="Group_782" data-name="Group 782" transform="translate(107.92 144.31)">
          <path id="Path_863" data-name="Path 863" class="cls-21" d="M179.823,186.071a44.411,44.411,0,0,1-8.393,11.912,33.753,33.753,0,0,1-5.685,4.332c-1.534.993-2.978,2.527-3.61.09-.632-2.166-1.083-4.332-1.534-6.5-.993-4.422-1.9-8.934-2.527-13.446-.993-7.4-3.249-15.071-1.354-22.561,3.52,3.249,7.31,5.956,10.92,9.115,3.7,3.249,7.31,6.588,10.829,10.107a6.779,6.779,0,0,1,2.346,3.79A7.161,7.161,0,0,1,179.823,186.071Z" transform="translate(-155.986 -159.9)"/>
          <g id="Group_781" data-name="Group 781" class="cls-22">
            <path id="Path_864" data-name="Path 864" class="cls-6" d="M178.586,191.2l6.859-8.122L153.5,157a38.023,38.023,0,0,0-4.873,1.624,19.745,19.745,0,0,0-5.324,3.068Z" transform="translate(-154.749 -159.617)"/>
          </g>
        </g>
        <g id="Group_784" data-name="Group 784" transform="translate(8.754 143.949)">
          <path id="Path_866" data-name="Path 866" class="cls-21" d="M47.093,185.671a44.412,44.412,0,0,0,8.393,11.912,33.753,33.753,0,0,0,5.685,4.332c1.534.993,2.978,2.527,3.61.09.632-2.166,1.083-4.332,1.534-6.5.993-4.422,1.9-8.934,2.527-13.446.993-7.4,3.249-15.071,1.354-22.561-3.52,3.249-7.31,5.956-10.92,9.115-3.7,3.249-7.31,6.588-10.829,10.107a6.779,6.779,0,0,0-2.346,3.79A7.161,7.161,0,0,0,47.093,185.671Z" transform="translate(-46.1 -159.5)"/>
          <g id="Group_783" data-name="Group 783" class="cls-23">
            <path id="Path_867" data-name="Path 867" class="cls-6" d="M46.459,190.8,39.6,182.681,71.547,156.6a38.021,38.021,0,0,1,4.873,1.624,19.746,19.746,0,0,1,5.324,3.068Z" transform="translate(-45.466 -159.217)"/>
          </g>
        </g>
      </g>
    </g>
  </g>
</svg>
