<svg xmlns="http://www.w3.org/2000/svg" xmlns:xlink="http://www.w3.org/1999/xlink" viewBox="0 0 328 342">
  <defs>
    <style>
      .cls-1 {
        fill: #f2f2f2;
        stroke: #707070;
      }

      .cls-2 {
        fill: #cbc530;
      }

      .cls-3 {
        fill: #f3cd75;
      }

      .cls-25, .cls-3 {
        stroke: #fff;
        stroke-width: 10px;
      }

      .cls-4 {
        clip-path: url(#clip-path);
      }

      .cls-10, .cls-11, .cls-12, .cls-5 {
        fill: #d9837e;
      }

      .cls-19, .cls-20, .cls-23, .cls-5, .cls-6, .cls-8, .cls-9 {
        fill-rule: evenodd;
      }

      .cls-6 {
        fill: #eddedc;
      }

      .cls-24, .cls-25, .cls-27, .cls-7 {
        fill: none;
      }

      .cls-24, .cls-7 {
        stroke: #8d8a8b;
        stroke-miterlimit: 10;
      }

      .cls-7 {
        stroke-width: 1.768px;
      }

      .cls-8 {
        fill: #35acbc;
      }

      .cls-9 {
        fill: #e4ecad;
      }

      .cls-10 {
        opacity: 0.75;
      }

      .cls-12, .cls-16, .cls-18 {
        opacity: 0.5;
      }

      .cls-13, .cls-16 {
        fill: #fff;
      }

      .cls-14 {
        fill: #333;
      }

      .cls-15 {
        clip-path: url(#clip-path-2);
      }

      .cls-17 {
        fill: #e7b4b1;
      }

      .cls-18 {
        fill: #372120;
      }

      .cls-19, .cls-22 {
        fill: #f7dea7;
      }

      .cls-20 {
        fill: #403b58;
      }

      .cls-21 {
        fill: #f5944a;
      }

      .cls-23 {
        fill: #ffca05;
      }

      .cls-24 {
        stroke-width: 1.691px;
      }

      .cls-26 {
        stroke: none;
      }
    </style>
    <clipPath id="clip-path">
      <rect id="Rectangle_518" data-name="Rectangle 518" width="283.495" height="252.771"/>
    </clipPath>
    <clipPath id="clip-path-2">
      <circle id="Ellipse_218" data-name="Ellipse 218" cx="6.895" cy="6.895" r="6.895"/>
    </clipPath>
  </defs>
  <g id="Group_830" data-name="Group 830" transform="translate(-536 -1982)">
    <g id="Ellipse_2" data-name="Ellipse 2" class="cls-1" transform="translate(541 2023)">
      <circle class="cls-26" cx="150.5" cy="150.5" r="150.5"/>
      <circle class="cls-27" cx="150.5" cy="150.5" r="150"/>
    </g>
    <rect id="Rectangle_10" data-name="Rectangle 10" class="cls-2" width="210" height="191" transform="translate(654 1982)"/>
    <circle id="Ellipse_258" data-name="Ellipse 258" class="cls-3" cx="153.756" cy="153.756" r="153.756" transform="translate(541 2010.366)"/>
    <g id="Group_793" data-name="Group 793" transform="translate(555.281 2061.461)">
      <g id="Group_792" data-name="Group 792" class="cls-4">
        <path id="Path_869" data-name="Path 869" class="cls-5" d="M390.269,262.75c-13.7,30.549-15.8,68.43-14.14,100.113,1.92,36.048,12.656,103.779,12.656,103.779h5.5l9.688-173.955S392.1,258.648,390.269,262.75Z" transform="translate(-267.549 -33.371)"/>
        <path id="Path_870" data-name="Path 870" class="cls-6" d="M384.409,495.149c-2.008.436-4.015.087-6.023,0a39.131,39.131,0,0,0-16.758,2.357c-1.135.436-2.357,1.047-2.531,2.269a2.935,2.935,0,0,0,1.658,2.706c3.142,2.182,7.157,2.531,11,2.531a130.4,130.4,0,0,0,16.5-.7c1.571-.175,3.229-.436,4.19-1.658,1.222-1.484.7-3.579.262-5.412a3.656,3.656,0,0,0-.96-1.92,3.694,3.694,0,0,0-2.182-.524c-1.92,0-3.928.087-5.848.262" transform="translate(-265.442 -62.924)"/>
        <line id="Line_22" data-name="Line 22" class="cls-7" x2="4.277" y2="3.491" transform="translate(112.857 432.138)"/>
        <line id="Line_23" data-name="Line 23" class="cls-7" x2="4.277" y2="3.491" transform="translate(108.493 432.138)"/>
        <path id="Path_871" data-name="Path 871" class="cls-8" d="M381.418,436.183a4.465,4.465,0,0,0-1.222,3.753,8.275,8.275,0,0,0,.524,1.746c.785,2.007,1.658,4.1,2.444,6.11-1.4-.087-2.444,3.142-2.269,5.935a10,10,0,0,0,2.706,6.2c-1.135.96-1.833,3.4-1.746,5.761s1.047,4.539,2.182,5.15a9.288,9.288,0,0,0-1.484,2.269,5.935,5.935,0,0,0-.175,3.491c.349,1.222,1.309,1.746,1.484,3.142-.873.785-.873,3.317-.349,4.8a5.479,5.479,0,0,0,2.357,2.793,13.446,13.446,0,0,0,11,1.746,2.337,2.337,0,0,0,1.833-2.095,5.108,5.108,0,0,0-1.746-4.539,6.53,6.53,0,0,0,2.269-7.245,3.985,3.985,0,0,1-.436-1.222c-.175-1.571,1.222-1.833,1.571-3.317a4.014,4.014,0,0,0-.96-3.4,2.433,2.433,0,0,1-.7-1.658,2.572,2.572,0,0,1,.436-1.135,9.434,9.434,0,0,0,1.222-4.888c-.087-1.92-1.047-3.666-1.92-3.055a23.608,23.608,0,0,0,1.047-6.2c-.087-2.182-1.047-4.451-2.095-4.1a10.7,10.7,0,0,0,1.309-4.364c.087-1.746-.873-3.579-1.658-2.793a3.4,3.4,0,0,0,1.047-2.968,1.348,1.348,0,0,0-1.222-1.135,37.466,37.466,0,0,0-12.481.611C384.472,435.572,382.2,435.572,381.418,436.183Z" transform="translate(-268.124 -55.28)"/>
        <path id="Path_872" data-name="Path 872" class="cls-5" d="M430.6,262.75c13.7,30.549,15.8,68.43,14.14,100.113-1.92,36.048-12.656,103.779-12.656,103.779h-5.5L416.9,292.688S428.77,258.648,430.6,262.75Z" transform="translate(-272.796 -33.371)"/>
        <path id="Path_873" data-name="Path 873" class="cls-5" d="M291.99,179.063a31.99,31.99,0,0,1,6.633-4.015c2.88-1.4,6.023-2.793,9.252-2.531a18.265,18.265,0,0,1,6.372,2.095c6.546,3.142,9.427,9.514,15.013,13.18,6.2,4.015,14.314.436,20.511-2.357,6.721-3.055,13.005-7.07,19.9-9.6a31.385,31.385,0,0,0,6.023-4.451c1.222-1.135-.175,5.761.786,7.244,6.721,10.736,10.474,21.733,9.688,34.3-.7,10.649-2.357,21.3-3.055,31.946.175-2.444-1.4-6.2-2.095-4.364-.96,2.793-2.095,7.768-6.372,7.506-4.015-.524-3.491-13.529-4.015-16.5.611,3.579.175,11.434-2.007,14.489-1.571,2.182-3.317.611-4.713-1.047-.7-.786-6.808-11-5.935-11.521-1.833,1.222-2.182,8.641-5.673,4.539-2.706-3.229-3.84-7.244-5.5-11.085a1.57,1.57,0,0,0-.524-.786c-.611-.524-1.571-.087-2.008.524a15.648,15.648,0,0,0-1.047,2.095c-4.19,7.07-11.783-13.965-12.831-16.147.96,1.92.7,4.8.524,6.9-.524,4.8-6.372-3.317-7.332-4.8A48.39,48.39,0,0,1,318,203.415a25.382,25.382,0,0,1,1.4,7.244c.087,1.222-.262,3.317-2.007,2.793-.7-.175-1.135-.873-1.658-1.571a92.856,92.856,0,0,1-9.252-18.068c.349,3.317.786,6.634.873,9.95.175,4.364-3.4,3.055-5.062.524a34.117,34.117,0,0,1-3.491-6.9c-.349-.96-2.444-5.761-1.833-6.634-1.484,2.269-7.506,8.641-10.736,5.412-1.92-1.92,2.357-13.529,3.928-15.275A12.123,12.123,0,0,1,291.99,179.063Z" transform="translate(-256.117 -21.779)"/>
        <path id="Path_874" data-name="Path 874" class="cls-5" d="M505.72,131.951a37.716,37.716,0,0,0-7.681-.262c-3.229.175-6.633.524-9.252,2.357a17.041,17.041,0,0,0-4.451,4.888c-4.1,5.935-3.4,12.918-6.459,18.853-3.4,6.546-12.22,7.506-19.028,8.03-7.332.611-14.751.349-22.083,1.571a33.313,33.313,0,0,1-7.419-.873c-1.658-.436,2.968,4.975,2.88,6.634-.349,9.252.786,18.679,4.539,27.145,3.491,7.943,4.626,14.576,6.372,23.13.873,4.451,2.269,8.99,5.412,12.22a8.556,8.556,0,0,0,4.19,2.618,5.384,5.384,0,0,0,4.713-1.047c2.095-2.008,1.571-5.237,1.4-7.768,2.531,1.658,5.935,5.5,9.252,3.055,3.229-2.444-3.666-13.442-4.713-16.322,1.222,3.491,5.5,10.038,8.9,11.609,2.444,1.135,3.229-1.135,3.579-3.229.175-1.047.436-12.918-.524-12.918,2.182.087,6.2,6.372,7.157,1.135.786-4.19-.262-8.2-.7-12.394a1.815,1.815,0,0,1,.087-.96c.262-.7,1.309-.873,2.008-.611a9.346,9.346,0,0,1,1.92,1.309c7.157,4.1,3.317-17.98,3.142-20.424.175,2.182,1.746,4.539,2.968,6.2,2.88,3.928,3.84-6.023,4.015-7.855a49.778,49.778,0,0,0-.7-12.481,24.427,24.427,0,0,0,2.357,6.983c.524,1.047,1.92,2.793,3.142,1.484a3.572,3.572,0,0,0,.611-2.182,92.42,92.42,0,0,0-.873-20.25c1.309,3.055,2.618,6.2,4.19,9.165,2.007,3.84,4.451.96,4.713-2.095a33.139,33.139,0,0,0-.349-7.768c-.175-.96-.7-6.2-1.746-6.633,2.444,1.222,10.823,3.753,11.958-.524.7-2.618-8.728-10.561-11-11.347C507.379,132.3,506.593,132.039,505.72,131.951Z" transform="translate(-274.333 -16.738)"/>
        <path id="Path_875" data-name="Path 875" class="cls-9" d="M389.855,24.876a47.9,47.9,0,0,1,25.661,1.833A18.332,18.332,0,0,0,406.439,0a18.278,18.278,0,0,1,3.4,10.736,18.68,18.68,0,0,1-2.531,9.339A18.458,18.458,0,0,0,395.528,3.229a18.278,18.278,0,0,1,3.4,10.736,18.54,18.54,0,0,1-1.484,7.244A18.6,18.6,0,0,0,386.8,10.387a18.278,18.278,0,0,1,3.4,10.736A13.685,13.685,0,0,1,389.855,24.876Z" transform="translate(-268.968)"/>
        <path id="Path_876" data-name="Path 876" class="cls-5" d="M393.6,164.543l8.816-42.943h12.743l10.736,42.943c-.873,10.3-9.863,16.758-16.06,16.671C403.725,181.214,394.124,174.232,393.6,164.543Z" transform="translate(-269.833 -15.464)"/>
        <path id="Path_877" data-name="Path 877" class="cls-8" d="M395.155,26.076a47.9,47.9,0,0,1,25.661,1.833A18.332,18.332,0,0,0,411.739,1.2a18.278,18.278,0,0,1,3.4,10.736,18.681,18.681,0,0,1-2.531,9.339A18.458,18.458,0,0,0,400.828,4.429a18.278,18.278,0,0,1,3.4,10.736,18.54,18.54,0,0,1-1.484,7.244A18.6,18.6,0,0,0,392.1,11.587a18.278,18.278,0,0,1,3.4,10.736A13.688,13.688,0,0,1,395.155,26.076Z" transform="translate(-269.642 -0.153)"/>
        <path id="Path_878" data-name="Path 878" class="cls-10" d="M440.268,64.725c0,16.235-24.963,74.452-36.484,74.452-10.91,0-36.484-63.018-36.484-80.3,0-30.113,7.07-28.978,36.484-28.978S440.268,34.612,440.268,64.725Z" transform="translate(-266.488 -3.802)"/>
        <path id="Path_879" data-name="Path 879" class="cls-11" d="M452.2,72.871c0,28.542-39.976,59.614-50.45,59.614-9.6,0-50.449-30.985-50.449-59.614S373.906,21.2,401.75,21.2,452.2,44.33,452.2,72.871Z" transform="translate(-264.454 -2.696)"/>
        <path id="Path_880" data-name="Path 880" class="cls-12" d="M401.75,132.513c-9.6,0-50.449-30.985-50.449-59.614A52.789,52.789,0,0,1,373.383,30.13c6.633-4.8,18.853-8.03,18.853-8.03s-4.8,2.269-10.212,5.586c-11.783,7.07-22.694,20.25-22.694,39.888,0,20.162,12.831,35.175,22.781,45.649,11,11.609,14.053,18.242,18.417,18.94.087,0,1.658.262,1.658.262A1.776,1.776,0,0,1,401.75,132.513Z" transform="translate(-264.454 -2.81)"/>
        <circle id="Ellipse_214" data-name="Ellipse 214" class="cls-13" cx="9.339" cy="9.339" r="9.339" transform="translate(113.119 52.632)"/>
        <circle id="Ellipse_215" data-name="Ellipse 215" class="cls-13" cx="9.339" cy="9.339" r="9.339" transform="translate(158.855 48.617)"/>
        <circle id="Ellipse_216" data-name="Ellipse 216" class="cls-14" cx="6.895" cy="6.895" r="6.895" transform="translate(115.737 55.076)"/>
        <g id="Group_787" data-name="Group 787" transform="translate(115.737 55.076)">
          <g id="Group_786" data-name="Group 786" class="cls-15" transform="translate(0 0)">
            <circle id="Ellipse_217" data-name="Ellipse 217" class="cls-16" cx="5.062" cy="5.062" r="5.062" transform="translate(-3.229 -3.229)"/>
          </g>
        </g>
        <circle id="Ellipse_219" data-name="Ellipse 219" class="cls-14" cx="6.895" cy="6.895" r="6.895" transform="translate(161.299 51.061)"/>
        <g id="Group_789" data-name="Group 789" transform="translate(161.299 51.061)">
          <g id="Group_788" data-name="Group 788" class="cls-15" transform="translate(0 0)">
            <circle id="Ellipse_220" data-name="Ellipse 220" class="cls-16" cx="5.062" cy="5.062" r="5.062" transform="translate(-3.229 -3.229)"/>
          </g>
        </g>
        <path id="Path_881" data-name="Path 881" class="cls-5" d="M393.055,28.976a47.9,47.9,0,0,1,25.661,1.833A18.332,18.332,0,0,0,409.639,4.1a18.278,18.278,0,0,1,3.4,10.736,18.68,18.68,0,0,1-2.531,9.339A18.458,18.458,0,0,0,398.728,7.329a18.278,18.278,0,0,1,3.4,10.736,18.539,18.539,0,0,1-1.484,7.244A18.6,18.6,0,0,0,390,14.487a18.278,18.278,0,0,1,3.4,10.736A14.326,14.326,0,0,1,393.055,28.976Z" transform="translate(-269.375 -0.521)"/>
        <path id="Path_882" data-name="Path 882" class="cls-17" d="M455.276,81.339c-1.484-1.571-.96-3.84,1.047-4.975l.524-.262a8.869,8.869,0,0,1,4.539-.611,6.734,6.734,0,0,1,2.269.611,2.324,2.324,0,0,1,.96,2.618,4.221,4.221,0,0,1-2.182,2.269,11.118,11.118,0,0,1-3.317.96,7.056,7.056,0,0,1-2.706,0A2.085,2.085,0,0,1,455.276,81.339Z" transform="translate(-277.568 -9.592)"/>
        <path id="Path_883" data-name="Path 883" class="cls-17" d="M379.432,96.906a5.53,5.53,0,0,1,1.4-8.03c.262-.175.436-.262.7-.436a10.93,10.93,0,0,1,6.022-1.047,5.1,5.1,0,0,1,2.968,1.047,4.338,4.338,0,0,1,1.309,4.277,6.691,6.691,0,0,1-2.88,3.666,11.322,11.322,0,0,1-4.451,1.571,7.444,7.444,0,0,1-3.666,0A3.114,3.114,0,0,1,379.432,96.906Z" transform="translate(-267.884 -11.107)"/>
        <g id="Group_791" data-name="Group 791" transform="translate(130.052 64.683)">
          <path id="Path_884" data-name="Path 884" class="cls-18" d="M412.7,101.114a11.034,11.034,0,0,1,1.309-5.412,3.4,3.4,0,0,1,2.357-2.008,5.072,5.072,0,0,1,3.4,1.047,15.978,15.978,0,0,1,5.761,6.284,3.172,3.172,0,0,1,.436,2.444,2.483,2.483,0,0,1-1.833,1.047,14.479,14.479,0,0,1-11.172-3.4" transform="translate(-402.313 -76.594)"/>
          <path id="Path_885" data-name="Path 885" class="cls-19" d="M437.546,86.5c2.357-2.444,4.713-4.8,7.157-7.07-.175-.087-.262-.262-.436-.349a24.274,24.274,0,0,0-12.22-4.713,36.015,36.015,0,0,0-27.407,8.292,13.32,13.32,0,0,0-3.84,4.626c4.1,2.88,7.768,14.664,8.2,14.314a87.8,87.8,0,0,1,13.442-7.332,29.118,29.118,0,0,1,10.212-2.706h.436c.436-.524.786-.96.96-1.222C435.189,89.026,436.324,87.717,437.546,86.5Z" transform="translate(-400.8 -74.107)"/>
          <path id="Path_886" data-name="Path 886" class="cls-20" d="M452.329,105.833a1.217,1.217,0,0,0,2.182.262A20.853,20.853,0,0,0,456.955,93a22.191,22.191,0,0,0-1.222-4.1,109.75,109.75,0,0,1-6.633,9.6A29.591,29.591,0,0,1,452.329,105.833Z" transform="translate(-406.942 -75.988)"/>
          <path id="Path_887" data-name="Path 887" class="cls-21" d="M453.62,86.494c-1.222-2.618-3.4-6.11-6.022-7.594a52.391,52.391,0,0,0-5.848,5.935,46.994,46.994,0,0,0-5.15,7.506c3.317,0,7.07.786,9.514,3.229.087.087.175.262.349.349.349.436.7.873,1.047,1.4a108.98,108.98,0,0,0,6.721-9.514C453.969,87.279,453.795,86.843,453.62,86.494Z" transform="translate(-405.353 -74.716)"/>
          <g id="Group_790" data-name="Group 790" transform="translate(7.768 22.948)">
            <path id="Path_888" data-name="Path 888" class="cls-19" d="M428.291,105.986c.96.786,1.92,1.658,2.88,2.357-.087,0-.175.087-.262.087a23.951,23.951,0,0,1-6.634,1.047c-4.8,0-9.6-1.047-13.092-3.4A4.23,4.23,0,0,1,409.7,104.5c2.357-.786,5.411-4.19,5.586-4.1a43.145,43.145,0,0,0,6.11,2.706,18.95,18.95,0,0,0,4.888,1.135h.262c.175.175.262.349.349.436A6.562,6.562,0,0,0,428.291,105.986Z" transform="translate(-409.7 -100.398)"/>
            <path id="Path_889" data-name="Path 889" class="cls-20" d="M437.557,101.071a.915.915,0,0,1,1.135,0,3.87,3.87,0,0,1-.087,4.1,11.734,11.734,0,0,1-.96,1.222,20.337,20.337,0,0,0-2.444-3.142A9.472,9.472,0,0,0,437.557,101.071Z" transform="translate(-412.943 -100.459)"/>
            <path id="Path_890" data-name="Path 890" class="cls-22" d="M436.43,106.991a9.171,9.171,0,0,1-3.753,2.095,20.635,20.635,0,0,1-2.357-2.008,12.432,12.432,0,0,1-1.92-2.444,11.376,11.376,0,0,0,5.15-.7c.087,0,.087-.087.175-.087.262-.087.436-.262.7-.349a21.61,21.61,0,0,1,2.444,3.142C436.692,106.729,436.6,106.9,436.43,106.991Z" transform="translate(-412.078 -100.793)"/>
          </g>
        </g>
        <path id="Path_891" data-name="Path 891" class="cls-5" d="M437.181,232.638c-21.821-3.317-37.619,10.474-59.265,15.1.262-10.474-5.761-20.861-6.023-31.335s.524-21.21,4.364-30.549c3.84-9.427,5.848-16.409,20.162-18.155l22.257.349c11.347,5.062,21.908,17.806,20.948,39.015C439.276,213.524,437.181,232.638,437.181,232.638Z" transform="translate(-267.067 -21.327)"/>
        <path id="Path_892" data-name="Path 892" class="cls-8" d="M437.581,214.862c-1.4-10.038-10.387-15.885-13.354-25.225a14.275,14.275,0,0,1,0-8.117c.786-2.88,1.92-5.673,1.92-8.641,0,.087-2.619-1.92-2.793-2.095a24.48,24.48,0,0,0-.7,2.706,17.339,17.339,0,0,0-1.047,4.19c-.087,1.484,0,2.968-.087,4.539a49.144,49.144,0,0,1-.873,7.943c-.436,2.357-.611,3.928-2.357,5.412a20.774,20.774,0,0,1-12.132,4.713l-1.833.175c-4.364.349-12.132-2.357-13.354-6.9-.96-3.4-.262-8.03-.349-11.521-.175-4.277-.349-8.554-.524-12.743h-.087c-.873.436-1.833.873-2.706,1.309-.96.436-1.047.524-.96,1.484a53.84,53.84,0,0,0,.96,5.412c.786,3.4,1.571,7.157.349,10.561-3.666,10.038-13.005,16.147-14.576,27.145-1.833,12.831-.087,25.05.175,37.881.524,20.162,12.656,39.976,28.28,52.806a5.989,5.989,0,0,0,8.466.7c18.155-10.561,26.883-33.429,27.232-53.592C437.581,239.912,439.414,227.692,437.581,214.862Z" transform="translate(-267.118 -21.53)"/>
        <path id="Path_893" data-name="Path 893" class="cls-8" d="M361.69,42.985h1.135c1.571.087,3.142.175,4.8.262,5.5.262,11,.349,16.5.349a182.812,182.812,0,0,0,18.329-.7c1.135-.087,2.182-.262,3.317-.436,8.03-1.135,15.973-2.706,23.828-4.626,1.571-.349,3.229-.786,4.8-1.222.524-.175,1.135-.349,1.658-.524,1.309-.349,2.968.7,3.928,1.484a9.738,9.738,0,0,1,2.444,3.491c.7,1.571-.436,1.571-1.658,1.92l-2.357.524c-2.531.611-4.975,1.135-7.506,1.746q-10.343,2.357-20.686,4.19c-3.4.611-6.9,1.135-10.387,1.571a172.306,172.306,0,0,1-18.94,1.135c-5.848.087-11.7.087-17.544-.262a27.476,27.476,0,0,1-3.753-.436,5.034,5.034,0,0,1-1.222-.262c-1.222-.436-.873-1.658-.611-2.706a11.126,11.126,0,0,1,2.706-4.713C360.9,43.422,361.167,43.073,361.69,42.985Z" transform="translate(-265.243 -4.581)"/>
        <path id="Path_894" data-name="Path 894" class="cls-23" d="M437.01,263.3h-64.24a2.311,2.311,0,0,0-2.269,2.269v1.484a2.311,2.311,0,0,0,2.269,2.269h64.24a2.311,2.311,0,0,0,2.269-2.269v-1.484A2.254,2.254,0,0,0,437.01,263.3Z" transform="translate(-266.895 -33.484)"/>
        <path id="Path_895" data-name="Path 895" class="cls-6" d="M436.377,494.749c1.92.436,3.84.087,5.761,0a37.444,37.444,0,0,1,16.06,2.269c1.047.436,2.269,1.047,2.444,2.182a2.754,2.754,0,0,1-1.571,2.531c-2.968,2.095-6.9,2.357-10.561,2.444a136.59,136.59,0,0,1-15.8-.611c-1.484-.175-3.055-.436-4.015-1.571-1.135-1.4-.7-3.491-.175-5.237a3.392,3.392,0,0,1,.96-1.833,3.275,3.275,0,0,1,2.095-.524c1.833,0,3.753.087,5.586.262" transform="translate(-274.205 -62.873)"/>
        <line id="Line_24" data-name="Line 24" class="cls-24" x1="4.102" y2="3.317" transform="translate(163.917 431.876)"/>
        <line id="Line_25" data-name="Line 25" class="cls-24" x1="4.015" y2="3.317" transform="translate(168.107 431.876)"/>
        <path id="Path_896" data-name="Path 896" class="cls-8" d="M440.627,436.183a4.465,4.465,0,0,1,1.222,3.753,8.275,8.275,0,0,1-.524,1.746c-.786,2.007-1.658,4.1-2.444,6.11,1.4-.087,2.444,3.142,2.269,5.935a10,10,0,0,1-2.706,6.2c1.135.96,1.833,3.4,1.746,5.761s-1.047,4.539-2.182,5.15a9.289,9.289,0,0,1,1.484,2.269,5.935,5.935,0,0,1,.175,3.491c-.349,1.222-1.309,1.746-1.484,3.142.873.785.873,3.317.349,4.8a5.479,5.479,0,0,1-2.357,2.793,13.446,13.446,0,0,1-11,1.746,2.337,2.337,0,0,1-1.833-2.095,5.108,5.108,0,0,1,1.746-4.539,6.53,6.53,0,0,1-2.269-7.245,3.985,3.985,0,0,0,.436-1.222c.175-1.571-1.222-1.833-1.571-3.317a4.014,4.014,0,0,1,.96-3.4,2.433,2.433,0,0,0,.7-1.658,2.572,2.572,0,0,0-.436-1.135,9.434,9.434,0,0,1-1.222-4.888c.087-1.92,1.047-3.666,1.92-3.055a23.606,23.606,0,0,1-1.047-6.2c0-2.182,1.047-4.451,2.095-4.1a10.7,10.7,0,0,1-1.309-4.364c-.087-1.746.873-3.579,1.658-2.793a3.4,3.4,0,0,1-1.047-2.968,1.348,1.348,0,0,1,1.222-1.135,37.466,37.466,0,0,1,12.481.611S439.841,435.572,440.627,436.183Z" transform="translate(-273.393 -55.28)"/>
      </g>
    </g>
    <circle id="Ellipse_288" data-name="Ellipse 288" class="cls-25" cx="153.756" cy="153.756" r="153.756" transform="translate(541 2010.366)"/>
  </g>
</svg>
