<?xml version="1.0" encoding="UTF-8" standalone="no"?><!DOCTYPE svg PUBLIC "-//W3C//DTD SVG 1.1//EN" "http://www.w3.org/Graphics/SVG/1.1/DTD/svg11.dtd"><svg width="100%" height="100%" viewBox="0 0 680 296" version="1.1" xmlns="http://www.w3.org/2000/svg" xmlns:xlink="http://www.w3.org/1999/xlink" xml:space="preserve" xmlns:serif="http://www.serif.com/" style="fill-rule:evenodd;clip-rule:evenodd;stroke-linejoin:round;stroke-miterlimit:1.41421;"><clipPath id="_clip1"><rect x="0" y="0" width="720" height="243.905"/></clipPath><g clip-path="url(#_clip1)"><rect x="0" y="0" width="729.008" height="243.905" style="fill:#2eafbe;"/></g><g id="Group_342"><clipPath id="_clip2"><rect x="0" y="42.591" width="720" height="201.314"/></clipPath><g clip-path="url(#_clip2)"><path id="Path_40" d="M39.973,294.631l689.035,0.513l0,-232.575c0,0 0.307,-15.617 -4.558,-17.053c-83.982,-24.798 -242.678,117.529 -455.423,71.761c-212.746,-45.768 -238.184,10.635 -238.184,10.635l9.13,166.719Z" style="fill:#cbc530;fill-opacity:0.709804;fill-rule:nonzero;"/><path id="Path_39" d="M0,295.144l729,0l0.008,-169.588c0,0 -32.947,-2.064 -62.802,-8.979c-129.385,-29.974 -352.034,69.039 -560.869,0c-42.159,-13.938 -105.337,-28.209 -105.337,-28.209l0,206.776Z" style="fill:#cbc530;fill-rule:nonzero;"/></g></g></svg>