<?xml version="1.0" encoding="UTF-8" standalone="no"?>
<!DOCTYPE svg PUBLIC "-//W3C//DTD SVG 1.1//EN" "http://www.w3.org/Graphics/SVG/1.1/DTD/svg11.dtd">
<svg width="100%" height="100%" viewBox="0 0 159 16" version="1.1" xmlns="http://www.w3.org/2000/svg" xmlns:xlink="http://www.w3.org/1999/xlink" xml:space="preserve" style="fill-rule:evenodd;clip-rule:evenodd;stroke-linejoin:round;stroke-miterlimit:1.41421;">
    <g transform="matrix(1,0,0,1,0.0001,-0.0004)">
        <path d="M17.236,2.554L13.851,13.535L10.448,2.554L8.682,2.554L5.298,13.535L1.896,2.554L0,2.554L4.342,15.43L6.162,15.43L9.546,4.798L12.876,15.43L14.716,15.43L19.075,2.554L17.236,2.554Z" style="fill:rgb(28,27,65);fill-rule:nonzero;"/>
    </g>
    <g transform="matrix(1,0,0,1,0.0001,-0.0004)">
        <path d="M30.111,2.554L30.111,8.293L22.754,8.293L22.754,2.554L20.988,2.554L20.988,15.43L22.754,15.43L22.754,9.894L30.111,9.894L30.111,15.43L31.896,15.43L31.896,2.554L30.111,2.554Z" style="fill:rgb(28,27,65);fill-rule:nonzero;"/>
    </g>
    <g transform="matrix(1,0,0,1,0.0001,-0.0004)">
        <path d="M39.512,2.554L33.791,15.43L35.648,15.43L36.991,12.304L43.778,12.304L45.14,15.43L47.052,15.43L41.351,2.554L39.512,2.554ZM40.376,4.449L43.099,10.704L37.69,10.704L40.376,4.449Z" style="fill:rgb(28,27,65);fill-rule:nonzero;"/>
    </g>
    <g transform="matrix(1,0,0,1,0.0001,-0.0004)">
        <path d="M46.041,2.554L46.041,4.173L50.18,4.173L50.18,15.43L51.946,15.43L51.946,4.173L56.103,4.173L56.103,2.554L46.041,2.554Z" style="fill:rgb(28,27,65);fill-rule:nonzero;"/>
    </g>
    <g transform="matrix(1,0,0,1,0.0001,-0.0004)">
        <path d="M61.29,2.554L61.29,4.173L65.428,4.173L65.428,15.43L67.194,15.43L67.194,4.173L71.351,4.173L71.351,2.554L61.29,2.554Z" style="fill:rgb(28,27,65);fill-rule:nonzero;"/>
    </g>
    <g transform="matrix(1,0,0,1,0.0001,-0.0004)">
        <path d="M82.499,2.554L82.499,8.293L75.141,8.293L75.141,2.554L73.375,2.554L73.375,15.43L75.141,15.43L75.141,9.894L82.499,9.894L82.499,15.43L84.284,15.43L84.284,2.554L82.499,2.554Z" style="fill:rgb(28,27,65);fill-rule:nonzero;"/>
    </g>
    <g transform="matrix(1,0,0,1,0.0001,-0.0004)">
        <path d="M87.962,2.554L87.962,15.43L97.122,15.43L97.122,13.831L89.728,13.831L89.728,9.728L96.148,9.728L96.148,8.128L89.728,8.128L89.728,4.154L96.903,4.154L96.903,2.554L87.962,2.554Z" style="fill:rgb(28,27,65);fill-rule:nonzero;"/>
    </g>
    <g transform="matrix(1,0,0,1,0.0001,-0.0004)">
        <path d="M111.635,4.11C110.967,3.748 110.307,3.568 109.654,3.568C108.902,3.568 108.216,3.755 107.599,4.132C106.981,4.508 106.494,5.026 106.14,5.687C105.784,6.346 105.607,7.081 105.607,7.891C105.607,8.7 105.784,9.435 106.14,10.095C106.494,10.756 106.981,11.275 107.599,11.651C108.216,12.027 108.902,12.215 109.654,12.215C110.264,12.215 110.904,12.06 111.571,11.745C112.238,11.433 112.834,11.008 113.36,10.468L115.639,12.918C114.829,13.769 113.867,14.447 112.753,14.952C111.638,15.455 110.533,15.708 109.441,15.708C107.964,15.708 106.629,15.367 105.437,14.685C104.244,14.004 103.307,13.073 102.625,11.895C101.944,10.716 101.603,9.397 101.603,7.933C101.603,6.485 101.95,5.179 102.647,4.015C103.342,2.851 104.297,1.934 105.511,1.267C106.725,0.599 108.084,0.266 109.59,0.266C110.698,0.266 111.791,0.496 112.87,0.958C113.948,1.42 114.864,2.048 115.617,2.843L113.36,5.569C112.877,4.959 112.302,4.473 111.635,4.11" style="fill:rgb(28,27,65);fill-rule:nonzero;"/>
    </g>
    <g transform="matrix(1,0,0,1,0.0001,-0.0004)">
        <path d="M125.043,3.845C124.141,3.546 123.385,3.398 122.774,3.398C122.291,3.398 121.912,3.486 121.635,3.663C121.357,3.841 121.22,4.1 121.22,4.441C121.22,4.767 121.34,5.041 121.581,5.261C121.822,5.482 122.121,5.658 122.477,5.794C122.831,5.929 123.356,6.102 124.052,6.315C125.088,6.613 125.944,6.911 126.618,7.21C127.293,7.508 127.872,7.966 128.355,8.584C128.837,9.202 129.079,10.007 129.079,11.001C129.079,11.994 128.815,12.844 128.291,13.546C127.765,14.249 127.045,14.778 126.129,15.133C125.213,15.487 124.193,15.665 123.072,15.665C121.837,15.665 120.606,15.449 119.377,15.016C118.148,14.583 117.087,13.99 116.192,13.237L117.705,10.192C118.457,10.859 119.349,11.405 120.378,11.832C121.407,12.257 122.319,12.47 123.115,12.47C123.697,12.47 124.155,12.364 124.488,12.151C124.822,11.939 124.989,11.626 124.989,11.214C124.989,10.873 124.865,10.59 124.616,10.362C124.368,10.135 124.056,9.953 123.68,9.818C123.303,9.684 122.774,9.524 122.093,9.34C121.07,9.056 120.226,8.769 119.558,8.477C118.891,8.186 118.319,7.746 117.844,7.157C117.367,6.568 117.13,5.783 117.13,4.803C117.13,3.88 117.375,3.071 117.865,2.375C118.355,1.679 119.05,1.143 119.952,0.766C120.854,0.39 121.9,0.203 123.094,0.203C124.173,0.203 125.237,0.355 126.289,0.661C127.339,0.965 128.262,1.374 129.058,1.885L127.588,4.995C126.792,4.526 125.944,4.143 125.043,3.845" style="fill:rgb(28,27,65);fill-rule:nonzero;"/>
    </g>
    <g transform="matrix(1,0,0,1,0.0001,-0.0004)">
        <path d="M138.801,3.845C137.899,3.546 137.143,3.398 136.532,3.398C136.049,3.398 135.67,3.486 135.393,3.663C135.115,3.841 134.978,4.1 134.978,4.441C134.978,4.767 135.098,5.041 135.339,5.261C135.58,5.482 135.879,5.658 136.235,5.794C136.589,5.929 137.114,6.102 137.81,6.315C138.846,6.613 139.702,6.911 140.376,7.21C141.051,7.508 141.63,7.966 142.113,8.584C142.595,9.202 142.837,10.007 142.837,11.001C142.837,11.994 142.573,12.844 142.049,13.546C141.523,14.249 140.803,14.778 139.887,15.133C138.971,15.487 137.952,15.665 136.83,15.665C135.595,15.665 134.364,15.449 133.135,15.016C131.906,14.583 130.845,13.99 129.95,13.237L131.463,10.192C132.215,10.859 133.107,11.405 134.136,11.832C135.165,12.257 136.077,12.47 136.873,12.47C137.455,12.47 137.913,12.364 138.246,12.151C138.58,11.939 138.747,11.626 138.747,11.214C138.747,10.873 138.623,10.59 138.374,10.362C138.126,10.135 137.814,9.953 137.438,9.818C137.061,9.684 136.532,9.524 135.851,9.34C134.828,9.056 133.984,8.769 133.316,8.477C132.649,8.186 132.077,7.746 131.602,7.157C131.125,6.568 130.888,5.783 130.888,4.803C130.888,3.88 131.133,3.071 131.623,2.375C132.113,1.679 132.808,1.143 133.71,0.766C134.612,0.39 135.658,0.203 136.852,0.203C137.931,0.203 138.995,0.355 140.047,0.661C141.097,0.965 142.02,1.374 142.816,1.885L141.346,4.995C140.55,4.526 139.702,4.143 138.801,3.845" style="fill:rgb(28,27,65);fill-rule:nonzero;"/>
    </g>
    <g transform="matrix(1,0,0,1,0.0001,-0.0004)">
        <path d="M149.704,12.34C150.055,12.691 150.23,13.144 150.23,13.699C150.23,14.255 150.055,14.711 149.704,15.069C149.353,15.426 148.9,15.606 148.345,15.606C147.805,15.606 147.359,15.426 147.008,15.069C146.657,14.711 146.482,14.255 146.482,13.699C146.482,13.144 146.653,12.691 146.997,12.34C147.34,11.989 147.79,11.815 148.345,11.815C148.9,11.815 149.353,11.989 149.704,12.34M145.211,1.337C146.101,0.446 147.329,0 148.893,0C150.369,0 151.53,0.337 152.378,1.007C153.225,1.68 153.649,2.623 153.649,3.836C153.649,4.611 153.474,5.254 153.123,5.764C152.772,6.276 152.261,6.823 151.589,7.409C151.005,7.934 150.573,8.391 150.296,8.778C150.018,9.166 149.879,9.629 149.879,10.17L146.964,10.17C146.964,9.586 147.048,9.074 147.217,8.635C147.385,8.197 147.589,7.836 147.83,7.55C148.071,7.266 148.382,6.941 148.762,6.575C149.185,6.181 149.499,5.834 149.704,5.534C149.908,5.235 150.011,4.88 150.011,4.472C150.011,3.581 149.514,3.134 148.52,3.134C147.425,3.134 146.869,3.785 146.855,5.084L143.851,5.064C143.866,3.47 144.319,2.228 145.211,1.337" style="fill:rgb(28,27,65);fill-rule:nonzero;"/>
    </g>
    <g transform="matrix(1,0,0,1,0.0001,-0.0004)">
        <path d="M154.844,0.585L158.445,0.585L158.445,4.398L157.783,10.254L155.504,10.254L154.844,4.398L154.844,0.585ZM157.89,12.427C158.231,12.768 158.402,13.209 158.402,13.747C158.402,14.287 158.231,14.731 157.89,15.079C157.549,15.426 157.109,15.601 156.57,15.601C156.044,15.601 155.611,15.426 155.27,15.079C154.93,14.731 154.759,14.287 154.759,13.747C154.759,13.209 154.926,12.768 155.26,12.427C155.593,12.086 156.03,11.916 156.57,11.916C157.109,11.916 157.549,12.086 157.89,12.427" style="fill:rgb(28,27,65);fill-rule:nonzero;"/>
    </g>
</svg>
