<svg xmlns="http://www.w3.org/2000/svg" viewBox="0 0 420 408.628">
  <defs>
    <style>
      .cls-1 {
        fill: #fff;
      }

      .cls-2 {
        fill: #7fd1e1;
      }

      .cls-3 {
        fill: #e4ecae;
      }

      .cls-11, .cls-12, .cls-3, .cls-4, .cls-5 {
        fill-rule: evenodd;
      }

      .cls-4, .cls-6, .cls-7, .cls-8 {
        fill: #da847f;
      }

      .cls-5 {
        fill: #36acbc;
      }

      .cls-6 {
        opacity: 0.75;
      }

      .cls-10, .cls-8 {
        opacity: 0.5;
      }

      .cls-9 {
        fill: #e7b4b1;
      }

      .cls-10 {
        fill: #382120;
      }

      .cls-11, .cls-14 {
        fill: #f7dea7;
      }

      .cls-12 {
        fill: #413c58;
      }

      .cls-13 {
        fill: #f4944d;
      }

      .cls-15 {
        fill: #443f5c;
      }

      .cls-16 {
        fill: #938bb7;
      }

      .cls-17 {
        fill: #5b547c;
      }

      .cls-18 {
        fill: #796fa7;
      }
    </style>
  </defs>
  <g id="Group_823" data-name="Group 823" transform="translate(-898 -6593.372)">
    <path id="Path_950" data-name="Path 950" class="cls-1" d="M193.5,0C300.367,0,387,86.633,387,193.5S300.367,387,193.5,387,0,300.367,0,193.5,86.633,0,193.5,0Z" transform="translate(931 6615)"/>
    <g id="music_flamingo" transform="translate(899.784 6593.372)">
      <g id="Layer_2" data-name="Layer 2" transform="translate(-1.784 0)">
        <g id="Layer_1" data-name="Layer 1" transform="translate(0)">
          <path id="Path_490" data-name="Path 490" class="cls-2" d="M77.547,361.75h74.607a50.522,50.522,0,0,1,50.522,50.555v59.148H27V412.305A50.522,50.522,0,0,1,77.547,361.75Z" transform="translate(-3.242 -63.165)"/>
          <path id="Path_491" data-name="Path 491" class="cls-3" d="M94.232,61.019a95.143,95.143,0,0,1,49.623,3.533A35.451,35.451,0,0,0,126.266,12.94a35.368,35.368,0,0,1,1.7,38.67A35.55,35.55,0,0,0,105.194,19.1a35.492,35.492,0,0,1,3.822,34.559A35.673,35.673,0,0,0,88.43,32.8a35.186,35.186,0,0,1,5.778,28.228Z" transform="translate(-13.968 -2.259)"/>
          <path id="Path_492" data-name="Path 492" class="cls-4" d="M95.58,344.193l17.1-82.993H137.3l20.783,82.993c-1.766,19.809-18.984,32.3-30.952,32.19S96.537,362.88,95.58,344.193Z" transform="translate(-15.217 -45.608)"/>
          <path id="Path_493" data-name="Path 493" class="cls-5" d="M104.964,63.427A94.92,94.92,0,0,1,154.6,66.96,35.492,35.492,0,0,0,137,15.34a35.384,35.384,0,0,1,1.709,38.67,35.492,35.492,0,0,0-22.781-32.5,35.442,35.442,0,0,1,3.822,34.551A35.706,35.706,0,0,0,99.17,35.191a35.418,35.418,0,0,1,6.6,20.635,34.8,34.8,0,0,1-.809,7.6Z" transform="translate(-15.843 -2.678)"/>
          <path id="Path_494" data-name="Path 494" class="cls-6" d="M188.924,141.273c0,31.365-48.153,143.7-70.373,143.7-21.122,0-70.381-121.753-70.381-155.083,0-58.157,13.619-56,70.381-56S188.924,83.107,188.924,141.273Z" transform="translate(-6.938 -12.9)"/>
          <path id="Path_495" data-name="Path 495" class="cls-7" d="M210.222,155.89c0,55.12-77.248,115.027-97.4,115.027-18.6,0-97.4-59.907-97.4-115.027s43.614-99.79,97.4-99.79S210.222,100.778,210.222,155.89Z" transform="translate(-1.222 -9.796)"/>
          <path id="Path_496" data-name="Path 496" class="cls-8" d="M113.276,271.3c-18.6,0-97.4-59.907-97.4-115.027,0-34.312,17.234-64.108,42.631-82.539C71.289,64.457,94.994,58.25,94.994,58.25s-9.261,4.424-19.669,10.73C52.651,82.665,31.5,108.1,31.5,146.08c0,38.9,24.762,67.864,43.969,88.086,21.27,22.368,27.238,35.162,35.541,36.606l3.227.5S113.623,271.3,113.276,271.3Z" transform="translate(-1.3 -10.171)"/>
          <path id="Path_497" data-name="Path 497" class="cls-4" d="M110.5,48.079a95.143,95.143,0,0,1,49.623,3.533A35.451,35.451,0,0,0,142.536,0a35.368,35.368,0,0,1,1.7,38.67A35.55,35.55,0,0,0,121.455,6.157a35.492,35.492,0,0,1,3.822,34.559A35.673,35.673,0,0,0,104.7,19.851a35.186,35.186,0,0,1,5.778,28.228Z" transform="translate(-16.809 0)"/>
          <path id="Path_498" data-name="Path 498" class="cls-9" d="M228.066,178.381c-2.905-2.988-1.907-7.429,2.022-9.525a10.869,10.869,0,0,1,.99-.47,18.728,18.728,0,0,1,8.7-1.205,9.451,9.451,0,0,1,4.309,1.222,4.482,4.482,0,0,1,1.849,5.109,7.948,7.948,0,0,1-4.127,4.325,21.361,21.361,0,0,1-6.471,1.841,12.975,12.975,0,0,1-5.291-.041A4.424,4.424,0,0,1,228.066,178.381Z" transform="translate(-38.057 -29.175)"/>
          <path id="Path_499" data-name="Path 499" class="cls-9" d="M73.192,209.753a10.73,10.73,0,0,1,2.7-15.542,14.213,14.213,0,0,1,1.329-.768,20.849,20.849,0,0,1,11.621-1.964,10.961,10.961,0,0,1,5.778,1.989,8.188,8.188,0,0,1,2.476,8.345,12.183,12.183,0,0,1-5.563,7.041,24.7,24.7,0,0,1-8.634,3.013,14.441,14.441,0,0,1-7.074-.074,6.025,6.025,0,0,1-2.633-2.039Z" transform="translate(-10.921 -33.408)"/>
          <path id="Path_500" data-name="Path 500" class="cls-10" d="M141.179,218.549a21.46,21.46,0,0,1,2.476-10.524c.99-1.816,2.394-3.533,4.5-3.912s4.523.66,6.6,1.956A30.944,30.944,0,0,1,165.9,218.26c.784,1.568,1.428,3.4.825,4.779s-2.121,1.75-3.566,1.973c-7.057,1.106-15.237-1.411-21.534-6.6" transform="translate(-23.177 -35.626)"/>
          <path id="Path_501" data-name="Path 501" class="cls-11" d="M187.749,188.205c4.474-4.738,9.079-9.327,13.743-13.71-.3-.248-.586-.5-.883-.726-6.867-5.4-15.138-8.015-23.54-9.079a69.184,69.184,0,0,0-52.875,15.988c-2.889,2.418-5.778,5.233-7.354,9.005,7.949,5.613,15.072,28.278,15.922,27.708a159.587,159.587,0,0,1,25.983-14.106c6.463-2.749,13.115-5.018,19.76-5.266h.883c.759-1.007,1.469-1.874,1.874-2.4a93.748,93.748,0,0,1,6.488-7.412Z" transform="translate(-18.929 -28.674)"/>
          <path id="Path_502" data-name="Path 502" class="cls-12" d="M221.671,227.08a2.336,2.336,0,0,0,4.218.5,39.445,39.445,0,0,0,4.639-25.356,37.572,37.572,0,0,0-2.286-7.858,212.187,212.187,0,0,1-12.851,18.621A52.847,52.847,0,0,1,221.671,227.08Z" transform="translate(-36.136 -33.939)"/>
          <path id="Path_503" data-name="Path 503" class="cls-13" d="M222.842,188.6c-2.385-5.06-6.5-11.869-11.605-14.7A116.173,116.173,0,0,0,199.9,185.389a104.079,104.079,0,0,0-9.946,14.42c6.347,0,13.677,1.568,18.3,6.306l.594.652a25.73,25.73,0,0,1,2.055,2.625,209.757,209.757,0,0,0,12.983-18.3A26.432,26.432,0,0,0,222.842,188.6Z" transform="translate(-31.694 -30.364)"/>
          <path id="Path_504" data-name="Path 504" class="cls-11" d="M170.949,228.808q2.7,2.394,5.621,4.63c-.173.066-.338.132-.52.19a39.742,39.742,0,0,1-12.8,1.964c-9.261.066-18.555-2.1-25.232-6.6A7.148,7.148,0,0,1,135.16,226c4.581-1.436,10.4-8.089,10.78-7.883a83.367,83.367,0,0,0,11.787,5.159,39.527,39.527,0,0,0,9.492,2.237h.446c.289.33.561.619.718.825A26.966,26.966,0,0,0,170.949,228.808Z" transform="translate(-22.128 -38.085)"/>
          <path id="Path_505" data-name="Path 505" class="cls-12" d="M191.776,219.3a1.62,1.62,0,0,1,2.187,0,7.486,7.486,0,0,1-.124,7.858,12.273,12.273,0,0,1-1.931,2.311,52.744,52.744,0,0,0-4.688-6.091,20.635,20.635,0,0,0,4.556-4.077Z" transform="translate(-31.218 -38.218)"/>
          <path id="Path_506" data-name="Path 506" class="cls-14" d="M188.779,231.039a19.165,19.165,0,0,1-7.313,4.077,38.7,38.7,0,0,1-4.614-3.871,25.661,25.661,0,0,1-3.632-4.713c3.211.223,7.082,0,9.9-1.3.124-.058.248-.116.363-.182a13.212,13.212,0,0,0,1.3-.726,53.652,53.652,0,0,1,4.787,5.992C189.315,230.56,189.051,230.808,188.779,231.039Z" transform="translate(-28.773 -39.168)"/>
          <path id="Path_507" data-name="Path 507" class="cls-15" d="M31.938,131.717,17.23,132.774c2.674-.182,5.34,1.849,7.775,5.53h0a36.1,36.1,0,0,1,2.65,4.886h0c.561,1.23,1.106,2.559,1.651,3.962h0c.248.669.487,1.362.718,2.072a1.723,1.723,0,0,1,.066.19c.479,1.444.924,2.963,1.354,4.556l.074.289c.173.677.355,1.37.52,2.08a2.251,2.251,0,0,0,.107.437q.57,2.4,1.048,4.952l.1.57c.124.669.239,1.345.355,2.03a4.806,4.806,0,0,0,.107.677c.14.825.272,1.717.388,2.592h0c.124.891.231,1.783.338,2.691,0,.256.058.5.083.759.074.685.149,1.37.215,2.055l.074.825c.083.916.165,1.849.231,2.79s.116,1.865.165,2.79v.825c0,.693.058,1.378.074,2.063v3.475h0v3.31c0,.693,0,1.378-.066,2.063v.578q-.124,2.616-.347,5.068l-.05.454c-.066.718-.14,1.436-.223,2.13v.3q-.3,2.476-.7,4.7v.2c-.14.735-.281,1.453-.429,2.154h0c-.322,1.461-.669,2.848-1.056,4.127h0a36.549,36.549,0,0,1-1.948,5.208h0c-1.9,3.987-4.259,6.364-6.933,6.554l14.708-1.023c8.122-.57,13.3-21.2,11.555-46.09S40.06,131.123,31.938,131.717Z" transform="translate(-1.536 -22.997)"/>
          <ellipse id="Ellipse_201" data-name="Ellipse 201" class="cls-16" cx="14.741" cy="45.165" rx="14.741" ry="45.165" transform="translate(0.981 110.774) rotate(-3.99)"/>
          <path id="Path_508" data-name="Path 508" class="cls-17" d="M14.453,159.069l-7.313.512c1.329-.091,2.658.982,3.879,2.922h0a19.09,19.09,0,0,1,1.329,2.575h0c.281.644.553,1.345.825,2.088h0c.124.355.239.718.363,1.09v.107c.231.759.462,1.56.677,2.394a1,1,0,0,0,.041.149c.091.363.173.726.264,1.1l.05.231c.19.825.371,1.717.528,2.616a1.888,1.888,0,0,0,.058.3c.058.355.124.71.182,1.073l.05.355q.116.669.2,1.362h0c.058.462.116.941.173,1.411a1.349,1.349,0,0,0,.041.4c.041.355.074.718.107,1.081v.421c.041.487.083.974.116,1.469s.066.982.091,1.469v.421a9.4,9.4,0,0,0,.041,1.081v1.832h0v3.12c0,.916-.091,1.808-.157,2.666v.239a10.131,10.131,0,0,1-.107,1.123.917.917,0,0,0,0,.157q-.149,1.238-.347,2.476v.107c-.066.388-.132.759-.206,1.131h0c-.157.768-.33,1.494-.512,2.179h0a20.107,20.107,0,0,1-.957,2.732h0c-.941,2.088-2.1,3.3-3.442,3.434l7.321-.512c4.036-.281,6.6-11.118,5.662-24.192S18.456,158.788,14.453,159.069Z" transform="translate(0.226 -27.774)"/>
          <ellipse id="Ellipse_202" data-name="Ellipse 202" class="cls-18" cx="7.338" cy="23.738" rx="7.338" ry="23.738" transform="translate(0 132.318) rotate(-3.99)"/>
          <path id="Path_509" data-name="Path 509" class="cls-15" d="M35.41,119.946C46.437,90.959,69.862,73.221,95.276,58.24c-34.13,5.7-64.62,29.788-78.066,61.706" transform="translate(-1.532 -10.169)"/>
          <path id="Path_510" data-name="Path 510" class="cls-15" d="M294.733,270.782a4.754,4.754,0,0,0-.47-1.519l-11.308-36.078,1.114.652c6.05,3.582,9.211,5.283,10.73,5.283h0v-2.476c-1.189,0-6.793-3.343-9.492-4.952-1.832-1.081-3.3-1.94-3.978-2.245l-2.476-1.106,12.191,38.892c-1.956-.149-3.962.825-5.778,1.56a35.333,35.333,0,0,0-7.759,4c-1.593,1.139-3.929,2.641-5.117,5.051a7.329,7.329,0,0,0-.726,2.6c-.66,7.726,10.045,3.153,11.778,2.427a26.412,26.412,0,0,0,6.933-3.789c1.651-1.362,4.482-4.226,4.4-7.569l.157-.05Z" transform="translate(-45.957 -39.87)"/>
          <path id="Path_511" data-name="Path 511" class="cls-15" d="M317.578,72.925l.883-2.311c-1.75-.669-9.418-6.727-10.928-8.254l-1.923-1.94-2.864,40.651c-1.766-.825-4-.652-5.918-.644a35.261,35.261,0,0,0-8.708.916c-1.9.47-4.622,1.015-6.6,2.823a7.1,7.1,0,0,0-1.651,2.154c-3.442,6.95,8.2,6.6,10.07,6.6a26.3,26.3,0,0,0,7.833-.99c2.039-.66,5.72-2.3,6.867-5.439h.157l.058-.726a5.11,5.11,0,0,0,.107-1.593l2.757-38.323C310.662,68.269,315.812,72.248,317.578,72.925Z" transform="translate(-47.284 -10.55)"/>
          <path id="Path_512" data-name="Path 512" class="cls-15" d="M348.907,156.269a26.345,26.345,0,0,0,7.173-3.3c1.75-1.246,4.762-3.912,4.952-7.255h.157l-.173-.71a4.812,4.812,0,0,0-.371-1.552L351.7,105.961a68.393,68.393,0,0,0,10.994,2.8l.157-2.476a66.457,66.457,0,0,1-12.331-3.442L348.1,101.57l9.467,39.619c-1.94-.281-4,.578-5.836,1.164a35.492,35.492,0,0,0-8.015,3.458c-1.651,1.023-4.127,2.361-5.456,4.68a7.273,7.273,0,0,0-.9,2.542C336.13,160.693,347.132,156.879,348.907,156.269Z" transform="translate(-57.417 -17.735)"/>
          <path id="Path_513" data-name="Path 513" class="cls-15" d="M332.617,295.49l9.467,39.619c-1.94-.281-4.011.578-5.844,1.164a35.66,35.66,0,0,0-8.015,3.458c-1.651,1.023-4.127,2.361-5.456,4.68a7.272,7.272,0,0,0-.9,2.542c-1.2,7.66,9.806,3.846,11.555,3.236a26.5,26.5,0,0,0,7.181-3.3c1.742-1.246,4.762-3.912,4.911-7.255h.157l-.173-.718a4.813,4.813,0,0,0-.363-1.543l-8.931-37.5a68.4,68.4,0,0,0,10.994,2.8l.157-2.476a66.633,66.633,0,0,1-12.331-3.442Z" transform="translate(-54.713 -51.595)"/>
          <path id="Path_514" data-name="Path 514" class="cls-15" d="M364.4,189.806c-.784-1.552-1.4-2.765-1.733-3.3l-1.4-2.344-12.455,38.793c-1.51-1.255-3.714-1.6-5.588-2.055a35.74,35.74,0,0,0-8.65-1.189c-1.948,0-4.73-.107-7.09,1.18a7.015,7.015,0,0,0-2.08,1.7c-5,5.935,6.388,8.369,8.254,8.774a26.661,26.661,0,0,0,7.85.9c2.138-.165,6.1-.883,7.957-3.656l.157.05.223-.7a4.8,4.8,0,0,0,.487-1.51l11.555-36.152.305.611c3.384,6.661,5.332,10.21,6.6,11.11l1.411-2.039C369.191,199.256,365.84,192.637,364.4,189.806Z" transform="translate(-55.126 -32.156)"/>
          <path id="Path_515" data-name="Path 515" class="cls-15" d="M173.42,131.616a9,9,0,0,1,2.047-4.036,17.8,17.8,0,0,1,3.376-3.079,28.063,28.063,0,0,1,8.122-3.912,19.553,19.553,0,0,1,4.581-.825,18.852,18.852,0,0,1,4.63.3,17.259,17.259,0,0,1,8.138,3.805,73.656,73.656,0,0,0-8.436-.429,36.316,36.316,0,0,0-3.945.314,32.808,32.808,0,0,0-3.838.825,63.116,63.116,0,0,0-7.717,2.658,32.113,32.113,0,0,0-3.656,1.824A13.8,13.8,0,0,0,173.42,131.616Z" transform="translate(-28.808 -20.906)"/>
          <path id="Path_516" data-name="Path 516" class="cls-15" d="M81.34,151.771a12.851,12.851,0,0,1,4.515-7.759,17.094,17.094,0,0,1,8.411-3.912,27.5,27.5,0,0,1,8.931-.116,17.548,17.548,0,0,1,8.254,3.169,45.984,45.984,0,0,0-8.386-.05,61.626,61.626,0,0,0-8.015,1.024,24.861,24.861,0,0,0-7.206,2.625A26.314,26.314,0,0,0,81.34,151.771Z" transform="translate(-12.73 -24.388)"/>
        </g>
      </g>
    </g>
  </g>
</svg>
