<svg width="100%" height="100%" viewBox="0 0 500 210" version="1.1" xmlns="http://www.w3.org/2000/svg" xmlns:xlink="http://www.w3.org/1999/xlink" xml:space="preserve" style="fill-rule:evenodd;clip-rule:evenodd;stroke-linejoin:round;stroke-miterlimit:1.41421;">
    <g transform="matrix(2.48178,0,0,2.49089,-0.00029781,0.859173)">
        <g id="Layer-1">
            <g>
                <clipPath id="_clip1">
                    <rect x="0" y="0" width="201.468" height="83.618"/>
                </clipPath>
                <g clip-path="url(#_clip1)">
                    <path d="M47.99,0L42.567,17.593L37.116,0L34.287,0L28.864,17.593L23.413,0L20.377,0L27.332,20.629L30.249,20.629L35.672,3.595L41.006,20.629L43.953,20.629L50.937,0L47.99,0Z" style="fill:rgb(28,27,65);fill-rule:nonzero;"/>
                    <path d="M68.619,0L68.619,9.194L56.831,9.194L56.831,0L54.001,0L54.001,20.629L56.831,20.629L56.831,11.758L68.619,11.758L68.619,20.629L71.477,20.629L71.477,0L68.619,0Z" style="fill:rgb(28,27,65);fill-rule:nonzero;"/>
                    <path d="M83.678,0L74.512,20.629L77.488,20.629L79.64,15.619L90.515,15.619L92.694,20.629L95.76,20.629L86.625,0L83.678,0ZM85.063,3.035L89.425,13.055L80.759,13.055L85.063,3.035Z" style="fill:rgb(28,27,65);fill-rule:nonzero;"/>
                    <path d="M94.139,0L94.139,2.593L100.77,2.593L100.77,20.629L103.599,20.629L103.599,2.593L110.26,2.593L110.26,0L94.139,0Z" style="fill:rgb(28,27,65);fill-rule:nonzero;"/>
                    <path d="M118.57,0L118.57,2.593L125.2,2.593L125.2,20.629L128.029,20.629L128.029,2.593L134.691,2.593L134.691,0L118.57,0Z" style="fill:rgb(28,27,65);fill-rule:nonzero;"/>
                    <path d="M152.548,0L152.548,9.194L140.76,9.194L140.76,0L137.93,0L137.93,20.629L140.76,20.629L140.76,11.758L152.548,11.758L152.548,20.629L155.406,20.629L155.406,0L152.548,0Z" style="fill:rgb(28,27,65);fill-rule:nonzero;"/>
                    <path d="M161.301,0L161.301,20.629L175.976,20.629L175.976,18.065L164.13,18.065L164.13,11.492L174.415,11.492L174.415,8.929L164.13,8.929L164.13,2.564L175.623,2.564L175.623,0L161.301,0Z" style="fill:rgb(28,27,65);fill-rule:nonzero;"/>
                    <path d="M35.556,42.513C33.189,41.23 30.849,40.588 28.535,40.588C25.867,40.588 23.44,41.255 21.25,42.589C19.061,43.923 17.336,45.759 16.079,48.099C14.821,50.439 14.192,53.044 14.192,55.913C14.192,58.781 14.821,61.386 16.079,63.726C17.336,66.066 19.061,67.904 21.25,69.237C23.44,70.571 25.867,71.238 28.535,71.238C30.699,71.238 32.963,70.684 35.329,69.577C37.695,68.47 39.808,66.96 41.67,65.047L49.748,73.729C46.879,76.748 43.469,79.152 39.519,80.938C35.568,82.723 31.655,83.617 27.78,83.617C22.545,83.617 17.816,82.41 13.588,79.994C9.361,77.579 6.038,74.283 3.623,70.105C1.207,65.928 -0.001,61.248 -0.001,56.064C-0.001,50.93 1.232,46.301 3.699,42.173C6.164,38.047 9.549,34.801 13.852,32.435C18.155,30.07 22.974,28.887 28.309,28.887C32.234,28.887 36.109,29.705 39.934,31.34C43.758,32.977 47.004,35.203 49.672,38.021L41.67,47.684C39.959,45.521 37.921,43.796 35.556,42.513" style="fill:rgb(28,27,65);fill-rule:nonzero;"/>
                    <path d="M83.077,41.57C79.88,40.513 77.2,39.984 75.037,39.984C73.325,39.984 71.979,40.299 70.998,40.928C70.016,41.558 69.526,42.476 69.526,43.684C69.526,44.842 69.953,45.81 70.809,46.59C71.664,47.371 72.722,48 73.979,48.477C75.237,48.956 77.099,49.571 79.566,50.327C83.239,51.383 86.272,52.44 88.663,53.497C91.053,54.554 93.104,56.177 94.815,58.366C96.526,60.556 97.383,63.413 97.383,66.934C97.383,70.458 96.45,73.465 94.589,75.956C92.726,78.447 90.173,80.323 86.927,81.579C83.681,82.837 80.068,83.467 76.094,83.467C71.715,83.467 67.348,82.699 62.996,81.164C58.642,79.631 54.881,77.53 51.71,74.861L57.07,64.066C59.737,66.432 62.894,68.369 66.544,69.879C70.192,71.389 73.426,72.144 76.245,72.144C78.307,72.144 79.931,71.766 81.114,71.01C82.296,70.256 82.888,69.151 82.888,67.69C82.888,66.482 82.447,65.476 81.567,64.67C80.685,63.865 79.578,63.224 78.245,62.745C76.911,62.268 75.037,61.701 72.621,61.046C68.998,60.04 66.003,59.021 63.638,57.989C61.271,56.958 59.246,55.398 57.56,53.309C55.874,51.221 55.031,48.439 55.031,44.967C55.031,41.696 55.899,38.827 57.637,36.361C59.372,33.895 61.838,31.996 65.034,30.661C68.229,29.328 71.941,28.661 76.169,28.661C79.993,28.661 83.767,29.202 87.493,30.284C91.217,31.367 94.487,32.813 97.306,34.625L92.098,45.647C89.278,43.986 86.272,42.627 83.077,41.57" style="fill:rgb(28,27,65);fill-rule:nonzero;"/>
                    <path d="M131.843,41.57C128.646,40.513 125.967,39.984 123.803,39.984C122.092,39.984 120.745,40.299 119.765,40.928C118.783,41.558 118.292,42.476 118.292,43.684C118.292,44.842 118.719,45.81 119.575,46.59C120.431,47.371 121.488,48 122.746,48.477C124.004,48.956 125.865,49.571 128.332,50.327C132.005,51.383 135.038,52.44 137.43,53.497C139.819,54.554 141.87,56.177 143.581,58.366C145.293,60.556 146.15,63.413 146.15,66.934C146.15,70.458 145.217,73.465 143.355,75.956C141.492,78.447 138.939,80.323 135.693,81.579C132.448,82.837 128.835,83.467 124.86,83.467C120.482,83.467 116.114,82.699 111.762,81.164C107.408,79.631 103.647,77.53 100.476,74.861L105.836,64.066C108.503,66.432 111.66,68.369 115.31,69.879C118.959,71.389 122.192,72.144 125.011,72.144C127.074,72.144 128.697,71.766 129.88,71.01C131.062,70.256 131.656,69.151 131.656,67.69C131.656,66.482 131.213,65.476 130.333,64.67C129.452,63.865 128.344,63.224 127.011,62.745C125.677,62.268 123.803,61.701 121.387,61.046C117.764,60.04 114.769,59.021 112.405,57.989C110.037,56.958 108.012,55.398 106.327,53.309C104.64,51.221 103.798,48.439 103.798,44.967C103.798,41.696 104.666,38.827 106.403,36.361C108.138,33.895 110.604,31.996 113.801,30.661C116.996,29.328 120.707,28.661 124.935,28.661C128.759,28.661 132.534,29.202 136.259,30.284C139.983,31.367 143.254,32.813 146.073,34.625L140.864,45.647C138.045,43.986 135.038,42.627 131.843,41.57" style="fill:rgb(28,27,65);fill-rule:nonzero;"/>
                    <path d="M170.488,71.683C171.73,72.925 172.352,74.532 172.352,76.499C172.352,78.468 171.73,80.086 170.488,81.355C169.245,82.625 167.639,83.258 165.671,83.258C163.755,83.258 162.175,82.625 160.932,81.355C159.689,80.086 159.067,78.468 159.067,76.499C159.067,74.532 159.675,72.925 160.893,71.683C162.109,70.439 163.702,69.818 165.671,69.818C167.639,69.818 169.245,70.439 170.488,71.683M154.561,32.683C157.72,29.524 162.07,27.944 167.614,27.944C172.843,27.944 176.962,29.136 179.966,31.518C182.969,33.9 184.471,37.241 184.471,41.539C184.471,44.285 183.85,46.564 182.607,48.376C181.364,50.19 179.551,52.132 177.169,54.203C175.096,56.067 173.568,57.687 172.585,59.058C171.601,60.431 171.109,62.076 171.109,63.992L160.777,63.992C160.777,61.921 161.074,60.107 161.671,58.553C162.264,56.999 162.991,55.717 163.845,54.708C164.7,53.698 165.8,52.545 167.147,51.25C168.649,49.852 169.761,48.622 170.488,47.56C171.212,46.499 171.576,45.243 171.576,43.792C171.576,40.634 169.814,39.053 166.293,39.053C162.408,39.053 160.439,41.359 160.388,45.968L149.745,45.89C149.796,40.246 151.402,35.843 154.561,32.683" style="fill:rgb(28,27,65);fill-rule:nonzero;"/>
                    <path d="M188.711,30.02L201.469,30.02L201.469,43.533L199.129,64.293L191.051,64.293L188.711,43.533L188.711,30.02ZM199.506,71.993C200.714,73.202 201.318,74.761 201.318,76.673C201.318,78.586 200.714,80.159 199.506,81.391C198.298,82.625 196.737,83.241 194.826,83.241C192.963,83.241 191.428,82.625 190.221,81.391C189.013,80.159 188.408,78.586 188.408,76.673C188.408,74.761 189,73.202 190.183,71.993C191.364,70.785 192.912,70.181 194.826,70.181C196.737,70.181 198.298,70.785 199.506,71.993" style="fill:rgb(28,27,65);fill-rule:nonzero;"/>
                </g>
            </g>
        </g>
    </g>
</svg>
