<svg xmlns="http://www.w3.org/2000/svg" xmlns:xlink="http://www.w3.org/1999/xlink" viewBox="0 0 486 405">
  <defs>
    <style>
      .cls-1 {
        fill: #ed583f;
      }

      .cls-2, .cls-39 {
        fill: #f0efef;
      }

      .cls-14, .cls-3 {
        fill: #435969;
      }

      .cls-18, .cls-21, .cls-22, .cls-4 {
        fill: #da847e;
      }

      .cls-34, .cls-41, .cls-5 {
        fill: #f47f20;
      }

      .cls-13, .cls-6 {
        fill: #f3cd75;
      }

      .cls-7 {
        fill: #cbc530;
      }

      .cls-15, .cls-8 {
        fill: #36adbd;
      }

      .cls-23, .cls-26, .cls-9 {
        fill: #fff;
      }

      .cls-9 {
        stroke: #253642;
        stroke-width: 1.182px;
      }

      .cls-40, .cls-42, .cls-44, .cls-9 {
        stroke-miterlimit: 10;
      }

      .cls-10 {
        fill: #e5efed;
      }

      .cls-11, .cls-32 {
        fill: #253642;
      }

      .cls-12 {
        clip-path: url(#clip-path);
      }

      .cls-13, .cls-14, .cls-15, .cls-16, .cls-17, .cls-18, .cls-20, .cls-27, .cls-29, .cls-30, .cls-31, .cls-32, .cls-33, .cls-34, .cls-37, .cls-41 {
        fill-rule: evenodd;
      }

      .cls-16 {
        fill: #309caa;
      }

      .cls-17 {
        fill: #e5ecad;
      }

      .cls-19 {
        clip-path: url(#clip-path-2);
      }

      .cls-20 {
        fill: #ffca06;
      }

      .cls-21 {
        opacity: 0.75;
      }

      .cls-22, .cls-26 {
        opacity: 0.5;
      }

      .cls-24, .cls-37 {
        fill: #333;
      }

      .cls-25 {
        clip-path: url(#clip-path-3);
      }

      .cls-27 {
        fill: #f8dfa8;
      }

      .cls-28 {
        clip-path: url(#clip-path-5);
      }

      .cls-29 {
        fill: #f69548;
      }

      .cls-30 {
        fill: #3f3a58;
      }

      .cls-31 {
        fill: #d9721c;
      }

      .cls-33 {
        fill: #1e2e39;
      }

      .cls-35 {
        clip-path: url(#clip-path-6);
      }

      .cls-36 {
        clip-path: url(#clip-path-7);
      }

      .cls-38 {
        clip-path: url(#clip-path-8);
      }

      .cls-39 {
        opacity: 0.4;
      }

      .cls-40, .cls-42, .cls-44 {
        fill: none;
      }

      .cls-40 {
        stroke: #f3cd75;
        stroke-width: 1.649px;
      }

      .cls-41 {
        opacity: 0.6;
      }

      .cls-42 {
        stroke: #f0efef;
        stroke-width: 0.964px;
      }

      .cls-43 {
        fill: #eb583d;
      }

      .cls-44 {
        stroke: #36adbd;
        stroke-linecap: round;
        stroke-linejoin: round;
        stroke-width: 1.087px;
      }
    </style>
    <clipPath id="clip-path">
      <rect id="Rectangle_32" data-name="Rectangle 32" width="78.546" height="115.874" transform="translate(9.066) rotate(4.488)"/>
    </clipPath>
    <clipPath id="clip-path-2">
      <ellipse id="Ellipse_30" data-name="Ellipse 30" cx="19.183" cy="19.701" rx="19.183" ry="19.701" transform="translate(0 38.354) rotate(-88.713)"/>
    </clipPath>
    <clipPath id="clip-path-3">
      <circle id="Ellipse_35" data-name="Ellipse 35" cx="2.722" cy="2.722" r="2.722" transform="translate(0 0)"/>
    </clipPath>
    <clipPath id="clip-path-5">
      <path id="Path_149" data-name="Path 149" d="M36.37,51.047c-.13,4.148-5.444,13.221-5.444,13.221S25.871,54.936,26,50.788,28.982,43.4,31.315,43.4C33.777,43.4,36.5,46.9,36.37,51.047Z" transform="translate(-25.998 -43.4)"/>
    </clipPath>
    <clipPath id="clip-path-6">
      <path id="Path_167" data-name="Path 167" d="M64.4,88.038c7.129.13,7.906-15.035,18.924-14.776A21.593,21.593,0,0,1,94.859,77.15c.13-4.018-2.2-9.462-4.666-14.128a21.731,21.731,0,0,1-2.074-15.035,39.319,39.319,0,0,0,.13-12.961A1.71,1.71,0,0,0,86.434,33.6c-7.129.907-13.091,11.276-14.646,10.628" transform="translate(-64.4 -33.6)"/>
    </clipPath>
    <clipPath id="clip-path-7">
      <circle id="Ellipse_42" data-name="Ellipse 42" cx="2.592" cy="2.592" r="2.592" transform="translate(0 0)"/>
    </clipPath>
    <clipPath id="clip-path-8">
      <path id="Path_171" data-name="Path 171" d="M65.967,44.281c-1.555.648-7-10.11-14.128-11.276a1.522,1.522,0,0,0-1.815,1.3,36.6,36.6,0,0,0-.389,12.961,22.17,22.17,0,0,1-2.722,14.906c-2.592,4.407-5.185,9.851-5.314,13.869a20.564,20.564,0,0,1,11.665-3.37C64.153,72.8,64.153,88.09,71.281,88.22" transform="translate(-41.6 -32.985)"/>
    </clipPath>
  </defs>
  <g id="Group_897" data-name="Group 897" transform="translate(-163 -2336)">
    <circle id="Ellipse_289" data-name="Ellipse 289" class="cls-1" cx="202.5" cy="202.5" r="202.5" transform="translate(204 2336)"/>
    <g id="WTCSS_bulletinboard_colors" transform="translate(163 2455.16)">
      <rect id="Rectangle_9" data-name="Rectangle 9" class="cls-2" width="170.327" height="267.54"/>
      <g id="Group_7" data-name="Group 7" transform="translate(15.559 206.709)">
        <g id="Group_6" data-name="Group 6">
          <path id="Path_20" data-name="Path 20" class="cls-3" d="M29.093,182.849a6.265,6.265,0,0,0-3.042-.819,5.883,5.883,0,0,0-3.159.936,6.756,6.756,0,0,0-2.34,2.457,6.923,6.923,0,0,0-.819,3.393,6.626,6.626,0,0,0,.819,3.393,6.712,6.712,0,0,0,2.34,2.457,6.2,6.2,0,0,0,3.159.936,7.619,7.619,0,0,0,3.042-.7A9.438,9.438,0,0,0,31.9,192.91l3.509,3.86a15.882,15.882,0,0,1-4.562,3.159A12.146,12.146,0,0,1,25.7,201.1a12.7,12.7,0,0,1-6.317-1.638,13.114,13.114,0,0,1-4.445-4.328,12.259,12.259,0,0,1-1.638-6.2,11.83,11.83,0,0,1,1.638-6.083,11.3,11.3,0,0,1,4.445-4.328A12.77,12.77,0,0,1,25.817,177a13.5,13.5,0,0,1,5.147,1.053,14.118,14.118,0,0,1,4.328,2.925l-3.509,4.211A8.651,8.651,0,0,0,29.093,182.849Z" transform="translate(-13.3 -176.649)"/>
          <path id="Path_21" data-name="Path 21" class="cls-3" d="M51.868,178.421a12.44,12.44,0,0,1,4.562,4.328,12.333,12.333,0,0,1,0,12.283,10.877,10.877,0,0,1-4.562,4.328,13.457,13.457,0,0,1-12.868,0,12.44,12.44,0,0,1-4.562-4.328,12.583,12.583,0,0,1-1.638-6.2,11.83,11.83,0,0,1,1.638-6.083A10.877,10.877,0,0,1,39,178.421a13.073,13.073,0,0,1,6.434-1.521A14.878,14.878,0,0,1,51.868,178.421Zm-9.593,4.562a6.756,6.756,0,0,0-2.34,2.457,7.065,7.065,0,0,0-.819,3.509,7.146,7.146,0,0,0,.936,3.509,6.756,6.756,0,0,0,2.34,2.457,5.8,5.8,0,0,0,6.317,0,6.756,6.756,0,0,0,2.34-2.457,7.93,7.93,0,0,0,0-7.019,5.923,5.923,0,0,0-2.34-2.457,6.2,6.2,0,0,0-3.159-.936A6.289,6.289,0,0,0,42.276,182.983Z" transform="translate(-9.988 -176.666)"/>
          <path id="Path_22" data-name="Path 22" class="cls-3" d="M56.9,177.2h6.083v18.132h9.944v5.147H56.9Z" transform="translate(-5.895 -176.615)"/>
          <path id="Path_23" data-name="Path 23" class="cls-3" d="M90.768,178.421a12.44,12.44,0,0,1,4.562,4.328,12.333,12.333,0,0,1,0,12.283,10.877,10.877,0,0,1-4.562,4.328,13.457,13.457,0,0,1-12.868,0,12.44,12.44,0,0,1-4.562-4.328,12.583,12.583,0,0,1-1.638-6.2,11.83,11.83,0,0,1,1.638-6.083,10.877,10.877,0,0,1,4.562-4.328,13.073,13.073,0,0,1,6.434-1.521A14.487,14.487,0,0,1,90.768,178.421Zm-9.593,4.562a6.756,6.756,0,0,0-2.34,2.457,7.065,7.065,0,0,0-.819,3.509,7.146,7.146,0,0,0,.936,3.509,6.756,6.756,0,0,0,2.34,2.457,5.8,5.8,0,0,0,6.317,0,6.756,6.756,0,0,0,2.34-2.457,7.93,7.93,0,0,0,0-7.019,5.923,5.923,0,0,0-2.34-2.457,6.2,6.2,0,0,0-3.159-.936A6.289,6.289,0,0,0,81.176,182.983Z" transform="translate(-3.382 -176.666)"/>
          <path id="Path_24" data-name="Path 24" class="cls-3" d="M109.938,200.6l-3.393-6.434h-4.562V200.6H95.9V177.2h10.528c3.042,0,5.5.7,7.136,2.106a7.588,7.588,0,0,1,2.574,6.083,9.388,9.388,0,0,1-1.053,4.562,7.331,7.331,0,0,1-3.042,2.925l4.913,7.6h-7.019Zm-7.955-11.347h4.445a4.378,4.378,0,0,0,2.925-.936,3.357,3.357,0,0,0,1.053-2.691,3.107,3.107,0,0,0-1.053-2.574,4.378,4.378,0,0,0-2.925-.936h-4.445Z" transform="translate(0.728 -176.615)"/>
          <path id="Path_25" data-name="Path 25" class="cls-3" d="M128.821,182.549a11.548,11.548,0,0,0-3.509-.7,2.615,2.615,0,0,0-1.755.468,1.287,1.287,0,0,0-.7,1.17,1.879,1.879,0,0,0,.585,1.287,4.045,4.045,0,0,0,1.4.819c.585.234,1.4.468,2.457.819a30.207,30.207,0,0,1,3.977,1.4,6.764,6.764,0,0,1,2.691,2.106,6.2,6.2,0,0,1,1.17,3.743,6.476,6.476,0,0,1-1.287,3.977,8.225,8.225,0,0,1-3.392,2.457,12.517,12.517,0,0,1-4.8.819,16.047,16.047,0,0,1-5.732-1.053,17.486,17.486,0,0,1-5.03-2.808l2.34-4.8a15.027,15.027,0,0,0,4.211,2.574,11.075,11.075,0,0,0,4.328,1.053,3.517,3.517,0,0,0,2.106-.468,1.826,1.826,0,0,0,.819-1.521,1.676,1.676,0,0,0-.585-1.287,4.669,4.669,0,0,0-1.521-.819,16.658,16.658,0,0,0-2.457-.7,30.207,30.207,0,0,1-3.977-1.4,6.764,6.764,0,0,1-2.691-2.106,5.845,5.845,0,0,1-1.17-3.626,5.95,5.95,0,0,1,1.17-3.743,9.178,9.178,0,0,1,3.276-2.574,12.684,12.684,0,0,1,4.913-.936,18.639,18.639,0,0,1,5.03.7,20.975,20.975,0,0,1,4.328,1.872l-2.34,4.913A20.143,20.143,0,0,0,128.821,182.549Z" transform="translate(3.955 -176.7)"/>
        </g>
      </g>
      <rect id="Rectangle_10" data-name="Rectangle 10" class="cls-4" width="145.761" height="23.28" transform="translate(12.283 35.446)"/>
      <rect id="Rectangle_11" data-name="Rectangle 11" class="cls-5" width="145.761" height="23.28" transform="translate(12.283 62.235)"/>
      <rect id="Rectangle_12" data-name="Rectangle 12" class="cls-6" width="145.761" height="23.28" transform="translate(12.283 88.907)"/>
      <rect id="Rectangle_13" data-name="Rectangle 13" class="cls-7" width="145.761" height="23.28" transform="translate(12.283 115.579)"/>
      <rect id="Rectangle_14" data-name="Rectangle 14" class="cls-8" width="145.761" height="23.28" transform="translate(12.283 142.251)"/>
    </g>
    <g id="WTCSS_bulletinboard_centering" transform="translate(442 2510.631)">
      <rect id="Rectangle_5" data-name="Rectangle 5" class="cls-2" width="207" height="173.469"/>
      <rect id="Rectangle_6" data-name="Rectangle 6" class="cls-4" width="42.655" height="77.554" transform="translate(16.081 39.575)"/>
      <rect id="Rectangle_7" data-name="Rectangle 7" class="cls-7" width="42.655" height="77.554" transform="translate(78.466 39.575)"/>
      <rect id="Rectangle_8" data-name="Rectangle 8" class="cls-4" width="42.655" height="77.554" transform="translate(140.737 39.575)"/>
      <g id="Group_5" data-name="Group 5" transform="translate(21.898 133.552)">
        <g id="Group_4" data-name="Group 4">
          <path id="Path_11" data-name="Path 11" class="cls-3" d="M31.4,121.89a4.791,4.791,0,0,0-2.4-.684,4.884,4.884,0,0,0-2.509.684,4.976,4.976,0,0,0-1.825,1.939,5.817,5.817,0,0,0,0,5.474,4.976,4.976,0,0,0,1.825,1.939,4.884,4.884,0,0,0,2.509.684,6.629,6.629,0,0,0,2.4-.57,5.956,5.956,0,0,0,2.167-1.6l2.851,2.965a13.22,13.22,0,0,1-3.536,2.509,10.692,10.692,0,0,1-4.106.912,10.109,10.109,0,0,1-4.9-1.255,8.246,8.246,0,0,1-3.421-3.421,10.11,10.11,0,0,1-1.255-4.9,9.159,9.159,0,0,1,4.79-8.212,10.557,10.557,0,0,1,5.018-1.255,9.607,9.607,0,0,1,3.992.8,11.965,11.965,0,0,1,3.421,2.281l-2.737,3.307A11.553,11.553,0,0,0,31.4,121.89Z" transform="translate(-19.2 -117.1)"/>
          <path id="Path_12" data-name="Path 12" class="cls-3" d="M36,117.4H50.484v3.764H40.79v3.421h8.668v3.764H40.79v3.421h9.922v3.764H36Z" transform="translate(-16.84 -117.058)"/>
          <path id="Path_13" data-name="Path 13" class="cls-3" d="M63.945,117.4h4.448v18.362h-4.22l-8.326-10.949v10.949H51.4V117.4h4.22l8.326,11.063Z" transform="translate(-14.676 -117.058)"/>
          <path id="Path_14" data-name="Path 14" class="cls-3" d="M68.114,117.4H83.853v3.992H78.264v14.37h-4.79v-14.37H68V117.4Z" transform="translate(-12.344 -117.058)"/>
          <path id="Path_15" data-name="Path 15" class="cls-3" d="M83.5,117.4H97.984v3.764H88.29v3.421h8.668v3.764H88.29v3.421h9.922v3.764H83.5Z" transform="translate(-10.166 -117.058)"/>
          <path id="Path_16" data-name="Path 16" class="cls-3" d="M109.949,135.762l-2.623-5.018H103.79v5.018H99V117.4h8.212a8.19,8.19,0,0,1,5.588,1.711,6.256,6.256,0,0,1,2.053,4.79,7.039,7.039,0,0,1-.8,3.536,5.147,5.147,0,0,1-2.4,2.281l3.764,5.931h-5.474Zm-6.159-8.9h3.421a3.405,3.405,0,0,0,2.281-.684,2.539,2.539,0,0,0,.8-2.167,2.44,2.44,0,0,0-.8-2.053,3.405,3.405,0,0,0-2.281-.684H103.79Z" transform="translate(-7.988 -117.058)"/>
          <path id="Path_17" data-name="Path 17" class="cls-3" d="M115.6,117.4h4.79v18.362H115.6Z" transform="translate(-5.656 -117.058)"/>
          <path id="Path_18" data-name="Path 18" class="cls-3" d="M135.345,117.4h4.448v18.362h-4.22l-8.326-10.949v10.949H122.8V117.4h4.22l8.326,11.063Z" transform="translate(-4.645 -117.058)"/>
          <path id="Path_19" data-name="Path 19" class="cls-3" d="M153.13,126.452h4.106v7.3a14.555,14.555,0,0,1-3.536,1.711,12.769,12.769,0,0,1-3.992.684,10.557,10.557,0,0,1-5.018-1.255,9.249,9.249,0,0,1-3.536-3.421,10.11,10.11,0,0,1-1.255-4.9,8.433,8.433,0,0,1,1.369-4.79,9.6,9.6,0,0,1,3.65-3.421,11.37,11.37,0,0,1,5.132-1.255,10.519,10.519,0,0,1,4.106.8,8.589,8.589,0,0,1,3.421,2.053l-2.737,3.307a7.875,7.875,0,0,0-2.281-1.483,7.194,7.194,0,0,0-2.509-.57,4.857,4.857,0,0,0-4.448,2.623,5.816,5.816,0,0,0,0,5.474,4.976,4.976,0,0,0,1.825,1.939,5.3,5.3,0,0,0,2.623.684,8.083,8.083,0,0,0,3.193-.912v-4.562Z" transform="translate(-2.242 -117.1)"/>
        </g>
      </g>
    </g>
    <g id="WTCSS_bulletinboard_photo2" transform="translate(304.321 2369.8)">
      <g id="Group_105" data-name="Group 105" transform="translate(5.679 2.2)">
        <path id="Path_126" data-name="Path 126" class="cls-9" d="M88.918,167.464l-74.4-5.833a9.605,9.605,0,0,1-8.814-10.369L16.464,14.52A9.605,9.605,0,0,1,26.833,5.706L101.1,11.539a9.605,9.605,0,0,1,8.814,10.369L99.157,158.65A9.654,9.654,0,0,1,88.918,167.464Z" transform="translate(-5.679 -1.17)"/>
        <g id="Group_73" data-name="Group 73" transform="translate(7.804 9.332)">
          <rect id="Rectangle_31" data-name="Rectangle 31" class="cls-10" width="117.43" height="80.101" transform="translate(0.904 117.885) rotate(-85.512)"/>
          <path id="Path_127" data-name="Path 127" class="cls-11" d="M22.458,10.955l78.287,6.092L91.672,132.533l-78.287-5.962L22.458,10.955M21.032,9.4l-.13,1.555L11.83,126.441,11.7,128l1.555.13,78.287,6.092,1.555.13.13-1.555L102.3,17.306l.13-1.555-1.555-.13L22.588,9.53,21.032,9.4Z" transform="translate(-11.7 -9.4)"/>
        </g>
        <g id="Group_103" data-name="Group 103" transform="translate(9.48 10.97)">
          <g id="Group_102" data-name="Group 102" class="cls-12">
            <g id="Group_86" data-name="Group 86" transform="translate(-13.163 16.897)">
              <path id="Path_128" data-name="Path 128" class="cls-13" d="M18.689,140.183c-3.888.13-8.3-1.685-8.3-4.536s-1.815-5.573,2.2-5.444c6.221.13,10.758-9.332,10.758-6.481C23.225,126.574,22.577,140.054,18.689,140.183Z" transform="translate(-0.722 5.761)"/>
              <path id="Path_129" data-name="Path 129" class="cls-14" d="M23.136,138.536l-8.036-3.5.648-31.237,12.573.259Z" transform="translate(0.793 0.02)"/>
              <path id="Path_130" data-name="Path 130" class="cls-13" d="M40.18,140.74c3.888.259,13.221-1.167,13.48-4.018.13-2.852-2.852-5.573-6.74-5.7-6.221-.13-10.239-9.851-10.5-7S36.162,140.481,40.18,140.74Z" transform="translate(7.079 5.853)"/>
              <path id="Path_131" data-name="Path 131" class="cls-14" d="M35.6,138.836l8.3-3.629.778-30.718L32.1,104.1Z" transform="translate(5.828 0.109)"/>
              <path id="Path_132" data-name="Path 132" class="cls-14" d="M51.461,109.752c-.389,19.96-8.425,25.663-19.312,25.4C21.391,134.9,13.614,128.935,14,108.974S22.687,72.941,33.575,73.2C44.333,73.33,51.98,89.791,51.461,109.752Z" transform="translate(0.464 -9.042)"/>
              <g id="Group_74" data-name="Group 74" transform="translate(11.39 63.638)">
                <path id="Path_133" data-name="Path 133" class="cls-15" d="M11.722,83.429l2.592,33.959,37.847.907,4.148-33.829c1.037-5.573-2.722-10.888-7.777-11.017L19.888,72.8C14.962,72.671,10.944,77.726,11.722,83.429Z" transform="translate(-11.625 -72.798)"/>
              </g>
              <g id="Group_75" data-name="Group 75" transform="translate(43.242 26.96)">
                <path id="Path_134" data-name="Path 134" class="cls-15" d="M36.2,84.162s30.589-9.721,30.978-21.516c.13-5.055.389-18.016.389-18.016l7.906-.13S79.361,63.553,76.9,68.09s-32.144,36.292-32.144,36.292Z" transform="translate(-36.2 -44.5)"/>
              </g>
              <path id="Path_135" data-name="Path 135" class="cls-16" d="M21.554,110.184H15.981l-2.722-3.759L13,98Z" transform="translate(0.171 -1.697)"/>
              <ellipse id="Ellipse_29" data-name="Ellipse 29" class="cls-6" cx="3.629" cy="4.666" rx="3.629" ry="4.666" transform="translate(6.891 105.149) rotate(-49.806)"/>
              <path id="Path_136" data-name="Path 136" class="cls-15" d="M25.212,85.019S13.028,94.61,13.676,98.5s5.055,13.48,5.055,13.48l-7.518,1.555s-9.332-13.35-8.3-17.239S14.454,73.224,21.583,71.409C25.082,70.5,25.212,85.019,25.212,85.019Z" transform="translate(-2.838 -9.584)"/>
              <path id="Path_137" data-name="Path 137" class="cls-17" d="M25.207,34.862a17.114,17.114,0,0,1,3.629-.259,19.628,19.628,0,0,1,6.221,1.167,8.56,8.56,0,0,0,1.167-3.629,7.093,7.093,0,0,0-4.407-6.74,7.491,7.491,0,0,1,1.3,4.148,6.968,6.968,0,0,1-1.037,3.629,7.108,7.108,0,0,0-4.407-6.61,7.491,7.491,0,0,1,1.3,4.148,6.025,6.025,0,0,1-.648,2.722A7.271,7.271,0,0,0,24.3,29.159a7.491,7.491,0,0,1,1.3,4.148Z" transform="translate(3.518 -23.197)"/>
              <path id="Path_138" data-name="Path 138" class="cls-15" d="M54.77,94.048c-3.629,17.109-8.166,14.517-21.127,14.257s-23.2-9.332-22.942-20.22S18.348,68.514,34.55,68.9C51.918,69.162,57.751,80.309,54.77,94.048Z" transform="translate(-0.511 -10.318)"/>
              <path id="Path_139" data-name="Path 139" class="cls-18" d="M25,73.691,28.888,57.1l4.925.13,3.759,16.85a7.1,7.1,0,0,1-6.351,6.351C28.888,80.171,25.13,77.449,25,73.691Z" transform="translate(3.725 -13.809)"/>
              <g id="Group_77" data-name="Group 77" transform="translate(14.597 57.946)">
                <g id="Group_76" data-name="Group 76" class="cls-19">
                  <path id="Path_140" data-name="Path 140" class="cls-20" d="M31.718,64.2a7.252,7.252,0,0,0-7.518,7,7.135,7.135,0,0,0,7.129,7.258,7.252,7.252,0,0,0,7.518-7A7.132,7.132,0,0,0,31.718,64.2Zm-.259,13.091A6.054,6.054,0,0,1,25.5,71.2a6.151,6.151,0,0,1,6.221-5.833,6.054,6.054,0,0,1,5.962,6.092A5.982,5.982,0,0,1,31.459,77.292Z" transform="translate(-11.11 -69.653)"/>
                </g>
              </g>
              <path id="Path_141" data-name="Path 141" class="cls-15" d="M26.607,35.162a17.114,17.114,0,0,1,3.629-.259,19.628,19.628,0,0,1,6.221,1.167,8.56,8.56,0,0,0,1.167-3.629,7.093,7.093,0,0,0-4.407-6.74,7.491,7.491,0,0,1,1.3,4.148,6.968,6.968,0,0,1-1.037,3.629,7.108,7.108,0,0,0-4.407-6.61,7.491,7.491,0,0,1,1.3,4.148,6.025,6.025,0,0,1-.648,2.722A7.271,7.271,0,0,0,25.7,29.459,7.491,7.491,0,0,1,27,33.606,6.836,6.836,0,0,0,26.607,35.162Z" transform="translate(3.932 -23.108)"/>
              <path id="Path_142" data-name="Path 142" class="cls-21" d="M47.056,46.96c-.13,6.351-10.369,28.645-14.776,28.645C28,75.475,18.671,50.849,18.8,44.109c.259-11.665,2.981-11.147,14.387-10.888C44.593,33.351,47.315,35.3,47.056,46.96Z" transform="translate(1.889 -20.908)"/>
              <path id="Path_143" data-name="Path 143" class="cls-4" d="M53.744,51.41c-.259,11.147-16.072,22.812-20.09,22.682C29.9,73.963,14.342,61.649,14.6,50.5s9.073-19.96,19.96-19.7C45.319,31.061,53.874,40.263,53.744,51.41Z" transform="translate(0.644 -21.599)"/>
              <path id="Path_144" data-name="Path 144" class="cls-22" d="M33.554,74.032C29.8,73.9,14.242,61.589,14.5,50.442a20.652,20.652,0,0,1,8.943-16.461C26.036,32.167,30.832,31,30.832,31s-1.944.907-4.018,2.074a17.729,17.729,0,0,0-9.2,15.294c-.13,7.777,4.666,13.739,8.425,17.887,4.148,4.536,5.314,7.258,7,7.518l.648.13A.127.127,0,0,1,33.554,74.032Z" transform="translate(0.615 -21.538)"/>
              <circle id="Ellipse_31" data-name="Ellipse 31" class="cls-23" cx="3.629" cy="3.629" r="3.629" transform="translate(19.911 20.738)"/>
              <circle id="Ellipse_32" data-name="Ellipse 32" class="cls-23" cx="3.629" cy="3.629" r="3.629" transform="translate(43.242 21.257)"/>
              <g id="Group_80" data-name="Group 80" transform="translate(20.948 21.645)">
                <circle id="Ellipse_33" data-name="Ellipse 33" class="cls-24" cx="2.722" cy="2.722" r="2.722"/>
                <g id="Group_79" data-name="Group 79">
                  <g id="Group_78" data-name="Group 78" class="cls-25">
                    <circle id="Ellipse_34" data-name="Ellipse 34" class="cls-26" cx="1.944" cy="1.944" r="1.944" transform="translate(-1.167 -1.296)"/>
                  </g>
                </g>
              </g>
              <g id="Group_83" data-name="Group 83" transform="translate(44.149 22.164)">
                <circle id="Ellipse_36" data-name="Ellipse 36" class="cls-24" cx="2.722" cy="2.722" r="2.722" transform="translate(0)"/>
                <g id="Group_82" data-name="Group 82" transform="translate(0)">
                  <g id="Group_81" data-name="Group 81" class="cls-25">
                    <circle id="Ellipse_37" data-name="Ellipse 37" class="cls-26" cx="1.944" cy="1.944" r="1.944" transform="translate(-1.167 -1.296)"/>
                  </g>
                </g>
              </g>
              <path id="Path_145" data-name="Path 145" class="cls-13" d="M36.37,50.447c-.13,4.148-5.444,13.221-5.444,13.221S25.871,54.336,26,50.188,28.982,42.8,31.315,42.8C33.777,42.93,36.5,46.429,36.37,50.447Z" transform="translate(4.021 -18.044)"/>
              <path id="Path_146" data-name="Path 146" class="cls-27" d="M36.37,51.047c-.13,4.148-5.444,13.221-5.444,13.221S25.871,54.936,26,50.788,28.982,43.4,31.315,43.4C33.777,43.4,36.5,46.9,36.37,51.047Z" transform="translate(4.021 -17.866)"/>
              <g id="Group_85" data-name="Group 85" transform="translate(30.019 25.534)">
                <g id="Group_84" data-name="Group 84" class="cls-28">
                  <path id="Path_147" data-name="Path 147" class="cls-29" d="M26.5,52.715a46.906,46.906,0,0,0,4.148,9.332,53.233,53.233,0,0,0,4.536-9.2A6.866,6.866,0,0,0,30.907,50.9,8.248,8.248,0,0,0,26.5,52.715Z" transform="translate(-25.849 -41.179)"/>
                  <path id="Path_148" data-name="Path 148" class="cls-30" d="M27.8,55.907c1.167,2.722,2.463,5.055,2.463,5.055s1.426-2.333,2.722-4.925A3.854,3.854,0,0,0,30.392,55,3.962,3.962,0,0,0,27.8,55.907Z" transform="translate(-25.465 -39.965)"/>
                </g>
              </g>
              <path id="Path_150" data-name="Path 150" class="cls-18" d="M27.307,33.162a17.114,17.114,0,0,1,3.629-.259,19.628,19.628,0,0,1,6.221,1.167,8.56,8.56,0,0,0,1.167-3.629,7.093,7.093,0,0,0-4.407-6.74,7.491,7.491,0,0,1,1.3,4.148,6.968,6.968,0,0,1-1.037,3.629,7.108,7.108,0,0,0-4.407-6.61,7.491,7.491,0,0,1,1.3,4.148,6.025,6.025,0,0,1-.648,2.722A7.271,7.271,0,0,0,26.4,27.459a7.491,7.491,0,0,1,1.3,4.148A13.452,13.452,0,0,1,27.307,33.162Z" transform="translate(4.14 -23.7)"/>
              <path id="Path_151" data-name="Path 151" class="cls-4" d="M68.267,49.209c.13-3.5.259-6.74,1.944-9.721a5.35,5.35,0,0,0,.907-1.944,1.659,1.659,0,0,0-.778-1.815c-.648-.259-1.555.13-1.426.907a2.142,2.142,0,0,0,0-2.463c-.648-.648-2.074.13-1.555.907-.389-1.167.389-2.333.907-3.5S68.4,28.6,67.23,28.6c-1.037,0-1.555,1.167-1.815,2.2-.389,1.555-.778,2.981-1.167,4.536-.13-1.167-.259-2.333-.389-3.37a2.976,2.976,0,0,0-.518-1.815,1.19,1.19,0,0,0-2.2.778,10.55,10.55,0,0,0,.518,5.314,3.8,3.8,0,0,1,.389,1.3c0,1.426-2.074,2.333-1.944,3.888,0,.907,1.037,1.555,1.426,2.463,1.167,1.944.389,4.148-1.037,5.962" transform="translate(14.118 -22.249)"/>
            </g>
            <g id="Group_101" data-name="Group 101" transform="translate(31.594 28.931)">
              <path id="Path_152" data-name="Path 152" class="cls-31" d="M58.592,67.1c-.907,7.258-1.3,14-6.092,17.5,5.055,4.536,8.943,6.87,15.683,7s9.462-2.074,14.646-6.481c-4.666-3.629-3.5-9.721-4.148-17.109" transform="translate(-32.888 -22.882)"/>
              <path id="Path_153" data-name="Path 153" class="cls-13" d="M53.989,147.583c-3.888.13-8.3-1.685-8.3-4.536s-1.815-5.573,2.2-5.444c6.221.13,10.758-9.332,10.758-6.481C58.525,133.974,57.877,147.583,53.989,147.583Z" transform="translate(-35.024 -4.082)"/>
              <path id="Path_154" data-name="Path 154" class="cls-14" d="M58.466,146.036l-8.166-3.5.778-31.237,12.573.259Z" transform="translate(-33.539 -9.793)"/>
              <path id="Path_155" data-name="Path 155" class="cls-13" d="M75.48,148.14c3.888.259,13.221-1.167,13.48-4.018s-2.852-5.573-6.74-5.7c-6.221-.13-10.239-9.851-10.5-7C71.462,134.4,71.462,148.01,75.48,148.14Z" transform="translate(-27.223 -3.99)"/>
              <path id="Path_156" data-name="Path 156" class="cls-14" d="M70.929,146.336l8.3-3.629.648-30.718L67.3,111.6Z" transform="translate(-28.505 -9.704)"/>
              <path id="Path_157" data-name="Path 157" class="cls-14" d="M86.761,117.281c-.389,19.96-8.425,25.663-19.312,25.4-10.758-.259-18.535-6.221-18.146-26.182s8.684-36.162,19.572-35.9C79.633,80.86,87.28,97.321,86.761,117.281Z" transform="translate(-33.839 -18.885)"/>
              <g id="Group_88" data-name="Group 88" transform="translate(12.416 56.661)">
                <g id="Group_87" data-name="Group 87">
                  <path id="Path_158" data-name="Path 158" class="cls-32" d="M47.015,91.994l2.592,33.959,37.847.907L91.6,93.031c1.037-5.573-4.8-15.554-9.851-15.683L57.385,76.7C52.33,76.7,46.238,86.291,47.015,91.994Z" transform="translate(-46.948 -76.7)"/>
                </g>
              </g>
              <path id="Path_159" data-name="Path 159" class="cls-33" d="M56.854,117.684H51.281l-2.722-3.759L48.3,105.5Z" transform="translate(-34.131 -11.511)"/>
              <ellipse id="Ellipse_39" data-name="Ellipse 39" class="cls-5" cx="3.629" cy="4.666" rx="3.629" ry="4.666" transform="translate(7.9 102.82) rotate(-49.806)"/>
              <path id="Path_160" data-name="Path 160" class="cls-32" d="M58.536,93.221S47.39,103.978,48.3,107.608c.907,3.759,6.221,12.961,6.221,12.961l-7.258,2.2s-10.628-12.443-9.851-16.331C38.057,102.553,53.611,80,53.611,80Z" transform="translate(-37.369 -19.062)"/>
              <g id="Group_100" data-name="Group 100" transform="translate(3.67)">
                <path id="Path_161" data-name="Path 161" class="cls-27" d="M100.526,67.158s-3.37-4.148-10.5-4.277C77.584,62.621,72.4,74.8,71.1,78.434,70.067,74.8,65.4,62.362,52.958,62.1,45.829,61.844,42.2,65.862,42.2,65.862a29.388,29.388,0,0,1,4.925.907l-3.888,2.722s5.833-.907,7.777-.907a13.434,13.434,0,0,1,2.074.13,1.842,1.842,0,0,0,.778.259c5.962,2.333,13.609,6.61,16.979,9.98a1.292,1.292,0,0,0-.13.518l.259-.259.259.259a2.044,2.044,0,0,0-.13-.518c3.5-3.24,11.276-7.129,17.368-9.2a2.4,2.4,0,0,1,.907-.259h1.3c1.944.13,7.777,1.3,7.777,1.3l-3.629-2.722A40.006,40.006,0,0,1,100.526,67.158Z" transform="translate(-39.608 -24.366)"/>
                <path id="Path_162" data-name="Path 162" class="cls-27" d="M100.526,67.158s-3.37-4.148-10.5-4.277C77.584,62.621,72.4,74.8,71.1,78.434,70.067,74.8,65.4,62.362,52.958,62.1,45.829,61.844,42.2,65.862,42.2,65.862a29.388,29.388,0,0,1,4.925.907l-3.888,2.722s5.833-.907,7.777-.907a13.434,13.434,0,0,1,2.074.13,1.842,1.842,0,0,0,.778.259c5.962,2.333,13.609,6.61,16.979,9.98a1.292,1.292,0,0,0-.13.518l.259-.259.259.259a2.044,2.044,0,0,0-.13-.518c3.5-3.24,11.276-7.129,17.368-9.2a2.4,2.4,0,0,1,.907-.259h1.3c1.944.13,7.777,1.3,7.777,1.3l-3.629-2.722A40.006,40.006,0,0,1,100.526,67.158Z" transform="translate(-39.608 -24.366)"/>
                <path id="Path_163" data-name="Path 163" class="cls-27" d="M51.4,62c-7.129-.13-9.2,3.759-9.2,3.759a29.388,29.388,0,0,1,4.925.907l.778-.389a13.512,13.512,0,0,1,4.407-1.426l6.351-.907S52.439,62.13,51.4,62Z" transform="translate(-39.608 -24.393)"/>
                <path id="Path_164" data-name="Path 164" class="cls-34" d="M103.84,70.981c-.389-1.944-2.463-4.536-4.018-6.481-1.3-1.426-2.722-2.463-3.5-3.5a22.333,22.333,0,0,1-1.037-12.7,39.319,39.319,0,0,0,.13-12.961A1.71,1.71,0,0,0,93.6,33.912c-7.129.907-13.091,11.276-14.646,10.628-1.685-.648-11.017-.907-12.7-.259-1.555.648-7-10.11-14.128-11.276a1.522,1.522,0,0,0-1.815,1.3,36.6,36.6,0,0,0-.389,12.961,22.573,22.573,0,0,1-1.685,12.7c-.778,1.037-2.333,1.944-3.629,3.37-1.815,1.815-3.888,4.407-4.407,6.351a10.676,10.676,0,0,1,3.37-.778,19.243,19.243,0,0,0-2.2,7.647S46.81,72.537,53.421,72.8c11.017.259,12.184,15.554,18.146,15.683S79.343,73.444,90.36,73.7c6.61.13,11.924,4.407,11.924,4.407a24.646,24.646,0,0,0-1.815-7.777A8.928,8.928,0,0,1,103.84,70.981Z" transform="translate(-40.2 -32.985)"/>
                <g id="Group_90" data-name="Group 90" transform="translate(31.366 0.797)">
                  <g id="Group_89" data-name="Group 89" class="cls-35">
                    <path id="Path_165" data-name="Path 165" class="cls-13" d="M85.017,55.072c3.759-5.185,1.167-15.683.648-18.794a1.108,1.108,0,0,0-.389-.778S73.871,42.5,74,46.647Z" transform="translate(-61.557 -33.037)"/>
                    <path id="Path_166" data-name="Path 166" class="cls-27" d="M84.4,53.887c3.5-4.018,1.037-14.257.907-14.387,0,0-9.332,5.314-9.2,8.036Z" transform="translate(-60.936 -31.853)"/>
                  </g>
                </g>
                <g id="Group_93" data-name="Group 93" transform="translate(17.498 25.813)">
                  <circle id="Ellipse_40" data-name="Ellipse 40" class="cls-24" cx="2.592" cy="2.592" r="2.592"/>
                  <g id="Group_92" data-name="Group 92">
                    <g id="Group_91" data-name="Group 91" class="cls-36">
                      <circle id="Ellipse_41" data-name="Ellipse 41" class="cls-26" cx="1.944" cy="1.944" r="1.944" transform="translate(-1.296 -1.296)"/>
                    </g>
                  </g>
                </g>
                <path id="Path_168" data-name="Path 168" class="cls-37" d="M69.088,72.071a3.695,3.695,0,1,1-7.388-.13C61.7,69.867,69.088,70,69.088,72.071Z" transform="translate(-33.833 -21.89)"/>
                <g id="Group_95" data-name="Group 95" transform="translate(1.815)">
                  <g id="Group_94" data-name="Group 94" class="cls-38">
                    <path id="Path_169" data-name="Path 169" class="cls-13" d="M47.988,54.272c-3.629-5.314-.389-15.683.13-18.794a1.066,1.066,0,0,1,.518-.778s11.147,7.518,10.888,11.665Z" transform="translate(-40.211 -32.477)"/>
                    <path id="Path_170" data-name="Path 170" class="cls-27" d="M47.952,53.087c-3.24-4.148-.389-14.257-.259-14.387,0,0,9.073,5.7,8.814,8.425Z" transform="translate(-40.176 -31.292)"/>
                  </g>
                </g>
                <g id="Group_99" data-name="Group 99" transform="translate(37.069 21.924)">
                  <g id="Group_98" data-name="Group 98" transform="translate(4.407 4.407)">
                    <circle id="Ellipse_43" data-name="Ellipse 43" class="cls-24" cx="2.592" cy="2.592" r="2.592"/>
                    <g id="Group_97" data-name="Group 97">
                      <g id="Group_96" data-name="Group 96" class="cls-36">
                        <circle id="Ellipse_44" data-name="Ellipse 44" class="cls-26" cx="1.944" cy="1.944" r="1.944" transform="translate(-1.296 -1.296)"/>
                      </g>
                    </g>
                  </g>
                  <circle id="Ellipse_46" data-name="Ellipse 46" class="cls-39" cx="7.129" cy="7.129" r="7.129"/>
                  <circle id="Ellipse_47" data-name="Ellipse 47" class="cls-40" cx="7.129" cy="7.129" r="7.129"/>
                  <circle id="Ellipse_48" data-name="Ellipse 48" class="cls-6" cx="0.648" cy="0.648" r="0.648" transform="translate(12.832 11.536)"/>
                  <circle id="Ellipse_49" data-name="Ellipse 49" class="cls-6" cx="0.648" cy="0.648" r="0.648" transform="translate(13.609 12.573)"/>
                  <circle id="Ellipse_50" data-name="Ellipse 50" class="cls-6" cx="0.648" cy="0.648" r="0.648" transform="translate(14.257 13.609)"/>
                  <circle id="Ellipse_51" data-name="Ellipse 51" class="cls-6" cx="0.648" cy="0.648" r="0.648" transform="translate(14.776 14.776)"/>
                  <circle id="Ellipse_52" data-name="Ellipse 52" class="cls-6" cx="0.648" cy="0.648" r="0.648" transform="translate(15.165 15.942)"/>
                  <circle id="Ellipse_53" data-name="Ellipse 53" class="cls-6" cx="0.648" cy="0.648" r="0.648" transform="translate(15.035 17.239)"/>
                  <circle id="Ellipse_54" data-name="Ellipse 54" class="cls-6" cx="0.648" cy="0.648" r="0.648" transform="translate(14.906 18.405)"/>
                  <circle id="Ellipse_55" data-name="Ellipse 55" class="cls-6" cx="0.648" cy="0.648" r="0.648" transform="translate(15.035 19.701)"/>
                  <circle id="Ellipse_56" data-name="Ellipse 56" class="cls-6" cx="0.648" cy="0.648" r="0.648" transform="translate(15.813 20.609)"/>
                  <circle id="Ellipse_57" data-name="Ellipse 57" class="cls-6" cx="0.648" cy="0.648" r="0.648" transform="translate(16.591 21.645)"/>
                  <circle id="Ellipse_58" data-name="Ellipse 58" class="cls-6" cx="0.648" cy="0.648" r="0.648" transform="translate(16.461 22.942)"/>
                </g>
                <path id="Path_172" data-name="Path 172" class="cls-41" d="M49.791,50.748a25.218,25.218,0,0,1-1.555,5.185c-.778,1.037-2.333,1.944-3.629,3.37-1.815,1.815-3.888,4.407-4.407,6.351a10.676,10.676,0,0,1,3.37-.778,19.243,19.243,0,0,0-2.2,7.647,21.879,21.879,0,0,1,12.054-3.759H54.2s-3.759-.389-5.055-1.426a3.951,3.951,0,0,1-1.3-3.5c.389-5.444,8.036-17.239,8.036-17.239Z" transform="translate(-40.2 -28.953)"/>
              </g>
            </g>
          </g>
        </g>
        <g id="Group_104" data-name="Group 104" transform="translate(49.28)">
          <line id="Line_15" data-name="Line 15" class="cls-42" x2="4.148" y2="8.814" transform="translate(3.629 2.851)"/>
          <circle id="Ellipse_59" data-name="Ellipse 59" class="cls-43" cx="3.5" cy="3.5" r="3.5"/>
        </g>
      </g>
      <path id="Path_173" data-name="Path 173" class="cls-44" d="M17.4,120.9a.854.854,0,0,0,1.167.389,23.572,23.572,0,0,1,3.759-12.054c.778-1.167,1.944-2.463,3.37-2.333a3.566,3.566,0,0,1,1.944,1.037,26.466,26.466,0,0,1,6.87,10.239,8.769,8.769,0,0,1,.907,3.5,3.294,3.294,0,0,1-1.815,2.981c-1.685.778-3.759-.778-4.018-2.592a5.917,5.917,0,0,1,1.815-5.055,12.165,12.165,0,0,1,7.777-4.148,5.293,5.293,0,0,1,2.463.13,8.3,8.3,0,0,1,3.37,2.981,11.527,11.527,0,0,0,5.314,3.629,6.138,6.138,0,0,0,6.092-1.3,4.385,4.385,0,0,0,.389-5.833,2.229,2.229,0,0,0-2.851-.518,2.071,2.071,0,0,0-.648,1.3,4.677,4.677,0,0,0,3.629,5.444c3.111.518,5.833-2.2,8.943-2.592,4.277-.518,7.906,3.5,12.313,3.5,1.3,0,2.722-.778,2.592-1.944" transform="translate(3.471 31.003)"/>
    </g>
  </g>
</svg>
