<svg xmlns="http://www.w3.org/2000/svg" viewBox="0 0 344.5 472.99"><defs><style>.cls-1{fill:#ffca06;}.cls-2{fill:#f34a44;}.cls-3{fill:#d3d2d8;}.cls-4{fill:#333a4b;}.cls-5{fill:#fff;}.cls-6{fill:#36adbd;}</style></defs><title>rocket</title><g id="Layer_2" data-name="Layer 2"><g id="Layer_1-2" data-name="Layer 1"><path class="cls-1" d="M73.19,409.15C77.28,430.24,57.63,446.47,72,473L72,473c10-15,22.42-34,53.46-23.33a5.19,5.19,0,0,0,6.89-4.73c.37-12.88,10.82-21.52,18.61-24.39,29.62-10.88,38.88-75.73-6.77-98.85C134,316.51,62.61,325.24,65.3,384.5,65.75,394.46,71.81,402,73.19,409.15Z"/><path class="cls-2" d="M284.13,272.79l13.47,70.64a9.34,9.34,0,0,1-1.68,7.27l-63.76,88.05c-5.32,7.34-17.34,5.11-18.86-3.51l-15.64-88.46a9.47,9.47,0,0,1,2.52-8.15l65.93-70.23C271.91,262.22,282.61,264.83,284.13,272.79Z"/><path class="cls-2" d="M103.54,181.34,38.62,212.29A9.39,9.39,0,0,0,33.75,218L.52,321.45c-2.78,8.64,6.14,17,14,13.13l80.56-39.75a9.48,9.48,0,0,0,5.08-6.85l17.59-94.72C119.28,184.93,110.85,177.86,103.54,181.34Z"/><path class="cls-3" d="M343.77,89.27C341,53.14,331,26.34,325.15,11.13a17.39,17.39,0,0,0-19-10.91,265,265,0,0,0-76.16,25c-40.19,20.26-85.48,55.65-117,117.15-48.62,94.86-37.17,181,17.14,208.81s131-13.09,179.53-108C340.86,182.25,346.87,129.86,343.77,89.27Z"/><path class="cls-2" d="M230,25.26a265,265,0,0,1,76.16-25,17.39,17.39,0,0,1,19,10.91c5.88,15.21,15.23,35,18,71.14"/><rect class="cls-4" x="71.17" y="325.69" width="132.14" height="27" rx="4.98" transform="translate(169.83 -25.26) rotate(27.14)"/><path class="cls-2" d="M180,233.94l16.44,8.33c4.51,2.28,6.79,6.74,5,9.82L126,383.66c-1.68,2.92-6.4,3.52-10.68,1.35h0c-4.25-2.15-6.56-6.26-5.26-9.34l59-139.9C170.5,232.47,175.47,231.64,180,233.94Z"/><circle class="cls-5" cx="232.38" cy="152.13" r="56.11"/><path class="cls-6" d="M277.17,118.15l-4.52,26.48-10.31,34.73-13.65-2.83,2.4-36.37L257.24,110l15.5,3a56.78,56.78,0,0,0-62.15-13.24,38.59,38.59,0,0,1,14.82.44q14,2.9,20.72,10.94t4.33,19.55c-1,4.9-3,8.74-5.85,11.51a58.38,58.38,0,0,1-11.86,8.39,59,59,0,0,0-10,7,15.07,15.07,0,0,0-4.46,8.26L199.88,162a27.42,27.42,0,0,1,3.6-9.38,24.47,24.47,0,0,1,5.3-6.06,86.92,86.92,0,0,1,7.18-4.94,43.25,43.25,0,0,0,7.32-5.35,11.92,11.92,0,0,0,3.34-6.32q1.74-8.46-7.68-10.41-10.4-2.16-13.09,10.15l-19-4.08a39.29,39.29,0,0,1,6-14.53,56.74,56.74,0,0,0,54.67,95.78,10.48,10.48,0,0,1-6.08-4.51,12.32,12.32,0,0,1,3.26-16.09,10.84,10.84,0,0,1,8.59-1.45,10.85,10.85,0,0,1,8.8,13.41,13,13,0,0,1-.81,2.61,56.77,56.77,0,0,0,15.83-82.64Zm-65.44,74.9a11,11,0,0,1-8.67,1.5,10.79,10.79,0,0,1-7.22-4.8,12.34,12.34,0,0,1,3.27-16.09,10.83,10.83,0,0,1,8.59-1.45,10.85,10.85,0,0,1,8.8,13.41A11.33,11.33,0,0,1,211.73,193.05Z"/></g></g></svg>