<svg xmlns="http://www.w3.org/2000/svg" viewBox="0 0 119.022 36.945">
  <defs>
    <style>
      .cls-1 {
        fill: #f3d07d;
        opacity: 0.782;
      }
    </style>
  </defs>
  <path id="Path_974" data-name="Path 974" class="cls-1" d="M1.21,0h116.6a1.435,1.435,0,0,1,1.21,1.583,13.725,13.725,0,0,0-1.21,6.2c0,1.439,1.21,2.741,1.21,5.215,0,4.577-3.369,11.3-3.369,11.3l3.369,11.064a1.435,1.435,0,0,1-1.21,1.583H1.21A1.435,1.435,0,0,1,0,35.362s2.5-.713,2.5-9.158c0-2.8-2.5-9.612-2.5-9.612L3.164,8.742,0,1.583A1.435,1.435,0,0,1,1.21,0Z"/>
</svg>
