<svg xmlns="http://www.w3.org/2000/svg" xmlns:xlink="http://www.w3.org/1999/xlink" width="346.481" height="346.634" viewBox="0 0 346.481 346.634">
  <defs>
    <clipPath id="clip-path">
      <rect id="Rectangle_520" data-name="Rectangle 520" width="250.813" height="223.631"/>
    </clipPath>
    <clipPath id="clip-path-2">
      <path id="Path_926" data-name="Path 926" d="M701.8,113.473c14.209,0,14.9-30.271,36.912-30.271a42.742,42.742,0,0,1,23.012,7.336c0-7.954-4.865-18.842-9.807-27.722a44.475,44.475,0,0,1-4.865-29.807c1.931-10.193.541-20.927-.309-25.792a3.18,3.18,0,0,0-3.552-2.626c-14.131,2.085-25.406,23.089-28.572,21.853" transform="translate(-701.8 -4.562)"/>
    </clipPath>
    <clipPath id="clip-path-4">
      <circle id="Ellipse_241" data-name="Ellipse 241" cx="5.174" cy="5.174" r="5.174"/>
    </clipPath>
    <clipPath id="clip-path-6">
      <path id="Path_932" data-name="Path 932" d="M671.8,26.545c-3.166,1.236-14.44-19.769-28.572-21.853a3.137,3.137,0,0,0-3.552,2.626c-.849,4.942-2.239,15.6-.309,25.792a44.548,44.548,0,0,1-4.865,29.807c-4.942,8.958-9.807,19.769-9.807,27.722A42.743,42.743,0,0,1,647.712,83.3c22.008,0,22.7,30.271,36.911,30.271" transform="translate(-624.7 -4.662)"/>
    </clipPath>
  </defs>
  <g id="Group_954" data-name="Group 954" transform="translate(-982 -1892.366)">
    <g id="Ellipse_3" data-name="Ellipse 3" transform="translate(1011 1906)" fill="#f2f2f2" stroke="#707070" stroke-width="1">
      <circle cx="150.5" cy="150.5" r="150.5" stroke="none"/>
      <circle cx="150.5" cy="150.5" r="150" fill="none"/>
    </g>
    <rect id="Rectangle_11" data-name="Rectangle 11" width="165" height="139" transform="translate(982 2100)" fill="#ed583f"/>
    <circle id="Ellipse_259" data-name="Ellipse 259" cx="153.241" cy="153.241" r="153.241" transform="translate(1017 1897.366)" fill="#e5efed" stroke="#fff" stroke-width="10"/>
    <g id="Group_815" data-name="Group 815" transform="translate(1051.807 1975.725)">
      <g id="Group_814" data-name="Group 814" clip-path="url(#clip-path)">
        <path id="Path_897" data-name="Path 897" d="M673.851,104.7c-1.622,14.517-2.008,27.8-11.351,34.9,10.27,8.8,17.915,13.128,31.352,13.128,13.359,0,18.61-4.556,28.88-13.436-9.344-7.1-7.413-19.151-9.035-33.668" transform="translate(-572.075 -23.85)" fill="#d77328" fill-rule="evenodd"/>
        <g id="Group_800" data-name="Group 800" transform="translate(43.04 103.695)">
          <path id="Path_898" data-name="Path 898" d="M603.441,322.227a44.784,44.784,0,0,1,4.093,9.807,125.533,125.533,0,0,1,4.942,21.313c.849,5.946,2.162,13.436-.309,19.228a52.448,52.448,0,0,1-3.32,5.714c-1.39,2.471-4.4,7.413.386,7.722,5.328.386,11.429-.772,16.68-1.544a33.375,33.375,0,0,1-2.008-11.274c-.077-6.641,1-13.05.541-19.691-.309-4.479,2.934-11.429,6.178-14.9a4.974,4.974,0,0,0,1.39-2.008,3.5,3.5,0,0,0-.154-1.776c-1-3.629-2.008-7.336-3.166-10.888a4.087,4.087,0,0,0-1-1.776,3.238,3.238,0,0,0-1.7-.618,41.924,41.924,0,0,0-23.089.772" transform="translate(-601.538 -176.653)" fill="#143f6b"/>
          <rect id="Rectangle_519" data-name="Rectangle 519" width="52.819" height="30.579" transform="translate(52.791 184.261)" fill="#143f6b"/>
          <g id="Group_794" data-name="Group 794" transform="translate(66.788 152.524)">
            <path id="Path_899" data-name="Path 899" d="M747.838,331.8a58.2,58.2,0,0,1,6.95,33.2c-.386,3.938-1.158,7.877-.695,11.815.463,4.324,2.317,8.34,3.4,12.587,3.012,11.66-.232,23.861-3.4,35.522a5.929,5.929,0,0,1-1.39,2.78c-1.467,1.39-3.938,1.158-6.023.772a233.075,233.075,0,0,1-29.962-7.568c-2.162-.7-4.788-1.158-5.946-2.857-3.552-5.174.154-18.379-6.023-25.328-1.39-1.544-3.4-2.7-4.788-4.247-3.4-3.784-2.7-9.344-1.853-14.209,1.7-9.112-11.969-22.24-10.348-31.352" transform="translate(-687.626 -331.8)" fill="#e9e1da"/>
            <path id="Path_900" data-name="Path 900" d="M752.818,494.314H724.556c-2.625,0-4.865-1.622-5.1-3.784L712.9,425.2c-.232-2.394,2.085-4.4,5.1-4.4h41.39c2.934,0,5.328,2.008,5.1,4.4l-6.564,65.329C757.683,492.692,755.444,494.314,752.818,494.314Z" transform="translate(-693.379 -352.074)" fill="#474042"/>
            <path id="Path_901" data-name="Path 901" d="M721.4,510.2l.927,9.035,42.7,4.556c1.7.154,3.243-.927,3.243-2.317v-.541a2.332,2.332,0,0,0-1.39-2.008l-7.027-3.32v-4.633Z" transform="translate(-695.32 -372.438)" fill="#5c5356"/>
          </g>
          <g id="Group_795" data-name="Group 795" transform="translate(16.343 131.288)">
            <path id="Path_902" data-name="Path 902" d="M635.6,304.3a58.2,58.2,0,0,0-6.95,33.2c.386,3.938,1.158,7.877.7,11.815-.463,4.324-2.317,8.34-3.4,12.587-3.012,11.66.232,23.861,3.4,35.522a5.931,5.931,0,0,0,1.39,2.78c1.467,1.39,3.938,1.158,6.023.772a233.071,233.071,0,0,0,29.962-7.568c2.162-.7,2.625,0,4.324-1.467,7.1-6.023,1.544-19.846,7.645-26.718,1.39-1.544,3.4-2.7,4.788-4.247,3.4-3.784,2.7-9.344,1.853-14.209-1.7-9.112,11.969-22.24,10.348-31.352" transform="translate(-622.858 -304.3)" fill="#e9e1da"/>
            <path id="Path_903" data-name="Path 903" d="M636.356,466.814h28.263c2.626,0,4.865-1.622,5.1-3.784l6.564-65.329c.232-2.394-2.085-4.4-5.1-4.4h-41.39c-2.934,0-5.328,2.008-5.1,4.4l6.564,65.329C631.491,465.115,633.73,466.814,636.356,466.814Z" transform="translate(-622.842 -324.574)" fill="#474042"/>
            <path id="Path_904" data-name="Path 904" d="M669.173,482.7l-.927,9.035-42.7,4.556c-1.7.154-3.243-.927-3.243-2.317v-.541a2.332,2.332,0,0,1,1.39-2.008l7.027-3.32v-4.633Z" transform="translate(-622.3 -344.938)" fill="#5c5356"/>
          </g>
          <path id="Path_905" data-name="Path 905" d="M738.612,266.182c9.344,13.05-16.6,44.247-16.6,44.247s-19.073-12.973-33.591-12.741c-1.544-17.22-3.012-30.811-4.556-48.031-.695-8.185-1.467-16.448-1-24.633.618-11.66,3.707-23.166,7.027-34.518q3.822-13.2,8.34-26.178c1.158-3.32,2.471-6.873,5.792-9.112,3.012-2.008,7.1-2.548,10.965-2.239,13.282.849,17.22,15.753,19.614,26.564,6.95,31.506,18.224,60.232,10.116,95.522" transform="translate(-619.72 -138.523)" fill="#fff6ef"/>
          <path id="Path_906" data-name="Path 906" d="M648.246,258c-9.344,13.05,12.432,51.429,12.432,51.429s23.166-16.525,37.684-16.294c1.544-17.22,3.012-34.44,4.556-51.583.7-8.185,1.467-16.448,1-24.633-.618-11.66-3.707-23.166-7.027-34.518q-3.822-13.2-8.34-26.178c-1.158-3.32-2.471-6.873-5.792-9.112-3.012-2.008-7.1-2.548-10.965-2.239-13.282.849-17.22,15.753-19.614,26.564-6.95,31.506-18.224,60.232-10.116,95.522" transform="translate(-609.819 -136.678)" fill="#fff6ef"/>
          <g id="Group_796" data-name="Group 796" transform="translate(74.258 61.944)">
            <ellipse id="Ellipse_222" data-name="Ellipse 222" cx="3.398" cy="3.32" rx="3.398" ry="3.32" fill="#cec7c0"/>
            <ellipse id="Ellipse_223" data-name="Ellipse 223" cx="3.398" cy="3.32" rx="3.398" ry="3.32" transform="translate(0 13.282)" fill="#cec7c0"/>
            <ellipse id="Ellipse_224" data-name="Ellipse 224" cx="3.398" cy="3.32" rx="3.398" ry="3.32" transform="translate(0 26.641)" fill="#cec7c0"/>
            <ellipse id="Ellipse_225" data-name="Ellipse 225" cx="3.398" cy="3.32" rx="3.398" ry="3.32" transform="translate(0 39.923)" fill="#cec7c0"/>
            <ellipse id="Ellipse_226" data-name="Ellipse 226" cx="3.398" cy="3.32" rx="3.398" ry="3.32" transform="translate(0 53.205)" fill="#cec7c0"/>
          </g>
          <path id="Path_907" data-name="Path 907" d="M641.6,303.482c11.043,4.324,23.4,5.483,35.522,5.405s24.17-1.467,36.294-2.008c4.71-.232,9.575-.309,14.054-1.7a4.884,4.884,0,0,0,1.776-.927,3.692,3.692,0,0,0,.772-1.776,21.7,21.7,0,0,0-.85-10.425c-27.722,3.012-56.6,5.946-83.012-1.853" transform="translate(-610.354 -169.8)" fill="#474042"/>
          <path id="Path_908" data-name="Path 908" d="M671.208,156.536a15.039,15.039,0,0,0-1.853-2.008c-4.324-4.17-5.714-12.278-.618-16.448a8.245,8.245,0,0,1,4.247-1.853c4.17-.463,6.873,2.239,10.965,2.239a57.286,57.286,0,0,0,14.595-1.853c6.332-1.622,14.595-4.942,17.761,1.39a13.532,13.532,0,0,1,1,5.483c.154,4.324-.232,8.185,1.93,12.278,1.313,2.394,2.626,4.865,4.016,7.259-3.166,2.085-8.649-.695-12.51.695-3.784,1.39-3.012,5.405-1.081,8.108s4.479,5.869,2.317,8.572c-1.622,2.008-5.251,2.7-6.873,4.633-3.475,4.17,4.865,8.88,4.247,13.745-.386,2.857-4.479,5.174-8.417,4.788s-7.1-3.32-6.487-6.178c.154-.772.618-1.544.386-2.317-.386-1.544-2.857-2.317-5.019-2.317s-4.324.463-6.487.309c-3.938-.386-6.873-3.089-7.49-5.869-.7-3.4,1.776-5.251,2.471-8.185.541-2.548-.849-6.255-1.467-8.8C675.842,165.571,674.374,160.551,671.208,156.536Z" transform="translate(-615.792 -134.284)" fill="#efe7e0"/>
          <path id="Path_909" data-name="Path 909" d="M789.094,317.1c-5.406,9.112-5.946,19.923-6.718,29.962-.232,3.243-.541,6.409-.541,9.653,0,2.857,1,5.328,1.622,8.185a55.789,55.789,0,0,1,.618,18.61,3.047,3.047,0,0,1-.772,1.931,4.132,4.132,0,0,1-2.162.849,29.516,29.516,0,0,1-5.251.463,2.455,2.455,0,0,1-1.081-.154,1.811,1.811,0,0,1-.849-.849c-3.861-5.792-1.776-12.9-2.394-19.305-.695-6.409-.927-11.815-4.865-17.529" transform="translate(-638.851 -175.928)" fill="#143f6b"/>
          <path id="Path_910" data-name="Path 910" d="M766.7,334.352c.077,1.467.154,3.012-.849,4.17a9.32,9.32,0,0,1-2.162,1.622c-3.32,2.162-5.251,6.255-3.4,9.421,1.776,3.012,6.1,4.015,9.961,4.633,5.174.849,11.969.618,14.672-4.015,1.7-2.857,4.4-9.575-.232-11.506-1.081-.463-2.394-.541-3.32-1.158-1.158-.772-1.93-5.714-1.158-6.718" transform="translate(-637.226 -179.049)" fill="#ef7e22"/>
          <path id="Path_911" data-name="Path 911" d="M784.792,334.264a6.545,6.545,0,0,1-1.158-.541,3.966,3.966,0,0,0-2.78-.541,2.708,2.708,0,0,0-1.081.463,6.283,6.283,0,0,0-3.166-1.158,19.169,19.169,0,0,0-4.71.541c-1.544.309-2.625-1.467-3.784-1.931a4.648,4.648,0,0,0-5.406,1.467c-1.158,1.7,1.236,3.32,1.236,5.174a1.784,1.784,0,0,0,1.544,1.93c1,.077,1.622-.772,2.008-1.467a2.564,2.564,0,0,0,2.394,2.008,2.19,2.19,0,0,0,2.008-1.236,2.8,2.8,0,0,0,.232-1.776,1.311,1.311,0,0,0,.463.463,3.886,3.886,0,0,0,2.239.927,2.156,2.156,0,0,0,1.544-.618,1.322,1.322,0,0,0,.927,1.236,2.664,2.664,0,0,0,2.394-.463,1.2,1.2,0,0,0,.463.618,1.774,1.774,0,0,0,1.853-.077,1.366,1.366,0,0,0,.618-1.313c-.463.618.541,1.158,1.158,1.235a3.883,3.883,0,0,0,2.085-.618,2.951,2.951,0,0,0,1.467-1.236,2.906,2.906,0,0,0,.077-1.622,1.622,1.622,0,0,0-.541-1.081,2.011,2.011,0,0,0-1.158-.309A5.264,5.264,0,0,0,784.792,334.264Z" transform="translate(-637.869 -179.038)" fill="#efe7e0"/>
          <path id="Path_912" data-name="Path 912" d="M730.288,134.454c6.409.463,7.568,11.892,8.417,15.444s-1.544,2.934,2.162,5.714c2.471,1.931,7.722,1.776,10.811,3.089,12.046,5.019,13.128,23.089,15.83,32.819,2.625,9.421,4.788,18.919,6.95,28.417.618,2.7,1.235,5.328,1.853,8.031,2.934,12.973,3.467,12.513,3.552,14.687.175,4.476-25.8,10.772-24.177,4.44,6.332-24.788-3.005-27.389-12.967-50.555-4.942-11.583-19.228-27.491-15.135-40.078.7-2.085,1.931-4.015,2.78-6.023,2.085-5.174,1.235-11.043-2.394-16.139C727.894,134.3,730.288,134.454,730.288,134.454Z" transform="translate(-629.775 -134.287)" fill="#173f6d"/>
          <path id="Path_913" data-name="Path 913" d="M736.575,158.849c-3.861,5.792-2.934,12.973-1.313,19.46,4.556,18.07,14.209,34.9,18.842,52.973A101.211,101.211,0,0,1,746,302.247c-1.7,3.32-5.328,5.869-7.877,8.726.463-17.992.927-36.294-5.019-53.514-2.162-6.332-5.174-12.433-7.181-18.765-2.626-8.263-3.475-16.834-4.4-25.406l-2.78-26.873c-.618-6.178-1.236-12.587,1.236-18.379s9.035-10.734,16.062-9.961" transform="translate(-627.799 -139.685)" fill="#dfd8d2"/>
          <ellipse id="Ellipse_227" data-name="Ellipse 227" cx="4.247" cy="4.093" rx="4.247" ry="4.093" transform="matrix(0.767, -0.642, 0.642, 0.767, 93.517, 37.666)" fill="#928184"/>
          <ellipse id="Ellipse_228" data-name="Ellipse 228" cx="4.247" cy="4.093" rx="4.247" ry="4.093" transform="matrix(0.767, -0.642, 0.642, 0.767, 96.555, 57.73)" fill="#928184"/>
          <ellipse id="Ellipse_229" data-name="Ellipse 229" cx="4.247" cy="4.093" rx="4.247" ry="4.093" transform="matrix(0.767, -0.642, 0.642, 0.767, 100.924, 74.562)" fill="#928184"/>
          <ellipse id="Ellipse_230" data-name="Ellipse 230" cx="4.247" cy="4.093" rx="4.247" ry="4.093" transform="matrix(0.767, -0.642, 0.642, 0.767, 105.449, 93.007)" fill="#928184"/>
          <ellipse id="Ellipse_231" data-name="Ellipse 231" cx="4.247" cy="4.093" rx="4.247" ry="4.093" transform="matrix(0.767, -0.642, 0.642, 0.767, 108.984, 111.08)" fill="#928184"/>
          <ellipse id="Ellipse_232" data-name="Ellipse 232" cx="4.247" cy="4.093" rx="4.247" ry="4.093" transform="matrix(0.767, -0.642, 0.642, 0.767, 111.859, 129.302)" fill="#928184"/>
          <path id="Path_914" data-name="Path 914" d="M625.533,334.352c-.077,1.467-.154,3.012.849,4.17a9.32,9.32,0,0,0,2.162,1.622c3.32,2.162,5.251,6.255,3.4,9.421-1.776,3.012-6.1,4.015-9.961,4.633-5.174.849-11.969.618-14.672-4.015-1.7-2.857-4.4-9.575.232-11.506,1.081-.463,2.394-.541,3.32-1.158,1.158-.772,1.931-5.714,1.158-6.718" transform="translate(-602.009 -179.049)" fill="#ef7e22"/>
          <path id="Path_915" data-name="Path 915" d="M608.2,334.264a6.545,6.545,0,0,0,1.158-.541,3.966,3.966,0,0,1,2.78-.541,2.707,2.707,0,0,1,1.081.463,6.284,6.284,0,0,1,3.166-1.158,19.169,19.169,0,0,1,4.71.541c1.544.309,2.625-1.467,3.784-1.931a4.648,4.648,0,0,1,5.405,1.467c1.158,1.7-1.236,3.32-1.236,5.174a1.784,1.784,0,0,1-1.544,1.93c-1,.077-1.622-.772-2.008-1.467a2.564,2.564,0,0,1-2.394,2.008,2.19,2.19,0,0,1-2.008-1.236,2.8,2.8,0,0,1-.232-1.776,1.311,1.311,0,0,1-.463.463,3.886,3.886,0,0,1-2.24.927,2.156,2.156,0,0,1-1.544-.618,1.322,1.322,0,0,1-.927,1.236,2.664,2.664,0,0,1-2.394-.463,1.2,1.2,0,0,1-.463.618,1.774,1.774,0,0,1-1.853-.077,1.366,1.366,0,0,1-.618-1.313c.463.618-.54,1.158-1.158,1.235a3.883,3.883,0,0,1-2.085-.618,2.95,2.95,0,0,1-1.467-1.236,2.906,2.906,0,0,1-.077-1.622,1.622,1.622,0,0,1,.541-1.081,2.011,2.011,0,0,1,1.158-.309A5.265,5.265,0,0,1,608.2,334.264Z" transform="translate(-602.131 -179.038)" fill="#efe7e0"/>
          <path id="Path_916" data-name="Path 916" d="M653.618,134.454c-6.409.463-7.568,11.892-8.417,15.444s1.544,2.934-2.162,5.714c-2.471,1.931-7.722,1.776-10.811,3.089-12.046,5.019-13.128,23.089-15.83,32.819-2.625,9.421-4.788,18.919-6.95,28.417-.618,2.7-1.235,5.328-1.853,8.031-2.934,12.973-4.324,12.873-3.552,15.653.618,2.239,44.7,31.566,37.066-47.082,4.942-11.583,19.228-27.491,15.135-40.078-.695-2.085-1.93-4.015-2.78-6.023-2.085-5.174-1.236-11.043,2.394-16.139C655.935,134.3,653.618,134.454,653.618,134.454Z" transform="translate(-601.137 -134.287)" fill="#173f6d"/>
          <path id="Path_917" data-name="Path 917" d="M652.32,158.849c3.861,5.792,2.934,12.973,1.313,19.46-4.556,18.07-14.209,34.9-18.842,52.973a101.211,101.211,0,0,0,8.108,70.966c1.7,3.32,5.328,5.869,7.877,8.726-.463-17.992-.927-36.294,5.019-53.514,2.162-6.332,5.174-12.433,7.181-18.765,2.626-8.263,3.475-16.834,4.4-25.406l2.78-26.873c.618-6.178,1.235-12.587-1.236-18.379s-9.035-10.734-16.062-9.961" transform="translate(-608.101 -139.685)" fill="#dfd8d2"/>
          <ellipse id="Ellipse_233" data-name="Ellipse 233" cx="4.093" cy="4.247" rx="4.093" ry="4.247" transform="matrix(0.642, -0.767, 0.767, 0.642, 47.657, 38.514)" fill="#928184"/>
          <ellipse id="Ellipse_234" data-name="Ellipse 234" cx="4.093" cy="4.247" rx="4.093" ry="4.247" transform="matrix(0.642, -0.767, 0.767, 0.642, 44.68, 58.58)" fill="#928184"/>
          <ellipse id="Ellipse_235" data-name="Ellipse 235" cx="4.093" cy="4.247" rx="4.093" ry="4.247" transform="matrix(0.642, -0.767, 0.767, 0.642, 40.25, 75.444)" fill="#928184"/>
          <ellipse id="Ellipse_236" data-name="Ellipse 236" cx="4.093" cy="4.247" rx="4.093" ry="4.247" transform="matrix(0.642, -0.767, 0.767, 0.642, 35.819, 93.869)" fill="#928184"/>
          <ellipse id="Ellipse_237" data-name="Ellipse 237" cx="4.093" cy="4.247" rx="4.093" ry="4.247" transform="matrix(0.642, -0.767, 0.767, 0.642, 32.248, 111.952)" fill="#928184"/>
          <ellipse id="Ellipse_238" data-name="Ellipse 238" cx="4.093" cy="4.247" rx="4.093" ry="4.247" transform="matrix(0.642, -0.767, 0.767, 0.642, 29.407, 130.162)" fill="#928184"/>
          <g id="Group_797" data-name="Group 797" transform="translate(70.552 38.68)">
            <path id="Path_918" data-name="Path 918" d="M692.5,186.942a16.068,16.068,0,0,1,1.622-1.622,6.566,6.566,0,0,1,1.081-.7,2.789,2.789,0,0,1,1.39-.232,4.89,4.89,0,0,1,2.394,1,13.21,13.21,0,0,0,1.776,1,3.47,3.47,0,0,0,1.7.309,1.726,1.726,0,0,0,.772-.232c.232-.154.541-.309.849-.541a4.924,4.924,0,0,1,1.081-.618,7.226,7.226,0,0,1,1.235-.309,3.465,3.465,0,0,1,2.317.541,5.9,5.9,0,0,0-2.085.386,8.415,8.415,0,0,0-.849.463,2.949,2.949,0,0,0-.695.695,10.993,10.993,0,0,1-.927.849,2.8,2.8,0,0,1-1.313.541,5.149,5.149,0,0,1-2.7-.309,7.322,7.322,0,0,1-2.085-1.313,4.4,4.4,0,0,0-1.544-1,3.057,3.057,0,0,0-1.776.232C693.89,186.324,693.195,186.788,692.5,186.942Z" transform="translate(-692.5 -184.373)" fill="#c3bbaf"/>
          </g>
          <g id="Group_798" data-name="Group 798" transform="translate(64.528 19.221)">
            <path id="Path_919" data-name="Path 919" d="M684.7,163.055a4.863,4.863,0,0,1,2.239-3.012,6.685,6.685,0,0,1,1.853-.772,3.283,3.283,0,0,1,2.239.232,6.737,6.737,0,0,1,1.544,1.236l1.313,1.236a24.137,24.137,0,0,0,2.548,2.394,2.938,2.938,0,0,0,1.313.618,2.578,2.578,0,0,0,1.313.077c.463-.077.618-.232,1.081-.695l.772-.772a2.708,2.708,0,0,1,1.081-.463,12.386,12.386,0,0,1,3.861.232,2.624,2.624,0,0,0,1.544-.232,2.082,2.082,0,0,0,.618-.541,1.072,1.072,0,0,0,.155-.849,1.264,1.264,0,0,1,.154.927,2,2,0,0,1-.541.849,3.549,3.549,0,0,1-1.853.772c-1.313.154-2.548-.077-3.4.232-.463.154-.618.386-1,.849a3.64,3.64,0,0,1-.772.772,2.853,2.853,0,0,1-1.081.541,4.4,4.4,0,0,1-2.239,0,5.594,5.594,0,0,1-1.93-.927,11.858,11.858,0,0,1-1.467-1.313c-.463-.463-.849-.849-1.236-1.313l-1.236-1.313a8.125,8.125,0,0,0-1.158-1.158c-.618-.463-1.853-.309-2.934.077A5.874,5.874,0,0,0,684.7,163.055Z" transform="translate(-684.7 -159.175)" fill="#c3bbaf"/>
          </g>
          <g id="Group_799" data-name="Group 799" transform="translate(69.438 50.495)">
            <path id="Path_920" data-name="Path 920" d="M691.09,202.088a1.09,1.09,0,0,1,.077-.695,3.365,3.365,0,0,1,.463-.541,4.058,4.058,0,0,1,1.081-.849,2.425,2.425,0,0,1,1.544-.309,4.139,4.139,0,0,1,1.467.541,24.83,24.83,0,0,1,1.931,1.7,1.523,1.523,0,0,0,1.467.463,2.894,2.894,0,0,0,.772-.463l.463-.386a4.294,4.294,0,0,1,.618-.463,3.67,3.67,0,0,1,1.7-.463,2.516,2.516,0,0,1,1,.309,1.993,1.993,0,0,1,.7.695,3.91,3.91,0,0,1,.386,1.313,1.808,1.808,0,0,0,.386.772.675.675,0,0,0,.772.077,2.36,2.36,0,0,0,.772-.927,2.157,2.157,0,0,1-.386,1.313,1.293,1.293,0,0,1-1.544.386A2.41,2.41,0,0,1,703.6,203.4c-.232-.463-.309-.772-.463-1-.155-.154-.232-.154-.463-.154a1.748,1.748,0,0,0-.695.309,7.3,7.3,0,0,1-2.239,1.544,3.02,3.02,0,0,1-1.853-.077,4.288,4.288,0,0,1-1.313-.849,5.485,5.485,0,0,1-.927-1,4.042,4.042,0,0,0-.772-.849,1.868,1.868,0,0,0-1.776-.541,6.055,6.055,0,0,0-1.081.386,1.935,1.935,0,0,0-.541.309C691.245,201.7,691.09,201.856,691.09,202.088Z" transform="translate(-691.058 -199.674)" fill="#c3bbaf"/>
          </g>
        </g>
        <g id="Group_813" data-name="Group 813" transform="translate(57.684 3.523)">
          <path id="Path_921" data-name="Path 921" d="M742.777,109.554s-6.8-7.954-20.927-7.954c-24.865,0-34.595,24.479-36.911,31.583-2.317-7.1-12.046-31.583-36.911-31.583-14.131,0-20.927,7.954-20.927,7.954a68.162,68.162,0,0,1,9.884,1.622l-7.722,5.483s11.583-2.008,15.521-2.162a38.907,38.907,0,0,1,4.093.077c.541.154,1.081.386,1.7.618,12.047,4.4,27.336,12.433,34.054,19.074l-.232.927c.154-.232.386-.386.541-.618.155.232.386.386.541.618l-.232-.927c6.718-6.718,22.008-14.749,34.054-19.074a17.367,17.367,0,0,1,1.853-.618c1.081,0,2.008-.077,2.7,0,3.938.154,15.521,2.162,15.521,2.162l-7.413-5.251A61.15,61.15,0,0,1,742.777,109.554Z" transform="translate(-621.695 -26.666)" fill="#f6dda6" fill-rule="evenodd"/>
          <path id="Path_922" data-name="Path 922" d="M742.777,109.554S735.9,101.6,721.85,101.6c-24.865,0-34.595,24.479-36.911,31.583-2.317-7.1-12.046-31.583-36.911-31.583-14.131,0-20.927,7.954-20.927,7.954a68.162,68.162,0,0,1,9.884,1.622s-7.645,5.483-7.722,5.483c1-.695,2.857-.077,3.861-.927.232.232.154.386.154.695-.077.232.077.618.309.541a.27.27,0,0,0,.154-.077,16.187,16.187,0,0,1,1.313-1.081,1.572,1.572,0,0,1,.463,1.158,4.641,4.641,0,0,1,1-.695c.386-.077.927.309.695.618a9.967,9.967,0,0,1,3.166-2.008,20.77,20.77,0,0,1,4.4-.463,38.908,38.908,0,0,1,4.093.077c.541.154,1.081.386,1.7.618,12.046,4.4,27.336,12.433,34.054,19.074l-.232.927c.154-.232.386-.386.541-.618.154.232.386.386.541.618l-.232-.927c6.718-6.718,22.008-14.749,34.054-19.074a17.385,17.385,0,0,1,1.853-.618c1.081,0,2.008-.077,2.7,0,3.938.154,15.521,2.162,15.521,2.162-2.317-1.622-5.792-3.32-7.49-5.483.541-.386,3.552-.077,3.012.927a.914.914,0,0,0,.077-.772.927.927,0,0,1,.927.695c.154-1.622-.077-1.467,1.7-1.776.927-.154,1.93-.309,2.857-.463C740.692,109.708,742.545,109.322,742.777,109.554Z" transform="translate(-621.695 -26.666)" fill="#f6dda6" fill-rule="evenodd"/>
          <path id="Path_923" data-name="Path 923" d="M645.17,101.5c-14.131,0-18.07,7.954-18.07,7.954a68.164,68.164,0,0,1,9.884,1.622l1.544-.849a31.1,31.1,0,0,1,8.649-3.012c3.552-.618,12.664-2.008,12.664-2.008S647.1,101.5,645.17,101.5Z" transform="translate(-621.695 -26.644)" fill="#f6dda6" fill-rule="evenodd"/>
          <path id="Path_924" data-name="Path 924" d="M746.433,77.742c-.849-3.784-4.71-6.487-5.174-10.116a.982.982,0,0,1-.927,0,5.019,5.019,0,0,0,.849-1.7c-.618.077-1.236.077-1.931.154a10.306,10.306,0,0,1,.541-1.39c-2.548.232-7.413-3.4-8.8-6.332-3.552-7.722-4.247-16.68-2.7-25.251,1.931-10.193.541-20.927-.309-25.792a3.18,3.18,0,0,0-3.552-2.626C710.294,6.776,699.02,27.78,695.854,26.545c-.077,0-4.324-1.081-3.475-1.544a1.735,1.735,0,0,1-1.622-.077c-.849,1.081-1.544.772-2.78.695-1.7-.077-8.34.927-8.88-1.081-.7.309-1.313.695-2.008,1a.464.464,0,0,1-.309.077c-.386-.077-.232-.695-.541-.927-1.467,1.853-3.552,1-5.637,1.853-3.166,1.236-14.44-19.769-28.572-21.853a3.137,3.137,0,0,0-3.552,2.626c-.849,4.942-2.239,15.6-.309,25.792a44.173,44.173,0,0,1-2.7,25.251c-1.467,2.085-4.479,3.861-7.027,6.718-3.4,3.784-7.49,8.8-8.34,12.664a23.754,23.754,0,0,1,6.564-1.622c-2.317,5.483-4.015,10.888-4.015,15.29,0,0,10.734-8.108,23.784-8.108,21.931,0,24.865,30.271,36.757,30.271S697.938,83.3,719.946,83.3c13.05,0,23.784,8.108,23.784,8.108,0-4.324-1.7-9.807-4.016-15.29A24.923,24.923,0,0,1,746.433,77.742Z" transform="translate(-620.1 -4.585)" fill="#ef7e22" fill-rule="evenodd"/>
          <g id="Group_803" data-name="Group 803" transform="translate(63.089)">
            <g id="Group_801" data-name="Group 801" clip-path="url(#clip-path-2)">
              <path id="Path_925" data-name="Path 925" d="M753.592,49.291c.849-11.892,1.544-31.2.463-37.375-.077-.618-.386-1.622-.463-2.317,0,0-22.857,15.135-22.394,23.321Z" transform="translate(-708.495 -5.71)" fill="#f2cb75" fill-rule="evenodd"/>
            </g>
            <g id="Group_802" data-name="Group 802" clip-path="url(#clip-path-2)">
              <path id="Path_927" data-name="Path 927" d="M755.233,52.572c6.718-8.185,1.39-28.263,1.081-28.572,0,0-18.224,10.888-17.915,16.294Z" transform="translate(-710.136 -8.99)" fill="#f6dda6" fill-rule="evenodd"/>
            </g>
          </g>
          <circle id="Ellipse_239" data-name="Ellipse 239" cx="5.174" cy="5.174" r="5.174" transform="translate(34.209 50.918)" fill="#333"/>
          <g id="Group_805" data-name="Group 805" transform="translate(34.209 50.918)">
            <g id="Group_804" data-name="Group 804" transform="translate(0 0)" clip-path="url(#clip-path-4)">
              <circle id="Ellipse_240" data-name="Ellipse 240" cx="3.784" cy="3.784" r="3.784" transform="translate(-2.394 -2.394)" fill="#fff" opacity="0.5"/>
            </g>
          </g>
          <path id="Path_929" data-name="Path 929" d="M707.172,131.395a7.336,7.336,0,0,1-14.672,0C692.423,127.3,707.172,127.3,707.172,131.395Z" transform="translate(-636.592 -32.754)" fill="#333" fill-rule="evenodd"/>
          <circle id="Ellipse_242" data-name="Ellipse 242" cx="5.174" cy="5.174" r="5.174" transform="translate(81.854 50.918)" fill="#333"/>
          <g id="Group_807" data-name="Group 807" transform="translate(81.854 50.918)">
            <g id="Group_806" data-name="Group 806" transform="translate(0 0)" clip-path="url(#clip-path-4)">
              <circle id="Ellipse_243" data-name="Ellipse 243" cx="3.784" cy="3.784" r="3.784" transform="translate(-2.394 -2.394)" fill="#fff" opacity="0.5"/>
            </g>
          </g>
          <g id="Group_809" data-name="Group 809" transform="translate(73.051 42.038)">
            <circle id="Ellipse_245" data-name="Ellipse 245" cx="14.209" cy="14.209" r="14.209" fill="#f0eeed" opacity="0.4"/>
            <circle id="Ellipse_246" data-name="Ellipse 246" cx="14.209" cy="14.209" r="14.209" fill="none" stroke="#f2cb75" stroke-miterlimit="10" stroke-width="2.077"/>
            <g id="Group_808" data-name="Group 808" transform="translate(25.946 22.703)">
              <circle id="Ellipse_247" data-name="Ellipse 247" cx="1.236" cy="1.236" r="1.236" fill="#f2cb75"/>
              <circle id="Ellipse_248" data-name="Ellipse 248" cx="1.236" cy="1.236" r="1.236" transform="translate(1.544 2.008)" fill="#f2cb75"/>
              <circle id="Ellipse_249" data-name="Ellipse 249" cx="1.236" cy="1.236" r="1.236" transform="translate(2.857 4.17)" fill="#f2cb75"/>
              <circle id="Ellipse_250" data-name="Ellipse 250" cx="1.236" cy="1.236" r="1.236" transform="translate(4.015 6.487)" fill="#f2cb75"/>
              <circle id="Ellipse_251" data-name="Ellipse 251" cx="1.236" cy="1.236" r="1.236" transform="translate(4.788 8.803)" fill="#f2cb75"/>
              <circle id="Ellipse_252" data-name="Ellipse 252" cx="1.236" cy="1.236" r="1.236" transform="translate(4.633 11.274)" fill="#f2cb75"/>
              <circle id="Ellipse_253" data-name="Ellipse 253" cx="1.236" cy="1.236" r="1.236" transform="translate(4.402 13.745)" fill="#f2cb75"/>
              <circle id="Ellipse_254" data-name="Ellipse 254" cx="1.236" cy="1.236" r="1.236" transform="translate(4.633 16.216)" fill="#f2cb75"/>
              <circle id="Ellipse_255" data-name="Ellipse 255" cx="1.236" cy="1.236" r="1.236" transform="translate(6.409 18.07)" fill="#f2cb75"/>
              <circle id="Ellipse_256" data-name="Ellipse 256" cx="1.236" cy="1.236" r="1.236" transform="translate(7.954 20.077)" fill="#f2cb75"/>
              <circle id="Ellipse_257" data-name="Ellipse 257" cx="1.236" cy="1.236" r="1.236" transform="translate(7.722 22.548)" fill="#f2cb75"/>
            </g>
          </g>
          <path id="Path_930" data-name="Path 930" d="M638.524,58.349c-.7,3.938-.618,3.938-2.857,10.27-1.467,2.085-4.479,3.861-7.027,6.718-3.4,3.784-7.49,8.8-8.34,12.664a23.755,23.755,0,0,1,6.564-1.622c-2.317,5.483-4.016,10.888-4.016,15.29,0,0,10.425-8.031,23.784-8.108.386,0,1.622.077,1.622.077-2.471-.154-5.946-.386-8.185-1.467-2.857-1.467-3.321-7.182-3.089-10.193.232-3.4,1.622-6.564,3.089-9.653,1.931-4.17,3.861-8.34,5.869-12.51,1.467-3.166,4.17-6.8,4.865-10.116C646.478,51.553,642.385,55.492,638.524,58.349Z" transform="translate(-620.145 -14.844)" fill="#ef7e22" fill-rule="evenodd" opacity="0.6"/>
          <g id="Group_812" data-name="Group 812" transform="translate(3.552 0.077)">
            <g id="Group_810" data-name="Group 810" clip-path="url(#clip-path-6)">
              <path id="Path_931" data-name="Path 931" d="M642.722,49.5c-7.336-10.425-1.544-31.2-.463-37.375a2.668,2.668,0,0,1,.927-1.622s22.394,14.363,22.008,22.548Z" transform="translate(-627.973 -5.992)" fill="#f2cb75" fill-rule="evenodd"/>
            </g>
            <g id="Group_811" data-name="Group 811" clip-path="url(#clip-path-6)">
              <path id="Path_933" data-name="Path 933" d="M642.8,52.572c-6.718-8.185-1.39-28.263-1.081-28.572,0,0,18.224,10.888,17.915,16.294Z" transform="translate(-628.055 -9.067)" fill="#f6dda6" fill-rule="evenodd"/>
            </g>
          </g>
        </g>
      </g>
    </g>
    <circle id="Ellipse_312" data-name="Ellipse 312" cx="153.241" cy="153.241" r="153.241" transform="translate(1017 1897.366)" fill="none" stroke="#fff" stroke-width="10"/>
  </g>
</svg>
