<svg xmlns="http://www.w3.org/2000/svg" xmlns:xlink="http://www.w3.org/1999/xlink" width="413.41" height="416.389" viewBox="0 0 413.41 416.389">
  <defs>
    <clipPath id="clip-path">
      <ellipse id="Ellipse_211" data-name="Ellipse 211" cx="17.864" cy="17.864" rx="17.864" ry="17.864"/>
    </clipPath>
    <clipPath id="clip-path-2">
      <path id="Path_865" data-name="Path 865" d="M170.156,175.457a26.4,26.4,0,0,1-4.989,7.081,20.066,20.066,0,0,1-3.38,2.575c-.912.59-1.77,1.5-2.146.054-.376-1.287-.644-2.575-.912-3.862-.59-2.629-1.127-5.311-1.5-7.993-.59-4.4-1.931-8.959-.8-13.411,2.092,1.931,4.345,3.541,6.491,5.418,2.2,1.931,4.345,3.916,6.437,6.008a4.03,4.03,0,0,1,1.395,2.253A4.257,4.257,0,0,1,170.156,175.457Z" transform="translate(-155.986 -159.9)"/>
    </clipPath>
    <clipPath id="clip-path-3">
      <path id="Path_868" data-name="Path 868" d="M46.69,175.057a26.4,26.4,0,0,0,4.989,7.081,20.064,20.064,0,0,0,3.38,2.575c.912.59,1.77,1.5,2.146.054.376-1.287.644-2.575.912-3.862.59-2.629,1.127-5.311,1.5-7.993.59-4.4,1.931-8.959.8-13.411-2.092,1.931-4.345,3.541-6.491,5.418-2.2,1.931-4.345,3.916-6.437,6.008A4.03,4.03,0,0,0,46.1,173.18,4.257,4.257,0,0,0,46.69,175.057Z" transform="translate(-46.1 -159.5)"/>
    </clipPath>
    <clipPath id="clip-path-4">
      <rect id="Rectangle_518" data-name="Rectangle 518" width="142.965" height="127.471"/>
    </clipPath>
    <clipPath id="clip-path-5">
      <circle id="Ellipse_218" data-name="Ellipse 218" cx="3.477" cy="3.477" r="3.477"/>
    </clipPath>
    <clipPath id="clip-path-7">
      <rect id="Rectangle_520" data-name="Rectangle 520" width="163.261" height="145.568"/>
    </clipPath>
    <clipPath id="clip-path-8">
      <path id="Path_926" data-name="Path 926" d="M701.8,75.455c9.249,0,9.7-19.7,24.027-19.7a27.822,27.822,0,0,1,14.979,4.775c0-5.177-3.167-12.265-6.384-18.045a28.95,28.95,0,0,1-3.167-19.4,49.926,49.926,0,0,0-.2-16.789,2.07,2.07,0,0,0-2.312-1.709c-9.2,1.357-16.537,15.029-18.6,14.225" transform="translate(-701.8 -4.562)"/>
    </clipPath>
    <clipPath id="clip-path-10">
      <circle id="Ellipse_241" data-name="Ellipse 241" cx="3.368" cy="3.368" r="3.368"/>
    </clipPath>
    <clipPath id="clip-path-12">
      <path id="Path_932" data-name="Path 932" d="M655.362,18.906c-2.061.8-9.4-12.868-18.6-14.225a2.042,2.042,0,0,0-2.312,1.709,49.976,49.976,0,0,0-.2,16.789,29,29,0,0,1-3.167,19.4c-3.217,5.831-6.384,12.868-6.384,18.045a27.822,27.822,0,0,1,14.979-4.775c14.325,0,14.778,19.7,24.027,19.7" transform="translate(-624.7 -4.662)"/>
    </clipPath>
  </defs>
  <g id="Group_955" data-name="Group 955" transform="translate(-426 -1891.19)">
    <g id="Group_952" data-name="Group 952" transform="translate(440 1896.19)">
      <g id="Ellipse_287" data-name="Ellipse 287" transform="translate(21.995 3.943)" fill="#f2f2f2" stroke="#707070" stroke-width="1">
        <circle cx="89.464" cy="89.464" r="89.464" stroke="none"/>
        <circle cx="89.464" cy="89.464" r="88.964" fill="none"/>
      </g>
      <rect id="Rectangle_9" data-name="Rectangle 9" width="96.301" height="89.762" transform="translate(-14 19.21)" fill="#f3cd75"/>
      <ellipse id="Ellipse_203" data-name="Ellipse 203" cx="90.95" cy="90.951" rx="90.95" ry="90.951" transform="translate(21.4 0)" fill="#2eafbe" stroke="#fff" stroke-width="10"/>
      <g id="Group_785" data-name="Group 785" transform="translate(69.459 25.329)">
        <path id="Path_826" data-name="Path 826" d="M116.85,153.625l-10.085,9.817L93.3,153.625V135.6h23.55Z" transform="translate(-62.776 -62.851)" fill="#1b1b41" fill-rule="evenodd"/>
        <path id="Path_827" data-name="Path 827" d="M93.676,134.7a7.41,7.41,0,0,0,3.272,1.556,40.408,40.408,0,0,0,10.139,1.609,23.077,23.077,0,0,0,9.764-2.307v3.219s-7.4,1.556-11,1.5S93.3,138.455,93.3,138.455v-2.092a6.54,6.54,0,0,1,.751-1.234" transform="translate(-62.776 -62.434)" fill="#1b1b41" fill-rule="evenodd" opacity="0.31"/>
        <path id="Path_828" data-name="Path 828" d="M114.6,225.553h23.068c.322,0,.7-25.643.8-26.876.751-7.189,1.5-14.323,2.253-21.512.268-2.575.536-5.1.8-7.671.376-3.433,2.092-6.6-.912-10.3-2.414-3-9.442-8.744-13.733-7.618-1.448.376-12.231,16.523-12.231,16.523" transform="translate(-72.649 -70.189)" fill="#eb3725" fill-rule="evenodd"/>
        <path id="Path_829" data-name="Path 829" d="M85.029,75.64C35.782,75.64,51.071,0,57.455,0c2.682,0,5.418,4.184,6.813,6.008a127.939,127.939,0,0,1,7.564,10.944c.7,1.073,1.341,2.2,2.039,3.272.483.8,1.556,3.219,2.629,1.609.107.483.429.966.8.483.536.751,3.433.107,3.326-.912.215,1.5,2.9.751,3-.376a.88.88,0,0,1,.376.644c.322.858,3.326.215,3.058-.268.644,1.287,3.38,1.663,4.131.268-.107.268.215.536.483.536a1.064,1.064,0,0,0,.7-.322c.376,1.019,2.146.751,2.736.107a11.091,11.091,0,0,0,.8-1.341c.858-1.395,1.717-2.79,2.575-4.131a119.156,119.156,0,0,1,7.457-10.675C107.4,4.023,110.028,0,112.657,0c.912,0,1.77,1.395,2.2,2.039a10.258,10.258,0,0,1,1.234,2.414c.268.751-.161,1.5.107,2.253a10.641,10.641,0,0,1,.59,1.073c.161.7-.322,1.341-.215,2.039a3.587,3.587,0,0,0,.858,1.341,5.866,5.866,0,0,1,.966,3c.376,1.931.644,3.809.858,5.74a86.635,86.635,0,0,1,.644,12.929A75.486,75.486,0,0,1,118.45,46.3a46.722,46.722,0,0,1-4.345,12.5,31.88,31.88,0,0,1-7.94,9.978,30.053,30.053,0,0,1-12.285,5.9A40.321,40.321,0,0,1,85.029,75.64Z" transform="translate(-42.756 0.005)" fill="#1b1b41" fill-rule="evenodd"/>
        <path id="Path_830" data-name="Path 830" d="M75.752,74.563s-5.418-5.794-8.154-8.691a36.306,36.306,0,0,1-8.583-13.626C53.864,36.474,63.95,28.374,62.5,28,51.611,25.155,60.195-.434,57.566,0c-1.556.268-1.824.858-3.219,4.56-2.307,6.277-6.277,20.278-2.307,43.453,1.878,11,10.139,21.3,18.776,25.053A26.639,26.639,0,0,0,75.752,74.563Z" transform="translate(-42.867 0.01)" fill="#1b1b41" fill-rule="evenodd" opacity="0.31"/>
        <path id="Path_831" data-name="Path 831" d="M120.3,227.647h6.277V157.8l-6.277,9.817Z" transform="translate(-75.291 -73.142)" fill="#a01e22" fill-rule="evenodd"/>
        <path id="Path_832" data-name="Path 832" d="M141.2,224.819h6.33V154.543a26,26,0,0,0-2.629-1.609,12.28,12.28,0,0,0-3.487-1.234Z" transform="translate(-84.979 -70.314)" fill="#a01e22" fill-rule="evenodd"/>
        <ellipse id="Ellipse_204" data-name="Ellipse 204" cx="5.686" cy="5.686" rx="5.686" ry="5.686" transform="translate(50.856 36.645)" fill="#f0d663"/>
        <ellipse id="Ellipse_205" data-name="Ellipse 205" cx="4.184" cy="4.184" rx="4.184" ry="4.184" transform="translate(52.358 38.147)" fill="#1b1b41"/>
        <ellipse id="Ellipse_206" data-name="Ellipse 206" cx="5.686" cy="5.686" rx="5.686" ry="5.686" transform="translate(22.37 36.645)" fill="#f0d663"/>
        <ellipse id="Ellipse_207" data-name="Ellipse 207" cx="4.184" cy="4.184" rx="4.184" ry="4.184" transform="translate(23.872 38.147)" fill="#1b1b41"/>
        <path id="Path_833" data-name="Path 833" d="M98.2,112.576c0,1.5.966,4.131,5.257,4.131,3.97,0,4.345-4.506,4.345-4.506h0s.376,4.506,4.345,4.506c4.292,0,5.257-2.629,5.257-4.131" transform="translate(-65.047 -52.004)" fill="none" stroke="#fff" stroke-miterlimit="10" stroke-width="0.573"/>
        <path id="Path_834" data-name="Path 834" d="M111.465,97.4c-2.951,0-5.365.107-5.365,2.092,0,1.931,5.365,3.541,5.365,3.541s5.365-1.556,5.365-3.541S114.415,97.4,111.465,97.4Z" transform="translate(-68.709 -45.144)" fill="#e4a69f" fill-rule="evenodd"/>
        <path id="Path_835" data-name="Path 835" d="M108.36,99.492c0-1.824.751-2.039,3.487-2.092h-.483c-2.951,0-5.365.107-5.365,2.092,0,1.931,2.414,3.541,5.365,3.541h.483C109.111,102.818,108.36,101.316,108.36,99.492Z" transform="translate(-68.663 -45.144)" fill="#e0cfce"/>
        <path id="Path_836" data-name="Path 836" d="M61.279,8.1C59.241,8.046,55.7,32.24,55.7,32.24s7.3.268,9.281-.483c0,0-6.062-3.433-5.043-8.261C61.118,18.185,61.279,8.1,61.279,8.1Z" transform="translate(-45.346 -3.749)" fill="#e4a69f" fill-rule="evenodd" opacity="0.27"/>
        <g id="Group_769" data-name="Group 769" transform="translate(56.543 4.136)">
          <g id="Group_768" data-name="Group 768" transform="translate(0 0.054)" opacity="0.83">
            <path id="Path_837" data-name="Path 837" d="M141.8,26.2S152.69,7.854,154.782,7.8s5.579,24.141,5.579,24.141l-6.437-.215a11.556,11.556,0,0,1-5.74-1.717Z" transform="translate(-141.8 -7.8)" fill="#e4a69f" fill-rule="evenodd"/>
          </g>
          <path id="Path_838" data-name="Path 838" d="M162.423,7.7C164.462,7.646,168,31.84,168,31.84s-7.671.054-9.6-.751c0,0,7.4-1.663,5.365-8.047C162.155,17.946,162.423,7.7,162.423,7.7Z" transform="translate(-149.495 -7.7)" fill="#e4a69f" fill-rule="evenodd" opacity="0.27"/>
        </g>
        <g id="Group_771" data-name="Group 771" transform="translate(11.105 4.619)">
          <g id="Group_770" data-name="Group 770" transform="translate(0 0.054)" opacity="0.83">
            <path id="Path_839" data-name="Path 839" d="M75.232,26.242S63.216,8.646,61.177,8.7,57.1,33.162,57.1,33.162l6.437-.59a12.324,12.324,0,0,0,5.633-2.039Z" transform="translate(-57.1 -8.7)" fill="#e4a69f" fill-rule="evenodd"/>
          </g>
          <path id="Path_840" data-name="Path 840" d="M61.177,8.6C59.139,8.654,57.1,33.062,57.1,33.062s7.671-.429,9.549-1.341c0,0-7.457-1.18-5.847-7.671C62.089,18.793,61.177,8.6,61.177,8.6Z" transform="translate(-57.1 -8.6)" fill="#e4a69f" fill-rule="evenodd" opacity="0.27"/>
        </g>
        <ellipse id="Ellipse_208" data-name="Ellipse 208" cx="1.878" cy="1.878" rx="1.878" ry="1.878" transform="translate(23.282 37.933)" fill="#f0d663" opacity="0.5"/>
        <ellipse id="Ellipse_209" data-name="Ellipse 209" cx="1.878" cy="1.878" rx="1.878" ry="1.878" transform="translate(51.768 37.933)" fill="#f0d663" opacity="0.5"/>
        <path id="Path_841" data-name="Path 841" d="M167.358,105a6.921,6.921,0,0,1-.429-1.5,1.349,1.349,0,0,1,.054-.8.69.69,0,0,1,.7-.429,1.2,1.2,0,0,1,.7.322,4.294,4.294,0,0,1-.376-2.307.41.41,0,0,1,.107-.268.239.239,0,0,1,.268,0,3.525,3.525,0,0,1,.912.644,3.169,3.169,0,0,1-.215-1.395c0-.215,0-.268.107-.376.054-.054.483-.322.483-.322a1.5,1.5,0,0,1-.59-.966,5.737,5.737,0,0,1-.107-2.146c.054-.268.054-1.395.268-1.556-.858.858-1.395,4.023-1.824,4.882a19.34,19.34,0,0,0-1.395,2.79,13.917,13.917,0,0,0-.59,1.985c-.107.429-.966,2.414-1.127,3.111a6.953,6.953,0,0,1,1.5-1.609A1.593,1.593,0,0,1,167.358,105Z" transform="translate(-95.687 -43.521)" fill="#1b1b41" fill-rule="evenodd"/>
        <path id="Path_842" data-name="Path 842" d="M155.961,190.321l.215-3.97-3.433-13.68-.429-5.472c.107,1.395.054,2.843.161,4.238.161,2.253.483,4.506.536,6.813A87.2,87.2,0,0,0,154.03,190.7c.59,3.487,1.663,7.4-1.5,9.817-1.019.751-3.326.376-3.97,1.287-.107.107-.107.268-.161.429A1.993,1.993,0,0,0,149.47,204a4.412,4.412,0,0,0,2.039.322c1.287,0,2.736.215,3.272-1.395a9.4,9.4,0,0,0,.268-2.146c.215-3.541.644-7.028.966-10.515Z" transform="translate(-88.314 -77.499)" fill="#c9c32f" fill-rule="evenodd" opacity="0.43"/>
        <g id="Group_772" data-name="Group 772" transform="translate(54.343 46.248)">
          <path id="Path_843" data-name="Path 843" d="M137.7,95.105a73.531,73.531,0,0,1,7.51-3.487c2.575-1.019,5.15-1.931,7.832-2.736a67.594,67.594,0,0,1,8.047-1.931,53.147,53.147,0,0,1,8.261-.751.054.054,0,0,1,0,.107c-2.736.429-5.472.8-8.154,1.341s-5.365,1.073-8.047,1.77c-2.629.7-5.257,1.556-7.832,2.521a78.453,78.453,0,0,0-7.564,3.272c-.054-.054-.054-.054-.054-.107Z" transform="translate(-137.7 -86.2)" fill="#254c6f"/>
        </g>
        <g id="Group_773" data-name="Group 773" transform="translate(54.893 56.266)">
          <path id="Path_844" data-name="Path 844" d="M138.765,106.176a12.1,12.1,0,0,0,3.111-.429,29.954,29.954,0,0,1,3.165-.536,42.074,42.074,0,0,1,6.384-.322,35.185,35.185,0,0,1,6.33.7,15.4,15.4,0,0,1,3.058.912,8.813,8.813,0,0,1,2.682,1.717v.054h-.054a14.2,14.2,0,0,0-5.847-2.092,49.386,49.386,0,0,0-6.223-.8,41.578,41.578,0,0,0-6.33.107,28.962,28.962,0,0,0-3.111.429,10.4,10.4,0,0,1-3.165.268q-.08.08,0,0Z" transform="translate(-138.725 -104.875)" fill="#254c6f"/>
        </g>
        <g id="Group_774" data-name="Group 774" transform="translate(0 46.194)">
          <path id="Path_845" data-name="Path 845" d="M68.051,95.112a78.455,78.455,0,0,0-7.564-3.272c-2.575-.966-5.2-1.824-7.832-2.521s-5.365-1.234-8.047-1.77-5.418-.966-8.154-1.341a.054.054,0,0,1,0-.107,61.406,61.406,0,0,1,8.261.751,58.576,58.576,0,0,1,8.047,1.931c2.629.8,5.257,1.717,7.832,2.736a79.281,79.281,0,0,1,7.51,3.487c0,.054,0,.054-.054.107Z" transform="translate(-36.4 -86.1)" fill="#254c6f"/>
        </g>
        <g id="Group_775" data-name="Group 775" transform="translate(6.33 56.267)">
          <path id="Path_846" data-name="Path 846" d="M73.628,106.23c-2.2.107-4.345-.483-6.491-.644a43.554,43.554,0,0,0-6.491-.161,50.631,50.631,0,0,0-6.384.8,14.894,14.894,0,0,0-6.008,2.092H48.2v-.054a7.983,7.983,0,0,1,2.79-1.77,16.4,16.4,0,0,1,3.165-.912,33.374,33.374,0,0,1,6.491-.7,38.279,38.279,0,0,1,6.545.376,51.649,51.649,0,0,0,6.437.912v.054Z" transform="translate(-48.2 -104.875)" fill="#254c6f"/>
        </g>
        <g id="Group_776" data-name="Group 776" transform="translate(54.772 52.417)">
          <path id="Path_847" data-name="Path 847" d="M138.554,101.777a38.081,38.081,0,0,1,7.51-2.36,76.727,76.727,0,0,1,7.832-1.234,77.768,77.768,0,0,1,7.886-.483,48.372,48.372,0,0,1,7.886.644s.054,0,0,.054a.053.053,0,0,1-.054.054c-2.629-.107-5.257-.107-7.886-.054s-5.257.107-7.886.322a75.222,75.222,0,0,0-7.779,1.019,36.9,36.9,0,0,0-7.564,2.146c.054-.054.054-.054.054-.107Z" transform="translate(-138.5 -97.7)" fill="#254c6f"/>
        </g>
        <g id="Group_777" data-name="Group 777" transform="translate(4.681 50.915)">
          <path id="Path_848" data-name="Path 848" d="M45.165,94.9c2.2.322,4.4.644,6.652,1.019q3.3.563,6.6,1.288c2.2.429,4.4.858,6.6,1.341,1.073.268,2.2.483,3.272.8a15.71,15.71,0,0,1,3.165,1.073v.054H71.4a13.037,13.037,0,0,0-3.219-.912c-1.073-.215-2.2-.429-3.272-.644-2.2-.429-4.4-.8-6.6-1.18s-4.4-.7-6.6-1.127c-2.2-.483-4.4-.912-6.545-1.609-.054-.054-.054-.054,0-.107Z" transform="translate(-45.125 -94.9)" fill="#254c6f"/>
        </g>
        <path id="Path_849" data-name="Path 849" d="M90.614,225.553H67.547c-.322,0-.7-25.643-.8-26.876-.751-7.189-1.5-14.323-2.253-21.512-.268-2.575-.536-5.1-.8-7.671-.376-3.433-2.092-6.6.912-10.3,2.414-3,9.442-8.744,13.733-7.618,1.448.376,12.231,16.523,12.231,16.523" transform="translate(-48.664 -70.189)" fill="#eb3725" fill-rule="evenodd"/>
        <path id="Path_850" data-name="Path 850" d="M103.477,227.647H97.2V157.8l6.277,9.817Z" transform="translate(-64.583 -73.142)" fill="#a01e22" fill-rule="evenodd"/>
        <path id="Path_851" data-name="Path 851" d="M82.53,224.819H76.2V154.543a26,26,0,0,1,2.629-1.609,12.28,12.28,0,0,1,3.487-1.234Z" transform="translate(-54.849 -70.314)" fill="#a01e22" fill-rule="evenodd"/>
        <path id="Path_852" data-name="Path 852" d="M73.678,241.5h0c.268,1.985.215,2.146-1.663,2.575a9.169,9.169,0,0,1-4.667-.054,2.4,2.4,0,0,1-1.073-.644c-.536-.644-.7-3.272-.161-3.916.7-.858,4.184-.054,5.311.054a2.531,2.531,0,0,1,1.77.59A2.3,2.3,0,0,1,73.678,241.5Z" transform="translate(-50.02 -110.814)" fill="#c9c32f" fill-rule="evenodd" opacity="0.43"/>
        <path id="Path_853" data-name="Path 853" d="M66.515,189.831l-.215-3.862,3.433-13.358.429-5.311c-.107,1.395-.054,2.79-.161,4.131-.161,2.2-.483,4.4-.536,6.652a84.121,84.121,0,0,1-1.019,12.178c-.59,3.433-1.663,7.242,1.5,9.6,1.019.751,3.326.376,3.97,1.287.107.107.107.268.161.429a1.911,1.911,0,0,1-1.073,1.717,4.412,4.412,0,0,1-2.039.322c-1.287,0-2.736.215-3.272-1.341a8.94,8.94,0,0,1-.268-2.092c-.215-3.433-.644-6.867-.966-10.246Z" transform="translate(-50.26 -77.545)" fill="#c9c32f" fill-rule="evenodd" opacity="0.43"/>
        <g id="Group_778" data-name="Group 778" transform="translate(27.408 80.99)">
          <path id="Path_854" data-name="Path 854" d="M90.232,151.3c-.429-.536-.912-.322-1.824-.161-2.092.376,0,.429.376,1.019l12.231,16.523a1.178,1.178,0,0,0,1.019.483h-.054a1.524,1.524,0,0,0,1.019-.483l12.231-16.523c.429-.536,2.468-.644.376-1.019-.858-.161-1.395-.376-1.824.161l-11.266,14.86a.7.7,0,0,1-1.127,0Z" transform="translate(-87.491 -150.962)" fill="#fbba17"/>
        </g>
        <ellipse id="Ellipse_210" data-name="Ellipse 210" cx="17.864" cy="17.864" rx="17.864" ry="17.864" transform="translate(23.658 106.385)" fill="#fff"/>
        <g id="Group_780" data-name="Group 780" transform="translate(23.658 106.385)">
          <g id="Group_779" data-name="Group 779" clip-path="url(#clip-path)">
            <path id="Path_855" data-name="Path 855" d="M125.251,223.992l4.614-2.468a.838.838,0,0,1,1.019.215l3.862,4.882a.826.826,0,0,1,.107.858l-2.629,5.365a.829.829,0,0,1-.858.429l-5.257-.966a.741.741,0,0,1-.644-.7l-.59-6.813A.69.69,0,0,1,125.251,223.992Z" transform="translate(-101.057 -209.025)" fill="#0e1010"/>
            <path id="Path_856" data-name="Path 856" d="M94.678,208.872l4.131-.376a1.326,1.326,0,0,1,1.395,1.073l.858,4.774a1.307,1.307,0,0,1-.59,1.341l-4.828,2.951a1.2,1.2,0,0,1-1.448-.107l-3.219-2.575a1.26,1.26,0,0,1-.268-1.717l3.058-4.774A1.127,1.127,0,0,1,94.678,208.872Z" transform="translate(-85.129 -203.024)" fill="#0e1010"/>
            <path id="Path_857" data-name="Path 857" d="M97.488,244.122l5.9,2.682a1.06,1.06,0,0,1,.644.966v3.916a1.051,1.051,0,0,1-.912,1.073A16.273,16.273,0,0,1,97.6,252.6c-2.039-.536-3.594-3.111-4.292-4.4a1.141,1.141,0,0,1,.215-1.287l2.843-2.629A1.063,1.063,0,0,1,97.488,244.122Z" transform="translate(-86.383 -219.498)" fill="#0e1010"/>
            <path id="Path_858" data-name="Path 858" d="M124.7,258.269V257.3s6.438-2.951,6.491-3.97l2.736-1.234-2.253,3.058-6.223,3.648Z" transform="translate(-100.989 -223.239)" fill="#0e1010"/>
            <path id="Path_859" data-name="Path 859" d="M119.094,198.518l.376,1.5c.054.161.107.268.268.322A65.3,65.3,0,0,1,126.6,203.4a.441.441,0,0,0,.376.054,10.459,10.459,0,0,1,2.039-.268c.858,0-2.521-3.272-4.238-3.862-1.287-.429-3.862-1.073-5.15-1.341A.444.444,0,0,0,119.094,198.518Z" transform="translate(-98.387 -198.143)" fill="#0e1010"/>
            <path id="Path_860" data-name="Path 860" d="M80.618,226l.536,1.18s.161,6.008.59,6.706l.429.7-.751,1.556s-1.878-6.384-1.824-7.4A8.782,8.782,0,0,1,80.618,226Z" transform="translate(-80.082 -211.14)" fill="#0e1010"/>
          </g>
        </g>
        <path id="Path_861" data-name="Path 861" d="M148.437,190.729a5.8,5.8,0,0,1,1.609-.858c1.77-.751,1.985,1.5,2.307,2.736a75.385,75.385,0,0,1,1.663,8.422,26.809,26.809,0,0,1-.858,11.1c-2.039,6.6-8.208,9.5-14.645,10.139a40.842,40.842,0,0,1-9.227-.161c-1.287-.161-2.521-.429-3.755-.59-1.717-.215-3.648.429-4.989-1.019a6.188,6.188,0,0,1-1.395-3.862,6.722,6.722,0,0,1,.268-3.111,3.415,3.415,0,0,1,2.092-2.2c2.146-.7,4.131,1.287,6.223,1.448,4.614.268,12.768.268,16.362-3.219,2.146-2.092.536-8.476-.429-11a4.487,4.487,0,0,1-.429-1.663,4.964,4.964,0,0,1,.536-1.985C144.843,192.553,146.4,192.177,148.437,190.729Z" transform="translate(-74.728 -87.938)" fill="#1b1b41" fill-rule="evenodd"/>
        <path id="Path_862" data-name="Path 862" d="M51.465,186.229a5.8,5.8,0,0,0-1.609-.858c-1.77-.751-1.985,1.5-2.307,2.736a32.566,32.566,0,0,0-1.127,5.526c-.429,3.7-.215,12.875.912,16.416,2.039,6.6,8.208,9.5,14.645,10.139a40.845,40.845,0,0,0,9.227-.161c1.287-.161,2.521-.429,3.755-.59,1.717-.215,3.648.429,4.989-1.019a6.188,6.188,0,0,0,1.395-3.862,6.722,6.722,0,0,0-.268-3.111,3.415,3.415,0,0,0-2.092-2.2c-2.146-.7-4.131,1.288-6.223,1.448-4.614.268-12.768.268-16.362-3.219-2.146-2.092-1.234-9.066-.268-11.587a4.487,4.487,0,0,0,.429-1.663,4.964,4.964,0,0,0-.536-1.985A14.266,14.266,0,0,0,51.465,186.229Z" transform="translate(-40.951 -85.852)" fill="#1b1b41" fill-rule="evenodd"/>
        <g id="Group_782" data-name="Group 782" transform="translate(64.153 85.785)">
          <path id="Path_863" data-name="Path 863" d="M170.156,175.457a26.4,26.4,0,0,1-4.989,7.081,20.066,20.066,0,0,1-3.38,2.575c-.912.59-1.77,1.5-2.146.054-.376-1.287-.644-2.575-.912-3.862-.59-2.629-1.127-5.311-1.5-7.993-.59-4.4-1.931-8.959-.8-13.411,2.092,1.931,4.345,3.541,6.491,5.418,2.2,1.931,4.345,3.916,6.437,6.008a4.03,4.03,0,0,1,1.395,2.253A4.257,4.257,0,0,1,170.156,175.457Z" transform="translate(-155.986 -159.9)" fill="#eb3725"/>
          <g id="Group_781" data-name="Group 781" clip-path="url(#clip-path-2)">
            <path id="Path_864" data-name="Path 864" d="M164.275,177.332l4.077-4.828L149.362,157a22.6,22.6,0,0,0-2.9.966,11.738,11.738,0,0,0-3.165,1.824Z" transform="translate(-150.106 -158.556)" fill="#a01e22" fill-rule="evenodd"/>
          </g>
        </g>
        <g id="Group_784" data-name="Group 784" transform="translate(5.204 85.57)">
          <path id="Path_866" data-name="Path 866" d="M46.69,175.057a26.4,26.4,0,0,0,4.989,7.081,20.064,20.064,0,0,0,3.38,2.575c.912.59,1.77,1.5,2.146.054.376-1.287.644-2.575.912-3.862.59-2.629,1.127-5.311,1.5-7.993.59-4.4,1.931-8.959.8-13.411-2.092,1.931-4.345,3.541-6.491,5.418-2.2,1.931-4.345,3.916-6.437,6.008A4.03,4.03,0,0,0,46.1,173.18,4.257,4.257,0,0,0,46.69,175.057Z" transform="translate(-46.1 -159.5)" fill="#eb3725"/>
          <g id="Group_783" data-name="Group 783" clip-path="url(#clip-path-3)">
            <path id="Path_867" data-name="Path 867" d="M43.677,176.932,39.6,172.1l18.991-15.5a22.6,22.6,0,0,1,2.9.966,11.738,11.738,0,0,1,3.165,1.824Z" transform="translate(-43.087 -158.156)" fill="#a01e22" fill-rule="evenodd"/>
          </g>
        </g>
      </g>
      <ellipse id="Ellipse_310" data-name="Ellipse 310" cx="90.95" cy="90.951" rx="90.95" ry="90.951" transform="translate(21.4 0)" fill="none" stroke="#fff" stroke-width="10"/>
    </g>
    <g id="Group_953" data-name="Group 953" transform="translate(667.446 1973.012)">
      <rect id="Rectangle_10" data-name="Rectangle 10" width="89.26" height="81.191" transform="translate(82.704)" fill="#cbc530"/>
      <circle id="Ellipse_258" data-name="Ellipse 258" cx="77.538" cy="77.538" r="77.538" transform="translate(0 17.331)" fill="#f3cd75" stroke="#fff" stroke-width="10"/>
      <g id="Group_793" data-name="Group 793" transform="translate(7.202 42.593)">
        <g id="Group_792" data-name="Group 792" clip-path="url(#clip-path-4)">
          <path id="Path_869" data-name="Path 869" d="M383.019,262.58c-6.911,15.406-7.967,34.509-7.131,50.487.968,18.179,6.382,52.335,6.382,52.335h2.773l4.886-87.724S383.944,260.511,383.019,262.58Z" transform="translate(-321.133 -146.905)" fill="#d9837e" fill-rule="evenodd"/>
          <path id="Path_870" data-name="Path 870" d="M371.85,494.976a11.685,11.685,0,0,1-3.037,0,19.733,19.733,0,0,0-8.451,1.189c-.572.22-1.188.528-1.276,1.144a1.48,1.48,0,0,0,.836,1.365,9.591,9.591,0,0,0,5.546,1.277,65.775,65.775,0,0,0,8.319-.352,2.958,2.958,0,0,0,2.113-.836c.616-.748.352-1.8.132-2.729a1.844,1.844,0,0,0-.484-.968,1.863,1.863,0,0,0-1.1-.264c-.968,0-1.981.044-2.949.132" transform="translate(-311.856 -277.008)" fill="#eddedc" fill-rule="evenodd"/>
          <line id="Line_22" data-name="Line 22" x2="2.157" y2="1.761" transform="translate(56.913 217.924)" fill="none" stroke="#8d8a8b" stroke-miterlimit="10" stroke-width="1.768"/>
          <line id="Line_23" data-name="Line 23" x2="2.157" y2="1.761" transform="translate(54.712 217.924)" fill="none" stroke="#8d8a8b" stroke-miterlimit="10" stroke-width="1.768"/>
          <path id="Path_871" data-name="Path 871" d="M380.8,435.444a2.252,2.252,0,0,0-.616,1.893,4.174,4.174,0,0,0,.264.88c.4,1.012.836,2.069,1.232,3.081-.7-.044-1.232,1.585-1.144,2.993a5.043,5.043,0,0,0,1.364,3.125,3.964,3.964,0,0,0-.88,2.905,3.277,3.277,0,0,0,1.1,2.6,4.683,4.683,0,0,0-.748,1.144,2.993,2.993,0,0,0-.088,1.761c.176.616.66.88.748,1.585a2.813,2.813,0,0,0-.176,2.421,2.764,2.764,0,0,0,1.188,1.409,6.781,6.781,0,0,0,5.546.88,1.179,1.179,0,0,0,.924-1.056,2.576,2.576,0,0,0-.88-2.289,3.293,3.293,0,0,0,1.144-3.653,2.01,2.01,0,0,1-.22-.616c-.088-.792.616-.924.792-1.673a2.024,2.024,0,0,0-.484-1.717,1.227,1.227,0,0,1-.352-.836,1.3,1.3,0,0,1,.22-.572,4.757,4.757,0,0,0,.616-2.465c-.044-.968-.528-1.849-.968-1.541a11.9,11.9,0,0,0,.528-3.125c-.044-1.1-.528-2.245-1.056-2.069a5.4,5.4,0,0,0,.66-2.2c.044-.88-.44-1.8-.836-1.409a1.712,1.712,0,0,0,.528-1.5.68.68,0,0,0-.616-.572,18.894,18.894,0,0,0-6.294.308A3.484,3.484,0,0,0,380.8,435.444Z" transform="translate(-323.664 -243.357)" fill="#35acbc" fill-rule="evenodd"/>
          <path id="Path_872" data-name="Path 872" d="M423.811,262.58c6.911,15.406,7.967,34.509,7.131,50.487-.968,18.179-6.382,52.335-6.382,52.335h-2.773L416.9,277.678S422.886,260.511,423.811,262.58Z" transform="translate(-344.229 -146.905)" fill="#d9837e" fill-rule="evenodd"/>
          <path id="Path_873" data-name="Path 873" d="M288.893,175.193a16.132,16.132,0,0,1,3.345-2.025,7.14,7.14,0,0,1,7.879-.22c3.3,1.585,4.754,4.8,7.571,6.646,3.125,2.025,7.219.22,10.344-1.188,3.389-1.541,6.558-3.565,10.036-4.842a15.83,15.83,0,0,0,3.037-2.245c.616-.572-.088,2.905.4,3.653,3.389,5.414,5.282,10.96,4.886,17.3-.352,5.37-1.188,10.74-1.541,16.11.088-1.232-.7-3.125-1.056-2.2-.484,1.409-1.056,3.917-3.213,3.785-2.025-.264-1.761-6.822-2.025-8.319.308,1.8.088,5.766-1.012,7.307-.792,1.1-1.673.308-2.377-.528-.352-.4-3.433-5.546-2.993-5.81-.924.616-1.1,4.358-2.861,2.289-1.364-1.629-1.937-3.653-2.773-5.59a.791.791,0,0,0-.264-.4c-.308-.264-.792-.044-1.012.264a7.894,7.894,0,0,0-.528,1.056c-2.113,3.565-5.942-7.043-6.47-8.143a7.131,7.131,0,0,1,.264,3.477c-.264,2.421-3.213-1.673-3.7-2.421a24.4,24.4,0,0,1-2.817-5.678,12.8,12.8,0,0,1,.7,3.653c.044.616-.132,1.673-1.012,1.409-.352-.088-.572-.44-.836-.792a46.825,46.825,0,0,1-4.666-9.111c.176,1.673.4,3.345.44,5.018.088,2.2-1.717,1.541-2.553.264a17.2,17.2,0,0,1-1.761-3.477c-.176-.484-1.232-2.905-.924-3.345-.748,1.144-3.785,4.358-5.414,2.729-.968-.968,1.188-6.823,1.981-7.7A6.109,6.109,0,0,1,288.893,175.193Z" transform="translate(-270.802 -95.876)" fill="#d9837e" fill-rule="evenodd"/>
          <path id="Path_874" data-name="Path 874" d="M467.684,131.786a19.019,19.019,0,0,0-3.873-.132,8.881,8.881,0,0,0-4.666,1.188,8.594,8.594,0,0,0-2.245,2.465c-2.069,2.993-1.717,6.514-3.257,9.508-1.717,3.3-6.162,3.785-9.6,4.049-3.7.308-7.439.176-11.136.792a16.8,16.8,0,0,1-3.741-.44c-.836-.22,1.5,2.509,1.453,3.345a30.886,30.886,0,0,0,2.289,13.689c1.761,4.005,2.333,7.351,3.213,11.664a11.925,11.925,0,0,0,2.729,6.162,4.315,4.315,0,0,0,2.113,1.32,2.715,2.715,0,0,0,2.377-.528c1.056-1.012.792-2.641.7-3.917,1.277.836,2.993,2.773,4.666,1.541,1.629-1.232-1.849-6.778-2.377-8.231.616,1.761,2.773,5.062,4.49,5.854,1.232.572,1.629-.572,1.8-1.629.088-.528.22-6.514-.264-6.514,1.1.044,3.125,3.213,3.609.572.4-2.113-.132-4.138-.352-6.25a.915.915,0,0,1,.044-.484c.132-.352.66-.44,1.012-.308a4.711,4.711,0,0,1,.968.66c3.609,2.069,1.673-9.067,1.585-10.3a6.889,6.889,0,0,0,1.5,3.125c1.453,1.981,1.937-3.037,2.025-3.961a25.1,25.1,0,0,0-.352-6.294,12.32,12.32,0,0,0,1.189,3.521c.264.528.968,1.409,1.585.748a1.8,1.8,0,0,0,.308-1.1,46.607,46.607,0,0,0-.44-10.212c.66,1.541,1.32,3.125,2.113,4.622,1.012,1.937,2.245.484,2.377-1.056a16.711,16.711,0,0,0-.176-3.917c-.088-.484-.352-3.125-.88-3.345,1.232.616,5.458,1.893,6.03-.264.352-1.321-4.4-5.326-5.546-5.722C468.52,131.962,468.124,131.83,467.684,131.786Z" transform="translate(-350.997 -73.685)" fill="#d9837e" fill-rule="evenodd"/>
          <path id="Path_875" data-name="Path 875" d="M388.34,12.545a24.156,24.156,0,0,1,12.941.924A9.245,9.245,0,0,0,396.7,0a9.218,9.218,0,0,1,1.717,5.414,9.42,9.42,0,0,1-1.276,4.71,9.308,9.308,0,0,0-5.942-8.5,9.218,9.218,0,0,1,1.717,5.414,9.349,9.349,0,0,1-.748,3.653,9.378,9.378,0,0,0-5.37-5.458,9.218,9.218,0,0,1,1.717,5.414A6.9,6.9,0,0,1,388.34,12.545Z" transform="translate(-327.378)" fill="#e4ecad" fill-rule="evenodd"/>
          <path id="Path_876" data-name="Path 876" d="M393.6,143.256l4.446-21.656h6.426l5.414,21.656c-.44,5.194-4.974,8.451-8.1,8.407C398.706,151.663,393.864,148.142,393.6,143.256Z" transform="translate(-331.185 -68.076)" fill="#d9837e" fill-rule="evenodd"/>
          <path id="Path_877" data-name="Path 877" d="M393.641,13.745a24.156,24.156,0,0,1,12.941.924A9.245,9.245,0,0,0,402,1.2a9.217,9.217,0,0,1,1.717,5.414,9.421,9.421,0,0,1-1.276,4.71,9.308,9.308,0,0,0-5.942-8.5,9.218,9.218,0,0,1,1.717,5.414,9.351,9.351,0,0,1-.748,3.653,9.378,9.378,0,0,0-5.37-5.458,9.218,9.218,0,0,1,1.717,5.414A6.906,6.906,0,0,1,393.641,13.745Z" transform="translate(-330.345 -0.672)" fill="#35acbc" fill-rule="evenodd"/>
          <path id="Path_878" data-name="Path 878" d="M404.1,47.459C404.1,55.646,391.509,85,385.7,85c-5.5,0-18.4-31.78-18.4-40.495,0-15.186,3.565-14.613,18.4-14.613S404.1,32.273,404.1,47.459Z" transform="translate(-316.461 -16.736)" fill="#d9837e" opacity="0.75"/>
          <path id="Path_879" data-name="Path 879" d="M402.183,47.258c0,14.393-20.159,30.063-25.441,30.063-4.842,0-25.441-15.626-25.441-30.063S362.7,21.2,376.741,21.2,402.183,32.864,402.183,47.258Z" transform="translate(-307.504 -11.869)" fill="#d9837e"/>
          <path id="Path_880" data-name="Path 880" d="M376.741,77.781c-4.842,0-25.441-15.626-25.441-30.063a26.621,26.621,0,0,1,11.136-21.568c3.345-2.421,9.507-4.049,9.507-4.049s-2.421,1.144-5.15,2.817A22.939,22.939,0,0,0,355.35,45.032c0,10.168,6.47,17.739,11.488,23.02,5.546,5.854,7.087,9.2,9.287,9.552.044,0,.836.132.836.132A.9.9,0,0,1,376.741,77.781Z" transform="translate(-307.504 -12.372)" fill="#d9837e" opacity="0.5"/>
          <circle id="Ellipse_214" data-name="Ellipse 214" cx="4.71" cy="4.71" r="4.71" transform="translate(57.045 26.542)" fill="#fff"/>
          <circle id="Ellipse_215" data-name="Ellipse 215" cx="4.71" cy="4.71" r="4.71" transform="translate(80.109 24.517)" fill="#fff"/>
          <circle id="Ellipse_216" data-name="Ellipse 216" cx="3.477" cy="3.477" r="3.477" transform="translate(58.365 27.774)" fill="#333"/>
          <g id="Group_787" data-name="Group 787" transform="translate(58.365 27.774)">
            <g id="Group_786" data-name="Group 786" transform="translate(0 0)" clip-path="url(#clip-path-5)">
              <circle id="Ellipse_217" data-name="Ellipse 217" cx="2.553" cy="2.553" r="2.553" transform="translate(-1.629 -1.629)" fill="#fff" opacity="0.5"/>
            </g>
          </g>
          <circle id="Ellipse_219" data-name="Ellipse 219" cx="3.477" cy="3.477" r="3.477" transform="translate(81.342 25.749)" fill="#333"/>
          <g id="Group_789" data-name="Group 789" transform="translate(81.342 25.749)">
            <g id="Group_788" data-name="Group 788" transform="translate(0 0)" clip-path="url(#clip-path-5)">
              <circle id="Ellipse_220" data-name="Ellipse 220" cx="2.553" cy="2.553" r="2.553" transform="translate(-1.629 -1.629)" fill="#fff" opacity="0.5"/>
            </g>
          </g>
          <path id="Path_881" data-name="Path 881" d="M391.541,16.645a24.156,24.156,0,0,1,12.941.924A9.245,9.245,0,0,0,399.9,4.1a9.217,9.217,0,0,1,1.717,5.414,9.42,9.42,0,0,1-1.276,4.71,9.308,9.308,0,0,0-5.942-8.5,9.218,9.218,0,0,1,1.717,5.414,9.349,9.349,0,0,1-.748,3.653A9.378,9.378,0,0,0,390,9.338a9.218,9.218,0,0,1,1.717,5.414A7.224,7.224,0,0,1,391.541,16.645Z" transform="translate(-329.17 -2.295)" fill="#d9837e" fill-rule="evenodd"/>
          <path id="Path_882" data-name="Path 882" d="M454.854,78.408a1.569,1.569,0,0,1,.528-2.509l.264-.132a4.472,4.472,0,0,1,2.289-.308,3.4,3.4,0,0,1,1.144.308,1.172,1.172,0,0,1,.484,1.32,2.128,2.128,0,0,1-1.1,1.144,5.606,5.606,0,0,1-1.673.484,3.558,3.558,0,0,1-1.364,0A1.052,1.052,0,0,1,454.854,78.408Z" transform="translate(-365.237 -42.227)" fill="#e7b4b1"/>
          <path id="Path_883" data-name="Path 883" d="M378.859,92.165a2.789,2.789,0,0,1,.7-4.049c.132-.088.22-.132.352-.22a5.512,5.512,0,0,1,3.037-.528,2.573,2.573,0,0,1,1.5.528,2.188,2.188,0,0,1,.66,2.157,3.374,3.374,0,0,1-1.453,1.849,5.71,5.71,0,0,1-2.245.792,3.754,3.754,0,0,1-1.849,0A1.57,1.57,0,0,1,378.859,92.165Z" transform="translate(-322.606 -48.897)" fill="#e7b4b1"/>
          <g id="Group_791" data-name="Group 791" transform="translate(65.584 32.619)">
            <path id="Path_884" data-name="Path 884" d="M412.7,97.42a5.565,5.565,0,0,1,.66-2.729,1.714,1.714,0,0,1,1.188-1.012,2.558,2.558,0,0,1,1.717.528,8.057,8.057,0,0,1,2.905,3.169,1.6,1.6,0,0,1,.22,1.232,1.252,1.252,0,0,1-.924.528,7.3,7.3,0,0,1-5.634-1.717" transform="translate(-407.462 -85.054)" fill="#372120" opacity="0.5"/>
            <path id="Path_885" data-name="Path 885" d="M419.331,80.354c1.189-1.232,2.377-2.421,3.609-3.565-.088-.044-.132-.132-.22-.176a12.241,12.241,0,0,0-6.162-2.377,18.162,18.162,0,0,0-13.821,4.182A6.717,6.717,0,0,0,400.8,80.75c2.069,1.453,3.917,7.395,4.138,7.219a44.278,44.278,0,0,1,6.779-3.7,14.684,14.684,0,0,1,5.15-1.364h.22c.22-.264.4-.484.484-.616C418.142,81.631,418.715,80.97,419.331,80.354Z" transform="translate(-400.8 -74.107)" fill="#f7dea7" fill-rule="evenodd"/>
            <path id="Path_886" data-name="Path 886" d="M450.729,97.439a.614.614,0,0,0,1.1.132,10.517,10.517,0,0,0,1.232-6.6,11.186,11.186,0,0,0-.616-2.069,55.337,55.337,0,0,1-3.345,4.842A14.923,14.923,0,0,1,450.729,97.439Z" transform="translate(-427.84 -82.389)" fill="#403b58" fill-rule="evenodd"/>
            <path id="Path_887" data-name="Path 887" d="M445.183,82.729a8.946,8.946,0,0,0-3.037-3.829,26.417,26.417,0,0,0-2.949,2.993,23.7,23.7,0,0,0-2.6,3.785,6.785,6.785,0,0,1,4.8,1.629c.044.044.088.132.176.176.176.22.352.44.528.7a54.968,54.968,0,0,0,3.389-4.8C445.359,83.126,445.271,82.905,445.183,82.729Z" transform="translate(-420.842 -76.79)" fill="#f5944a"/>
            <g id="Group_790" data-name="Group 790" transform="translate(3.917 11.572)">
              <path id="Path_888" data-name="Path 888" d="M419.075,103.216c.484.4.968.836,1.453,1.188-.044,0-.088.044-.132.044a12.539,12.539,0,0,1-9.948-1.188,2.133,2.133,0,0,1-.748-.792c1.188-.4,2.729-2.113,2.817-2.069a21.756,21.756,0,0,0,3.081,1.365,9.557,9.557,0,0,0,2.465.572h.132c.088.088.132.176.176.22A3.308,3.308,0,0,0,419.075,103.216Z" transform="translate(-409.7 -100.398)" fill="#f7dea7" fill-rule="evenodd"/>
              <path id="Path_889" data-name="Path 889" d="M436.388,100.974a.462.462,0,0,1,.572,0,1.952,1.952,0,0,1-.044,2.069,5.923,5.923,0,0,1-.484.616,10.258,10.258,0,0,0-1.232-1.585A4.777,4.777,0,0,0,436.388,100.974Z" transform="translate(-423.976 -100.665)" fill="#403b58" fill-rule="evenodd"/>
              <path id="Path_890" data-name="Path 890" d="M432.45,105.261a4.625,4.625,0,0,1-1.893,1.056,10.408,10.408,0,0,1-1.188-1.012,6.269,6.269,0,0,1-.968-1.232,5.737,5.737,0,0,0,2.6-.352c.044,0,.044-.044.088-.044.132-.044.22-.132.352-.176a10.9,10.9,0,0,1,1.232,1.585C432.582,105.129,432.538,105.217,432.45,105.261Z" transform="translate(-420.169 -102.135)" fill="#f7dea7"/>
            </g>
          </g>
          <path id="Path_891" data-name="Path 891" d="M404.795,200.448c-11-1.673-18.971,5.282-29.887,7.615.132-5.282-2.905-10.52-3.037-15.8s.264-10.7,2.2-15.406c1.937-4.754,2.949-8.275,10.168-9.155l11.224.176c5.722,2.553,11.048,8.979,10.564,19.675C405.851,190.809,404.795,200.448,404.795,200.448Z" transform="translate(-319.007 -93.885)" fill="#d9837e" fill-rule="evenodd"/>
          <path id="Path_892" data-name="Path 892" d="M405.2,192.276c-.7-5.062-5.238-8.011-6.734-12.721a7.2,7.2,0,0,1,0-4.094,16.837,16.837,0,0,0,.968-4.358c0,.044-1.32-.968-1.409-1.056a12.34,12.34,0,0,0-.352,1.365,8.747,8.747,0,0,0-.528,2.113c-.044.748,0,1.5-.044,2.289a24.784,24.784,0,0,1-.44,4.005c-.22,1.188-.308,1.981-1.188,2.729a10.476,10.476,0,0,1-6.118,2.377l-.924.088c-2.2.176-6.118-1.188-6.734-3.477-.484-1.717-.132-4.049-.176-5.81-.088-2.157-.176-4.314-.264-6.426h-.044c-.44.22-.924.44-1.365.66-.484.22-.528.264-.484.748a27.148,27.148,0,0,0,.484,2.729c.4,1.717.792,3.609.176,5.326-1.849,5.062-6.558,8.143-7.351,13.689-.924,6.47-.044,12.633.088,19.1.264,10.168,6.382,20.159,14.261,26.63a3.02,3.02,0,0,0,4.27.352c9.155-5.326,13.557-16.858,13.733-27.026C405.2,204.909,406.121,198.747,405.2,192.276Z" transform="translate(-319.233 -94.781)" fill="#35acbc" fill-rule="evenodd"/>
          <path id="Path_893" data-name="Path 893" d="M359.617,39.533h.572c.792.044,1.585.088,2.421.132,2.773.132,5.546.176,8.319.176a92.191,92.191,0,0,0,9.243-.352c.572-.044,1.1-.132,1.673-.22,4.049-.572,8.055-1.365,12.016-2.333.792-.176,1.629-.4,2.421-.616.264-.088.572-.176.836-.264a2.613,2.613,0,0,1,1.981.748,4.911,4.911,0,0,1,1.232,1.761c.352.792-.22.792-.836.968l-1.188.264c-1.277.308-2.509.572-3.785.88q-5.216,1.188-10.432,2.113c-1.717.308-3.477.572-5.238.792a86.894,86.894,0,0,1-9.552.572c-2.949.044-5.9.044-8.847-.132a13.857,13.857,0,0,1-1.893-.22,2.539,2.539,0,0,1-.616-.132c-.616-.22-.44-.836-.308-1.364A5.61,5.61,0,0,1,359,39.929C359.221,39.753,359.353,39.577,359.617,39.533Z" transform="translate(-310.979 -20.166)" fill="#35acbc" fill-rule="evenodd"/>
          <path id="Path_894" data-name="Path 894" d="M404.04,263.3h-32.4a1.165,1.165,0,0,0-1.144,1.144v.748a1.165,1.165,0,0,0,1.144,1.144h32.4a1.165,1.165,0,0,0,1.144-1.144v-.748A1.136,1.136,0,0,0,404.04,263.3Z" transform="translate(-318.253 -147.405)" fill="#ffca05" fill-rule="evenodd"/>
          <path id="Path_895" data-name="Path 895" d="M432.216,494.576a10.7,10.7,0,0,0,2.905,0,18.882,18.882,0,0,1,8.1,1.144c.528.22,1.144.528,1.232,1.1a1.389,1.389,0,0,1-.792,1.276c-1.5,1.056-3.477,1.189-5.326,1.233a68.874,68.874,0,0,1-7.967-.308,2.981,2.981,0,0,1-2.025-.792,2.919,2.919,0,0,1-.088-2.641,1.71,1.71,0,0,1,.484-.924,1.651,1.651,0,0,1,1.056-.264c.924,0,1.893.044,2.817.132" transform="translate(-350.434 -276.784)" fill="#eddedc" fill-rule="evenodd"/>
          <line id="Line_24" data-name="Line 24" x1="2.069" y2="1.673" transform="translate(82.662 217.792)" fill="none" stroke="#8d8a8b" stroke-miterlimit="10" stroke-width="1.691"/>
          <line id="Line_25" data-name="Line 25" x1="2.025" y2="1.673" transform="translate(84.775 217.792)" fill="none" stroke="#8d8a8b" stroke-miterlimit="10" stroke-width="1.691"/>
          <path id="Path_896" data-name="Path 896" d="M431.192,435.444a2.252,2.252,0,0,1,.616,1.893,4.173,4.173,0,0,1-.264.88c-.4,1.012-.836,2.069-1.232,3.081.7-.044,1.232,1.585,1.144,2.993a5.043,5.043,0,0,1-1.365,3.125,3.964,3.964,0,0,1,.88,2.905,3.276,3.276,0,0,1-1.1,2.6,4.683,4.683,0,0,1,.748,1.144,2.993,2.993,0,0,1,.088,1.761c-.176.616-.66.88-.748,1.585a2.813,2.813,0,0,1,.176,2.421,2.764,2.764,0,0,1-1.188,1.409,6.781,6.781,0,0,1-5.546.88,1.179,1.179,0,0,1-.924-1.056,2.576,2.576,0,0,1,.88-2.289,3.293,3.293,0,0,1-1.144-3.653,2.01,2.01,0,0,0,.22-.616c.088-.792-.616-.924-.792-1.673a2.024,2.024,0,0,1,.484-1.717,1.227,1.227,0,0,0,.352-.836,1.3,1.3,0,0,0-.22-.572,4.757,4.757,0,0,1-.616-2.465c.044-.968.528-1.849.968-1.541a11.9,11.9,0,0,1-.528-3.125c0-1.1.528-2.245,1.056-2.069a5.4,5.4,0,0,1-.66-2.2c-.044-.88.44-1.8.836-1.409a1.712,1.712,0,0,1-.528-1.5.68.68,0,0,1,.616-.572,18.893,18.893,0,0,1,6.294.308A3.381,3.381,0,0,1,431.192,435.444Z" transform="translate(-346.857 -243.357)" fill="#35acbc" fill-rule="evenodd"/>
        </g>
      </g>
      <circle id="Ellipse_311" data-name="Ellipse 311" cx="77.538" cy="77.538" r="77.538" transform="translate(0 17.331)" fill="none" stroke="#fff" stroke-width="10"/>
    </g>
    <g id="Group_954" data-name="Group 954" transform="translate(482.356 2115.142)">
      <g id="Ellipse_3" data-name="Ellipse 3" transform="translate(16.335 4.863)" fill="#f2f2f2" stroke="#707070" stroke-width="1">
        <circle cx="84.774" cy="84.774" r="84.774" stroke="none"/>
        <circle cx="84.774" cy="84.774" r="84.274" fill="none"/>
      </g>
      <rect id="Rectangle_11" data-name="Rectangle 11" width="92.942" height="78.296" transform="translate(0 114.14)" fill="#ed583f"/>
      <circle id="Ellipse_259" data-name="Ellipse 259" cx="86.318" cy="86.318" r="86.318" transform="translate(19.715 0)" fill="#e5efed" stroke="#fff" stroke-width="10"/>
      <g id="Group_815" data-name="Group 815" transform="translate(29.321 22.538)">
        <g id="Group_814" data-name="Group 814" clip-path="url(#clip-path-7)">
          <path id="Path_897" data-name="Path 897" d="M669.889,104.7c-1.055,9.45-1.307,18.1-7.389,22.72,6.685,5.73,11.662,8.545,20.408,8.545,8.7,0,12.114-2.966,18.8-8.746-6.082-4.624-4.825-12.466-5.881-21.916" transform="translate(-603.64 -52.072)" fill="#d77328" fill-rule="evenodd"/>
          <g id="Group_800" data-name="Group 800" transform="translate(28.902 67.498)">
            <path id="Path_898" data-name="Path 898" d="M603.252,321.548a29.151,29.151,0,0,1,2.664,6.384,81.708,81.708,0,0,1,3.217,13.873c.553,3.87,1.407,8.746-.2,12.516a34.137,34.137,0,0,1-2.161,3.72c-.9,1.608-2.865,4.825.251,5.026,3.468.251,7.439-.5,10.857-1.005a21.723,21.723,0,0,1-1.307-7.339c-.05-4.323.653-8.495.352-12.818-.2-2.915,1.91-7.439,4.021-9.7a3.238,3.238,0,0,0,.9-1.307,2.279,2.279,0,0,0-.1-1.156c-.654-2.362-1.307-4.775-2.061-7.087a2.661,2.661,0,0,0-.654-1.156,2.108,2.108,0,0,0-1.106-.4,27.289,27.289,0,0,0-15.029.5" transform="translate(-602.9 -226.79)" fill="#143f6b"/>
            <rect id="Rectangle_519" data-name="Rectangle 519" width="34.381" height="19.905" transform="translate(33.477 119.941)" fill="#143f6b"/>
            <g id="Group_794" data-name="Group 794" transform="translate(42.588 99.282)">
              <path id="Path_899" data-name="Path 899" d="M726.82,331.8a37.885,37.885,0,0,1,4.524,21.614c-.251,2.564-.754,5.127-.452,7.691.3,2.815,1.508,5.429,2.212,8.193,1.96,7.59-.151,15.532-2.212,23.122a3.861,3.861,0,0,1-.9,1.81c-.955.9-2.563.754-3.921.5a151.72,151.72,0,0,1-19.5-4.926c-1.407-.452-3.117-.754-3.87-1.86-2.312-3.368.1-11.963-3.921-16.487-.9-1.005-2.212-1.759-3.116-2.765-2.212-2.463-1.759-6.082-1.206-9.249,1.106-5.931-7.791-14.476-6.735-20.408" transform="translate(-687.626 -331.8)" fill="#e9e1da"/>
              <path id="Path_900" data-name="Path 900" d="M738.877,468.652h-18.4a3.138,3.138,0,0,1-3.318-2.463l-4.273-42.524c-.151-1.558,1.357-2.865,3.318-2.865h26.942c1.91,0,3.468,1.307,3.318,2.865l-4.272,42.524A3.138,3.138,0,0,1,738.877,468.652Z" transform="translate(-700.186 -376.064)" fill="#474042"/>
              <path id="Path_901" data-name="Path 901" d="M721.4,510.2l.6,5.881,27.8,2.966a1.8,1.8,0,0,0,2.111-1.508v-.352a1.518,1.518,0,0,0-.9-1.307l-4.574-2.161V510.7Z" transform="translate(-704.424 -420.527)" fill="#5c5356"/>
            </g>
            <g id="Group_795" data-name="Group 795" transform="translate(9.751 85.459)">
              <path id="Path_902" data-name="Path 902" d="M631.812,304.3a37.886,37.886,0,0,0-4.524,21.614c.251,2.563.754,5.127.453,7.691-.3,2.815-1.508,5.429-2.212,8.193-1.96,7.59.151,15.532,2.212,23.122a3.86,3.86,0,0,0,.9,1.81c.955.9,2.564.754,3.921.5a151.7,151.7,0,0,0,19.5-4.926c1.407-.452,1.709,0,2.815-.955,4.624-3.921,1.005-12.918,4.976-17.392.9-1.005,2.212-1.759,3.116-2.765,2.212-2.463,1.759-6.082,1.206-9.249-1.106-5.931,7.791-14.476,6.736-20.408" transform="translate(-623.518 -304.3)" fill="#e9e1da"/>
              <path id="Path_903" data-name="Path 903" d="M632.28,441.152h18.4a3.138,3.138,0,0,0,3.318-2.463l4.273-42.524c.151-1.558-1.357-2.865-3.318-2.865H628.007c-1.91,0-3.468,1.307-3.317,2.865l4.272,42.524A3.184,3.184,0,0,0,632.28,441.152Z" transform="translate(-623.484 -348.564)" fill="#474042"/>
              <path id="Path_904" data-name="Path 904" d="M652.811,482.7l-.6,5.881-27.8,2.966a1.8,1.8,0,0,1-2.111-1.508v-.352a1.518,1.518,0,0,1,.9-1.307l4.574-2.161V483.2Z" transform="translate(-622.3 -393.027)" fill="#5c5356"/>
            </g>
            <path id="Path_905" data-name="Path 905" d="M719.1,226.636c6.082,8.495-10.807,28.8-10.807,28.8s-12.415-8.445-21.865-8.294c-1.005-11.209-1.96-20.056-2.966-31.265a114.065,114.065,0,0,1-.653-16.035c.4-7.59,2.413-15.079,4.574-22.468q2.488-8.6,5.429-17.04c.754-2.161,1.609-4.474,3.77-5.931a11.431,11.431,0,0,1,7.138-1.458c8.646.553,11.209,10.254,12.767,17.291,4.524,20.508,11.863,39.207,6.585,62.178" transform="translate(-642.597 -143.54)" fill="#fff6ef"/>
            <path id="Path_906" data-name="Path 906" d="M645.106,218.486c-6.082,8.495,8.093,33.477,8.093,33.477s15.08-10.757,24.529-10.606c1.005-11.209,1.96-22.418,2.966-33.577a114.074,114.074,0,0,0,.654-16.035c-.4-7.59-2.413-15.08-4.574-22.468q-2.488-8.6-5.429-17.04c-.754-2.161-1.609-4.474-3.77-5.931a11.43,11.43,0,0,0-7.138-1.458c-8.646.553-11.209,10.254-12.767,17.291-4.524,20.508-11.863,39.207-6.585,62.178" transform="translate(-620.979 -139.512)" fill="#fff6ef"/>
            <g id="Group_796" data-name="Group 796" transform="translate(47.45 40.321)">
              <ellipse id="Ellipse_222" data-name="Ellipse 222" cx="2.212" cy="2.161" rx="2.212" ry="2.161" fill="#cec7c0"/>
              <ellipse id="Ellipse_223" data-name="Ellipse 223" cx="2.212" cy="2.161" rx="2.212" ry="2.161" transform="translate(0 8.646)" fill="#cec7c0"/>
              <ellipse id="Ellipse_224" data-name="Ellipse 224" cx="2.212" cy="2.161" rx="2.212" ry="2.161" transform="translate(0 17.341)" fill="#cec7c0"/>
              <ellipse id="Ellipse_225" data-name="Ellipse 225" cx="2.212" cy="2.161" rx="2.212" ry="2.161" transform="translate(0 25.987)" fill="#cec7c0"/>
              <ellipse id="Ellipse_226" data-name="Ellipse 226" cx="2.212" cy="2.161" rx="2.212" ry="2.161" transform="translate(0 34.633)" fill="#cec7c0"/>
            </g>
            <path id="Path_907" data-name="Path 907" d="M641.6,298.846c7.188,2.815,15.23,3.569,23.122,3.518s15.733-.955,23.625-1.307a37.059,37.059,0,0,0,9.148-1.106,3.179,3.179,0,0,0,1.156-.6,2.4,2.4,0,0,0,.5-1.156,14.124,14.124,0,0,0-.553-6.786c-18.045,1.96-36.844,3.87-54.035-1.206" transform="translate(-622.147 -211.829)" fill="#474042"/>
            <path id="Path_908" data-name="Path 908" d="M669.207,148.768A9.8,9.8,0,0,0,668,147.461c-2.815-2.714-3.72-7.992-.4-10.706a5.367,5.367,0,0,1,2.765-1.206c2.714-.3,4.474,1.458,7.138,1.458A37.288,37.288,0,0,0,687,135.8c4.122-1.056,9.5-3.217,11.561.9a8.809,8.809,0,0,1,.653,3.569c.1,2.815-.151,5.328,1.257,7.992.855,1.558,1.709,3.167,2.614,4.725-2.061,1.357-5.63-.452-8.143.452-2.463.9-1.96,3.519-.7,5.278s2.915,3.82,1.508,5.579c-1.056,1.307-3.418,1.759-4.474,3.016-2.262,2.714,3.167,5.78,2.765,8.947-.251,1.86-2.915,3.368-5.479,3.116s-4.624-2.161-4.222-4.021c.1-.5.4-1.005.251-1.508-.251-1.005-1.86-1.508-3.267-1.508s-2.815.3-4.222.2a5.443,5.443,0,0,1-4.876-3.82c-.452-2.212,1.156-3.418,1.609-5.328.352-1.659-.553-4.071-.955-5.73A21.5,21.5,0,0,0,669.207,148.768Z" transform="translate(-634.021 -134.284)" fill="#efe7e0"/>
            <path id="Path_909" data-name="Path 909" d="M781.277,317.1c-3.518,5.931-3.87,12.968-4.373,19.5-.151,2.111-.352,4.172-.352,6.283a25,25,0,0,0,1.056,5.328,36.314,36.314,0,0,1,.4,12.114,1.983,1.983,0,0,1-.5,1.257,2.689,2.689,0,0,1-1.407.553,19.212,19.212,0,0,1-3.418.3,1.6,1.6,0,0,1-.7-.1,1.178,1.178,0,0,1-.553-.553c-2.513-3.77-1.156-8.394-1.558-12.566-.452-4.172-.6-7.691-3.167-11.41" transform="translate(-684.366 -225.207)" fill="#143f6b"/>
            <path id="Path_910" data-name="Path 910" d="M764.208,333.112a3.641,3.641,0,0,1-.553,2.714,6.064,6.064,0,0,1-1.407,1.056c-2.161,1.407-3.418,4.072-2.212,6.132,1.156,1.96,3.971,2.614,6.484,3.016,3.368.553,7.791.4,9.55-2.614,1.106-1.86,2.865-6.233-.151-7.49a13.668,13.668,0,0,1-2.161-.754c-.754-.5-1.257-3.72-.754-4.373" transform="translate(-680.818 -232.021)" fill="#ef7e22"/>
            <path id="Path_911" data-name="Path 911" d="M776.972,333.039a4.265,4.265,0,0,1-.754-.352,2.582,2.582,0,0,0-1.81-.352,1.763,1.763,0,0,0-.7.3,4.088,4.088,0,0,0-2.061-.754,12.48,12.48,0,0,0-3.066.352c-1.005.2-1.709-.955-2.463-1.257a3.025,3.025,0,0,0-3.519.955c-.754,1.106.8,2.161.8,3.368a1.161,1.161,0,0,0,1.005,1.257c.653.05,1.055-.5,1.307-.955a1.669,1.669,0,0,0,1.558,1.307,1.426,1.426,0,0,0,1.307-.8,1.82,1.82,0,0,0,.151-1.156.854.854,0,0,0,.3.3,2.529,2.529,0,0,0,1.458.6,1.4,1.4,0,0,0,1.005-.4.86.86,0,0,0,.6.8,1.734,1.734,0,0,0,1.558-.3.781.781,0,0,0,.3.4,1.155,1.155,0,0,0,1.206-.05.889.889,0,0,0,.4-.854c-.3.4.352.754.754.8a2.528,2.528,0,0,0,1.357-.4,1.92,1.92,0,0,0,.955-.8,1.892,1.892,0,0,0,.05-1.056,1.056,1.056,0,0,0-.352-.7,1.309,1.309,0,0,0-.754-.2A3.425,3.425,0,0,0,776.972,333.039Z" transform="translate(-682.222 -231.998)" fill="#efe7e0"/>
            <path id="Path_912" data-name="Path 912" d="M729.091,134.4c4.172.3,4.926,7.741,5.479,10.053s-1.005,1.91,1.407,3.72c1.608,1.257,5.026,1.156,7.037,2.011,7.841,3.267,8.545,15.029,10.3,21.363,1.709,6.132,3.117,12.315,4.524,18.5.4,1.759.8,3.468,1.206,5.228,1.91,8.445,2.257,8.145,2.312,9.56.114,2.914-16.793,7.012-15.737,2.89,4.122-16.135-1.956-17.828-8.44-32.908-3.217-7.54-12.516-17.894-9.852-26.088.452-1.357,1.257-2.614,1.81-3.921a10.879,10.879,0,0,0-1.558-10.505C727.533,134.3,729.091,134.4,729.091,134.4Z" transform="translate(-664.55 -134.292)" fill="#173f6d"/>
            <path id="Path_913" data-name="Path 913" d="M730.156,158.551c-2.513,3.77-1.91,8.445-.855,12.667,2.965,11.762,9.249,22.72,12.265,34.482a65.881,65.881,0,0,1-5.278,46.194c-1.106,2.161-3.468,3.82-5.127,5.68.3-11.712.6-23.625-3.267-34.834-1.408-4.122-3.368-8.093-4.675-12.214-1.709-5.378-2.262-10.958-2.865-16.537L718.544,176.5c-.4-4.021-.8-8.193.8-11.963s5.881-6.987,10.455-6.484" transform="translate(-660.237 -146.077)" fill="#dfd8d2"/>
            <ellipse id="Ellipse_227" data-name="Ellipse 227" cx="2.765" cy="2.664" rx="2.765" ry="2.664" transform="matrix(0.767, -0.642, 0.642, 0.767, 59.986, 24.518)" fill="#928184"/>
            <ellipse id="Ellipse_228" data-name="Ellipse 228" cx="2.765" cy="2.664" rx="2.765" ry="2.664" transform="matrix(0.767, -0.642, 0.642, 0.767, 61.964, 37.578)" fill="#928184"/>
            <ellipse id="Ellipse_229" data-name="Ellipse 229" cx="2.765" cy="2.664" rx="2.765" ry="2.664" transform="matrix(0.767, -0.642, 0.642, 0.767, 64.808, 48.534)" fill="#928184"/>
            <ellipse id="Ellipse_230" data-name="Ellipse 230" cx="2.765" cy="2.664" rx="2.765" ry="2.664" transform="matrix(0.767, -0.642, 0.642, 0.767, 67.753, 60.541)" fill="#928184"/>
            <ellipse id="Ellipse_231" data-name="Ellipse 231" cx="2.765" cy="2.664" rx="2.765" ry="2.664" transform="matrix(0.767, -0.642, 0.642, 0.767, 70.054, 72.305)" fill="#928184"/>
            <ellipse id="Ellipse_232" data-name="Ellipse 232" cx="2.765" cy="2.664" rx="2.765" ry="2.664" transform="matrix(0.767, -0.642, 0.642, 0.767, 71.925, 84.166)" fill="#928184"/>
            <path id="Path_914" data-name="Path 914" d="M618.354,333.112a3.642,3.642,0,0,0,.553,2.714,6.066,6.066,0,0,0,1.407,1.056c2.161,1.407,3.418,4.072,2.212,6.132-1.156,1.96-3.971,2.614-6.484,3.016-3.368.553-7.791.4-9.55-2.614-1.106-1.86-2.865-6.233.151-7.49a13.667,13.667,0,0,0,2.161-.754c.754-.5,1.257-3.72.754-4.373" transform="translate(-603.928 -232.021)" fill="#ef7e22"/>
            <path id="Path_915" data-name="Path 915" d="M607.259,333.039a4.265,4.265,0,0,0,.754-.352,2.581,2.581,0,0,1,1.81-.352,1.761,1.761,0,0,1,.7.3,4.09,4.09,0,0,1,2.061-.754,12.478,12.478,0,0,1,3.066.352c1.005.2,1.709-.955,2.463-1.257a3.025,3.025,0,0,1,3.518.955c.754,1.106-.8,2.161-.8,3.368a1.161,1.161,0,0,1-1.005,1.257c-.654.05-1.056-.5-1.307-.955a1.669,1.669,0,0,1-1.558,1.307,1.426,1.426,0,0,1-1.307-.8,1.818,1.818,0,0,1-.151-1.156.853.853,0,0,1-.3.3,2.53,2.53,0,0,1-1.458.6,1.4,1.4,0,0,1-1.005-.4.86.86,0,0,1-.6.8,1.734,1.734,0,0,1-1.558-.3.782.782,0,0,1-.3.4,1.155,1.155,0,0,1-1.206-.05.889.889,0,0,1-.4-.854c.3.4-.352.754-.754.8a2.528,2.528,0,0,1-1.357-.4,1.92,1.92,0,0,1-.955-.8,1.891,1.891,0,0,1-.05-1.056,1.056,1.056,0,0,1,.352-.7,1.308,1.308,0,0,1,.754-.2A3.426,3.426,0,0,1,607.259,333.039Z" transform="translate(-604.193 -231.998)" fill="#efe7e0"/>
            <path id="Path_916" data-name="Path 916" d="M636.239,134.4c-4.172.3-4.926,7.741-5.479,10.053s1.005,1.91-1.407,3.72c-1.609,1.257-5.026,1.156-7.037,2.011-7.841,3.267-8.545,15.029-10.3,21.363-1.709,6.132-3.116,12.315-4.524,18.5-.4,1.759-.8,3.468-1.206,5.228-1.91,8.445-2.815,8.38-2.312,10.189.4,1.458,29.1,20.547,24.127-30.647,3.217-7.54,12.516-17.894,9.852-26.088-.452-1.357-1.257-2.614-1.81-3.921A10.878,10.878,0,0,1,637.7,134.3C637.747,134.3,636.239,134.4,636.239,134.4Z" transform="translate(-602.964 -134.292)" fill="#173f6d"/>
            <path id="Path_917" data-name="Path 917" d="M645.125,158.551c2.513,3.77,1.91,8.445.855,12.667-2.966,11.762-9.249,22.72-12.265,34.482a65.882,65.882,0,0,0,5.278,46.194c1.106,2.161,3.468,3.82,5.127,5.68-.3-11.712-.6-23.625,3.267-34.834,1.408-4.122,3.368-8.093,4.675-12.214,1.709-5.378,2.262-10.958,2.865-16.537l1.81-17.492c.4-4.021.8-8.193-.8-11.963s-5.881-6.987-10.455-6.484" transform="translate(-617.228 -146.077)" fill="#dfd8d2"/>
            <ellipse id="Ellipse_233" data-name="Ellipse 233" cx="2.664" cy="2.765" rx="2.664" ry="2.765" transform="matrix(0.642, -0.767, 0.767, 0.642, 30.135, 25.07)" fill="#928184"/>
            <ellipse id="Ellipse_234" data-name="Ellipse 234" cx="2.664" cy="2.765" rx="2.664" ry="2.765" transform="matrix(0.642, -0.767, 0.767, 0.642, 28.197, 38.131)" fill="#928184"/>
            <ellipse id="Ellipse_235" data-name="Ellipse 235" cx="2.664" cy="2.765" rx="2.664" ry="2.765" transform="matrix(0.642, -0.767, 0.767, 0.642, 25.313, 49.109)" fill="#928184"/>
            <ellipse id="Ellipse_236" data-name="Ellipse 236" cx="2.664" cy="2.765" rx="2.664" ry="2.765" transform="matrix(0.642, -0.767, 0.767, 0.642, 22.429, 61.102)" fill="#928184"/>
            <ellipse id="Ellipse_237" data-name="Ellipse 237" cx="2.664" cy="2.765" rx="2.664" ry="2.765" transform="matrix(0.642, -0.767, 0.767, 0.642, 20.105, 72.872)" fill="#928184"/>
            <ellipse id="Ellipse_238" data-name="Ellipse 238" cx="2.664" cy="2.765" rx="2.664" ry="2.765" transform="matrix(0.642, -0.767, 0.767, 0.642, 18.256, 84.726)" fill="#928184"/>
            <g id="Group_797" data-name="Group 797" transform="translate(45.037 25.178)">
              <path id="Path_918" data-name="Path 918" d="M692.5,186.046a10.468,10.468,0,0,1,1.056-1.056,4.271,4.271,0,0,1,.7-.452,1.816,1.816,0,0,1,.9-.151,3.184,3.184,0,0,1,1.558.653,8.6,8.6,0,0,0,1.156.653,2.259,2.259,0,0,0,1.106.2,1.124,1.124,0,0,0,.5-.151c.151-.1.352-.2.553-.352a3.207,3.207,0,0,1,.7-.4,4.7,4.7,0,0,1,.8-.2,2.255,2.255,0,0,1,1.508.352,3.837,3.837,0,0,0-1.357.251,5.463,5.463,0,0,0-.553.3,1.92,1.92,0,0,0-.452.452,7.145,7.145,0,0,1-.6.553,1.824,1.824,0,0,1-.854.352,3.351,3.351,0,0,1-1.759-.2,4.765,4.765,0,0,1-1.357-.855,2.861,2.861,0,0,0-1.005-.653,1.99,1.99,0,0,0-1.156.151C693.4,185.643,692.952,185.945,692.5,186.046Z" transform="translate(-692.5 -184.373)" fill="#c3bbaf"/>
            </g>
            <g id="Group_798" data-name="Group 798" transform="translate(41.117 12.512)">
              <path id="Path_919" data-name="Path 919" d="M684.7,161.7a3.165,3.165,0,0,1,1.458-1.96,4.352,4.352,0,0,1,1.206-.5,2.137,2.137,0,0,1,1.458.151,4.384,4.384,0,0,1,1.005.8l.855.8a15.715,15.715,0,0,0,1.659,1.558,1.913,1.913,0,0,0,.855.4,1.678,1.678,0,0,0,.854.05c.3-.05.4-.151.7-.452l.5-.5a1.763,1.763,0,0,1,.7-.3,8.062,8.062,0,0,1,2.513.151,1.708,1.708,0,0,0,1.005-.151,1.354,1.354,0,0,0,.4-.352.7.7,0,0,0,.1-.553.823.823,0,0,1,.1.6,1.3,1.3,0,0,1-.352.553,2.311,2.311,0,0,1-1.206.5,13.445,13.445,0,0,0-2.211.151c-.3.1-.4.251-.654.553a2.37,2.37,0,0,1-.5.5,1.857,1.857,0,0,1-.7.352,2.864,2.864,0,0,1-1.458,0,3.64,3.64,0,0,1-1.257-.6,7.715,7.715,0,0,1-.955-.855c-.3-.3-.553-.553-.8-.854l-.8-.855a5.3,5.3,0,0,0-.754-.754,2.3,2.3,0,0,0-1.91.05A3.823,3.823,0,0,0,684.7,161.7Z" transform="translate(-684.7 -159.175)" fill="#c3bbaf"/>
            </g>
            <g id="Group_799" data-name="Group 799" transform="translate(44.313 32.869)">
              <path id="Path_920" data-name="Path 920" d="M691.079,201.245a.71.71,0,0,1,.05-.452,2.184,2.184,0,0,1,.3-.352,2.64,2.64,0,0,1,.7-.553,1.578,1.578,0,0,1,1.005-.2,2.693,2.693,0,0,1,.955.352,16.143,16.143,0,0,1,1.257,1.106.991.991,0,0,0,.955.3,1.883,1.883,0,0,0,.5-.3l.3-.251a2.8,2.8,0,0,1,.4-.3,2.39,2.39,0,0,1,1.106-.3,1.638,1.638,0,0,1,.653.2,1.3,1.3,0,0,1,.452.452,2.547,2.547,0,0,1,.251.854,1.177,1.177,0,0,0,.251.5.44.44,0,0,0,.5.05,1.537,1.537,0,0,0,.5-.6,1.4,1.4,0,0,1-.251.855.841.841,0,0,1-1.005.251,1.569,1.569,0,0,1-.754-.754c-.151-.3-.2-.5-.3-.653-.1-.1-.151-.1-.3-.1a1.138,1.138,0,0,0-.452.2,4.753,4.753,0,0,1-1.458,1.005,1.966,1.966,0,0,1-1.206-.05,2.79,2.79,0,0,1-.854-.553,3.569,3.569,0,0,1-.6-.653,2.629,2.629,0,0,0-.5-.553,1.216,1.216,0,0,0-1.156-.352,3.945,3.945,0,0,0-.7.251,1.262,1.262,0,0,0-.352.2C691.18,200.994,691.079,201.094,691.079,201.245Z" transform="translate(-691.058 -199.674)" fill="#c3bbaf"/>
            </g>
          </g>
          <g id="Group_813" data-name="Group 813" transform="translate(37.548 2.293)">
            <path id="Path_921" data-name="Path 921" d="M702.4,106.777s-4.423-5.177-13.622-5.177c-16.185,0-22.519,15.934-24.027,20.558-1.508-4.624-7.841-20.558-24.027-20.558-9.2,0-13.622,5.177-13.622,5.177a44.37,44.37,0,0,1,6.434,1.056l-5.026,3.569s7.54-1.307,10.1-1.407a25.329,25.329,0,0,1,2.664.05c.352.1.7.251,1.106.4,7.841,2.865,17.794,8.093,22.167,12.415l-.151.6c.1-.151.251-.251.352-.4.1.151.251.251.352.4l-.151-.6c4.373-4.373,14.326-9.6,22.167-12.415a11.3,11.3,0,0,1,1.206-.4c.7,0,1.307-.05,1.759,0,2.563.1,10.1,1.407,10.1,1.407l-4.826-3.418A39.806,39.806,0,0,1,702.4,106.777Z" transform="translate(-623.581 -52.824)" fill="#f6dda6" fill-rule="evenodd"/>
            <path id="Path_922" data-name="Path 922" d="M702.4,106.777s-4.474-5.177-13.622-5.177c-16.185,0-22.519,15.934-24.027,20.558-1.508-4.624-7.841-20.558-24.027-20.558-9.2,0-13.622,5.177-13.622,5.177a44.37,44.37,0,0,1,6.434,1.056s-4.976,3.569-5.026,3.569c.653-.452,1.86-.05,2.513-.6.151.151.1.251.1.452-.05.151.05.4.2.352a.176.176,0,0,0,.1-.05,10.547,10.547,0,0,1,.854-.7,1.023,1.023,0,0,1,.3.754,3.022,3.022,0,0,1,.653-.452c.251-.05.6.2.452.4a6.487,6.487,0,0,1,2.061-1.307,13.521,13.521,0,0,1,2.865-.3,25.323,25.323,0,0,1,2.664.05c.352.1.7.251,1.106.4,7.841,2.865,17.794,8.093,22.167,12.415l-.151.6c.1-.151.252-.251.352-.4.1.151.251.251.352.4l-.151-.6c4.373-4.373,14.326-9.6,22.167-12.415a11.308,11.308,0,0,1,1.206-.4c.7,0,1.307-.05,1.759,0,2.563.1,10.1,1.407,10.1,1.407-1.508-1.056-3.77-2.161-4.876-3.569.352-.251,2.312-.05,1.96.6a.6.6,0,0,0,.05-.5.6.6,0,0,1,.6.452c.1-1.056-.05-.955,1.106-1.156.6-.1,1.257-.2,1.86-.3C701.04,106.878,702.246,106.627,702.4,106.777Z" transform="translate(-623.581 -52.824)" fill="#f6dda6" fill-rule="evenodd"/>
            <path id="Path_923" data-name="Path 923" d="M638.862,101.5c-9.2,0-11.762,5.177-11.762,5.177a44.37,44.37,0,0,1,6.434,1.056l1.005-.553a20.246,20.246,0,0,1,5.63-1.96c2.312-.4,8.243-1.307,8.243-1.307S640.119,101.5,638.862,101.5Z" transform="translate(-623.581 -52.774)" fill="#f6dda6" fill-rule="evenodd"/>
            <path id="Path_924" data-name="Path 924" d="M702.334,52.232c-.553-2.463-3.066-4.222-3.368-6.585a.639.639,0,0,1-.6,0,3.267,3.267,0,0,0,.553-1.106c-.4.05-.8.05-1.257.1a6.726,6.726,0,0,1,.352-.9c-1.659.151-4.825-2.212-5.73-4.122a27.758,27.758,0,0,1-1.759-16.437,49.925,49.925,0,0,0-.2-16.789,2.07,2.07,0,0,0-2.312-1.709c-9.2,1.357-16.537,15.029-18.6,14.225-.05,0-2.815-.7-2.262-1.005a1.13,1.13,0,0,1-1.056-.05c-.553.7-1.005.5-1.809.452-1.106-.05-5.429.6-5.781-.7-.452.2-.855.452-1.307.653a.3.3,0,0,1-.2.05c-.251-.05-.151-.452-.352-.6-.955,1.206-2.312.653-3.669,1.206-2.061.8-9.4-12.868-18.6-14.225a2.042,2.042,0,0,0-2.312,1.709,49.978,49.978,0,0,0-.2,16.789A28.755,28.755,0,0,1,630.1,39.615c-.955,1.357-2.915,2.513-4.574,4.373-2.212,2.463-4.876,5.73-5.429,8.243a15.463,15.463,0,0,1,4.273-1.056c-1.508,3.569-2.614,7.087-2.614,9.952,0,0,6.987-5.278,15.482-5.278,14.275,0,16.185,19.7,23.926,19.7s9.6-19.7,23.926-19.7c8.495,0,15.482,5.278,15.482,5.278,0-2.815-1.106-6.384-2.614-9.952A16.224,16.224,0,0,1,702.334,52.232Z" transform="translate(-620.1 -4.612)" fill="#ef7e22" fill-rule="evenodd"/>
            <g id="Group_803" data-name="Group 803" transform="translate(41.067)">
              <g id="Group_801" data-name="Group 801" clip-path="url(#clip-path-8)">
                <path id="Path_925" data-name="Path 925" d="M745.772,35.436c.553-7.741,1.005-20.307.3-24.328-.05-.4-.251-1.056-.3-1.508,0,0-14.879,9.852-14.577,15.18Z" transform="translate(-716.418 -7.068)" fill="#f2cb75" fill-rule="evenodd"/>
              </g>
              <g id="Group_802" data-name="Group 802" clip-path="url(#clip-path-8)">
                <path id="Path_927" data-name="Path 927" d="M749.355,42.6c4.373-5.328.9-18.4.7-18.6,0,0-11.863,7.087-11.662,10.606Z" transform="translate(-720 -14.229)" fill="#f6dda6" fill-rule="evenodd"/>
              </g>
            </g>
            <circle id="Ellipse_239" data-name="Ellipse 239" cx="3.368" cy="3.368" r="3.368" transform="translate(22.267 33.144)" fill="#333"/>
            <g id="Group_805" data-name="Group 805" transform="translate(22.267 33.144)">
              <g id="Group_804" data-name="Group 804" transform="translate(0 0)" clip-path="url(#clip-path-10)">
                <circle id="Ellipse_240" data-name="Ellipse 240" cx="2.463" cy="2.463" r="2.463" transform="translate(-1.558 -1.558)" fill="#fff" opacity="0.5"/>
              </g>
            </g>
            <path id="Path_929" data-name="Path 929" d="M702.05,130.323a4.775,4.775,0,1,1-9.55,0C692.45,127.659,702.05,127.659,702.05,130.323Z" transform="translate(-656.108 -66.115)" fill="#333" fill-rule="evenodd"/>
            <circle id="Ellipse_242" data-name="Ellipse 242" cx="3.368" cy="3.368" r="3.368" transform="translate(53.281 33.144)" fill="#333"/>
            <g id="Group_807" data-name="Group 807" transform="translate(53.281 33.144)">
              <g id="Group_806" data-name="Group 806" transform="translate(0 0)" clip-path="url(#clip-path-10)">
                <circle id="Ellipse_243" data-name="Ellipse 243" cx="2.463" cy="2.463" r="2.463" transform="translate(-1.558 -1.558)" fill="#fff" opacity="0.5"/>
              </g>
            </g>
            <g id="Group_809" data-name="Group 809" transform="translate(47.551 27.363)">
              <circle id="Ellipse_245" data-name="Ellipse 245" cx="9.249" cy="9.249" r="9.249" fill="#f0eeed" opacity="0.4"/>
              <circle id="Ellipse_246" data-name="Ellipse 246" cx="9.249" cy="9.249" r="9.249" fill="none" stroke="#f2cb75" stroke-miterlimit="10" stroke-width="2.077"/>
              <g id="Group_808" data-name="Group 808" transform="translate(16.889 14.778)">
                <circle id="Ellipse_247" data-name="Ellipse 247" cx="0.804" cy="0.804" r="0.804" fill="#f2cb75"/>
                <circle id="Ellipse_248" data-name="Ellipse 248" cx="0.804" cy="0.804" r="0.804" transform="translate(1.005 1.307)" fill="#f2cb75"/>
                <circle id="Ellipse_249" data-name="Ellipse 249" cx="0.804" cy="0.804" r="0.804" transform="translate(1.86 2.714)" fill="#f2cb75"/>
                <circle id="Ellipse_250" data-name="Ellipse 250" cx="0.804" cy="0.804" r="0.804" transform="translate(2.614 4.222)" fill="#f2cb75"/>
                <circle id="Ellipse_251" data-name="Ellipse 251" cx="0.804" cy="0.804" r="0.804" transform="translate(3.116 5.73)" fill="#f2cb75"/>
                <circle id="Ellipse_252" data-name="Ellipse 252" cx="0.804" cy="0.804" r="0.804" transform="translate(3.016 7.339)" fill="#f2cb75"/>
                <circle id="Ellipse_253" data-name="Ellipse 253" cx="0.804" cy="0.804" r="0.804" transform="translate(2.865 8.947)" fill="#f2cb75"/>
                <circle id="Ellipse_254" data-name="Ellipse 254" cx="0.804" cy="0.804" r="0.804" transform="translate(3.016 10.556)" fill="#f2cb75"/>
                <circle id="Ellipse_255" data-name="Ellipse 255" cx="0.804" cy="0.804" r="0.804" transform="translate(4.172 11.762)" fill="#f2cb75"/>
                <circle id="Ellipse_256" data-name="Ellipse 256" cx="0.804" cy="0.804" r="0.804" transform="translate(5.177 13.069)" fill="#f2cb75"/>
                <circle id="Ellipse_257" data-name="Ellipse 257" cx="0.804" cy="0.804" r="0.804" transform="translate(5.027 14.677)" fill="#f2cb75"/>
              </g>
            </g>
            <path id="Path_930" data-name="Path 930" d="M632.162,55.33a28.181,28.181,0,0,1-1.86,6.685c-.955,1.357-2.915,2.513-4.574,4.373-2.212,2.463-4.876,5.73-5.429,8.243a15.463,15.463,0,0,1,4.273-1.056c-1.508,3.569-2.614,7.087-2.614,9.952a28.394,28.394,0,0,1,15.482-5.278c.251,0,1.056.05,1.056.05a15.861,15.861,0,0,1-5.328-.955c-1.86-.955-2.161-4.675-2.01-6.635a17.691,17.691,0,0,1,2.01-6.283c1.257-2.714,2.513-5.429,3.82-8.143.955-2.061,2.714-4.423,3.167-6.585C637.34,50.906,634.676,53.47,632.162,55.33Z" transform="translate(-620.199 -27.011)" fill="#ef7e22" fill-rule="evenodd" opacity="0.6"/>
            <g id="Group_812" data-name="Group 812" transform="translate(2.312 0.05)">
              <g id="Group_810" data-name="Group 810" clip-path="url(#clip-path-12)">
                <path id="Path_931" data-name="Path 931" d="M641.446,35.884c-4.775-6.786-1.005-20.307-.3-24.328a1.736,1.736,0,0,1,.6-1.056s14.577,9.349,14.326,14.677Z" transform="translate(-631.845 -7.565)" fill="#f2cb75" fill-rule="evenodd"/>
              </g>
              <g id="Group_811" data-name="Group 811" clip-path="url(#clip-path-12)">
                <path id="Path_933" data-name="Path 933" d="M641.625,42.6c-4.373-5.328-.9-18.4-.7-18.6,0,0,11.863,7.087,11.661,10.606Z" transform="translate(-632.024 -14.28)" fill="#f6dda6" fill-rule="evenodd"/>
              </g>
            </g>
          </g>
        </g>
      </g>
      <circle id="Ellipse_312" data-name="Ellipse 312" cx="86.318" cy="86.318" r="86.318" transform="translate(19.715 0)" fill="none" stroke="#fff" stroke-width="10"/>
    </g>
  </g>
</svg>
