<svg viewBox="0 0 686.051 639.99" xmlns="http://www.w3.org/2000/svg"><style>.music-1 {
  animation: rotate-right-3 2s infinite;
}

.music-2 {
  animation: rotate-left-2 2.5s infinite;
}

.music-3 {
  animation: rotate-left-1 1.5s infinite;
}

.music-4 {
  animation: rotate-left-1 1.5s infinite;
}

.music-5 {
  animation: rotate-right-3 2.5s infinite;
}

@keyframes rotate-left-1 {
  0% {
    transform: rotate(0deg);
  }
  50% {
    transform: rotate(2deg);
  }
  100% {
    transform: rotate(0deg);
  }
}

@keyframes rotate-right {
  0% {
    transform: rotate(0deg);
  }
  50% {
    transform: rotate(3deg);
  }
  100% {
    transform: rotate(0deg);
  }
}

@keyframes rotate-left-2 {
  0% {
    transform: rotate(0deg);
  }
  50% {
    transform: rotate(-2deg);
  }
  100% {
    transform: rotate(0deg);
  }
}

@keyframes rotate-left-3 {
  0% {
    transform: rotate(0deg);
  }
  50% {
    transform: rotate(-2deg);
  }
  100% {
    transform: rotate(0deg);
  }
}

@keyframes rotate-right-3 {
  0% {
    transform: rotate(0deg);
  }
  50% {
    transform: rotate(2deg);
  }
  100% {
    transform: rotate(0deg);
  }
}

</style><path d="m581.652 0v536.263h-581.652z" fill="#f3cd75" transform="matrix(.087 .996 -.996 .087 584.359 0)"/><path d="m193.5 0c106.867 0 193.5 86.633 193.5 193.5s-86.633 193.5-193.5 193.5-193.5-86.633-193.5-193.5 86.633-193.5 193.5-193.5z" fill="#fff" transform="translate(192.108 132.282)"/><path d="m77.547 361.75h74.607a50.522 50.522 0 0 1 50.522 50.555v59.148h-175.676v-59.148a50.522 50.522 0 0 1 50.547-50.555z" fill="#7fd1e1" transform="translate(155.866 47.489)"/><path d="m94.232 61.019a95.143 95.143 0 0 1 49.623 3.533 35.451 35.451 0 0 0 -17.589-51.612 35.368 35.368 0 0 1 1.7 38.67 35.55 35.55 0 0 0 -22.772-32.51 35.492 35.492 0 0 1 3.822 34.559 35.673 35.673 0 0 0 -20.586-20.859 35.186 35.186 0 0 1 5.778 28.228z" fill="#e4ecae" fill-rule="evenodd" transform="translate(145.14 108.395)"/><path d="m95.58 344.193 17.1-82.993h24.62l20.783 82.993c-1.766 19.809-18.984 32.3-30.952 32.19s-30.594-13.503-31.551-32.19z" fill="#da847f" fill-rule="evenodd" transform="translate(143.891 65.046)"/><path d="m104.964 63.427a94.92 94.92 0 0 1 49.636 3.533 35.492 35.492 0 0 0 -17.6-51.62 35.384 35.384 0 0 1 1.709 38.67 35.492 35.492 0 0 0 -22.781-32.5 35.442 35.442 0 0 1 3.822 34.551 35.706 35.706 0 0 0 -20.58-20.87 35.418 35.418 0 0 1 6.6 20.635 34.8 34.8 0 0 1 -.809 7.6z" fill="#36acbc" fill-rule="evenodd" transform="translate(143.265 107.976)"/><path d="m188.924 141.273c0 31.365-48.153 143.7-70.373 143.7-21.122 0-70.381-121.753-70.381-155.083 0-58.157 13.619-56 70.381-56s70.373 9.217 70.373 67.383z" fill="#da847f" opacity=".75" transform="translate(152.17 97.754)"/><path d="m210.222 155.89c0 55.12-77.248 115.027-97.4 115.027-18.6 0-97.4-59.907-97.4-115.027s43.614-99.79 97.4-99.79 97.4 44.678 97.4 99.79z" fill="#da847f" transform="translate(157.886 100.858)"/><path d="m113.276 271.3c-18.6 0-97.4-59.907-97.4-115.027 0-34.312 17.234-64.108 42.631-82.539 12.782-9.277 36.487-15.484 36.487-15.484s-9.261 4.424-19.669 10.73c-22.674 13.685-43.825 39.12-43.825 77.1 0 38.9 24.762 67.864 43.969 88.086 21.27 22.368 27.238 35.162 35.541 36.606l3.227.5s-.614.028-.961.028z" fill="#da847f" opacity=".5" transform="translate(157.808 100.483)"/><path d="m110.5 48.079a95.143 95.143 0 0 1 49.623 3.533 35.451 35.451 0 0 0 -17.587-51.612 35.368 35.368 0 0 1 1.7 38.67 35.55 35.55 0 0 0 -22.781-32.513 35.492 35.492 0 0 1 3.822 34.559 35.673 35.673 0 0 0 -20.577-20.865 35.186 35.186 0 0 1 5.778 28.228z" fill="#da847f" fill-rule="evenodd" transform="translate(142.299 110.654)"/><path d="m228.066 178.381c-2.905-2.988-1.907-7.429 2.022-9.525a10.869 10.869 0 0 1 .99-.47 18.728 18.728 0 0 1 8.7-1.205 9.451 9.451 0 0 1 4.309 1.222 4.482 4.482 0 0 1 1.849 5.109 7.948 7.948 0 0 1 -4.127 4.325 21.361 21.361 0 0 1 -6.471 1.841 12.975 12.975 0 0 1 -5.291-.041 4.424 4.424 0 0 1 -1.981-1.256z" fill="#e7b4b1" transform="translate(121.051 81.479)"/><path d="m73.192 209.753a10.73 10.73 0 0 1 2.7-15.542 14.213 14.213 0 0 1 1.329-.768 20.849 20.849 0 0 1 11.621-1.964 10.961 10.961 0 0 1 5.778 1.989 8.188 8.188 0 0 1 2.476 8.345 12.183 12.183 0 0 1 -5.563 7.041 24.7 24.7 0 0 1 -8.634 3.013 14.441 14.441 0 0 1 -7.074-.074 6.025 6.025 0 0 1 -2.633-2.039z" fill="#e7b4b1" transform="translate(148.187 77.246)"/><path d="m141.179 218.549a21.46 21.46 0 0 1 2.476-10.524c.99-1.816 2.394-3.533 4.5-3.912s4.523.66 6.6 1.956a30.944 30.944 0 0 1 11.145 12.191c.784 1.568 1.428 3.4.825 4.779s-2.121 1.75-3.566 1.973c-7.057 1.106-15.237-1.411-21.534-6.6" fill="#382120" opacity=".5" transform="translate(135.931 75.028)"/><path d="m187.749 188.205c4.474-4.738 9.079-9.327 13.743-13.71-.3-.248-.586-.5-.883-.726-6.867-5.4-15.138-8.015-23.54-9.079a69.184 69.184 0 0 0 -52.875 15.988c-2.889 2.418-5.778 5.233-7.354 9.005 7.949 5.613 15.072 28.278 15.922 27.708a159.587 159.587 0 0 1 25.983-14.106c6.463-2.749 13.115-5.018 19.76-5.266h.883c.759-1.007 1.469-1.874 1.874-2.4a93.748 93.748 0 0 1 6.488-7.412z" fill="#f7dea7" fill-rule="evenodd" transform="translate(140.179 81.98)"/><path d="m221.671 227.08a2.336 2.336 0 0 0 4.218.5 39.445 39.445 0 0 0 4.639-25.356 37.572 37.572 0 0 0 -2.286-7.858 212.187 212.187 0 0 1 -12.851 18.621 52.847 52.847 0 0 1 6.28 14.093z" fill="#413c58" fill-rule="evenodd" transform="translate(122.972 76.715)"/><path d="m222.842 188.6c-2.385-5.06-6.5-11.869-11.605-14.7a116.173 116.173 0 0 0 -11.337 11.489 104.079 104.079 0 0 0 -9.946 14.42c6.347 0 13.677 1.568 18.3 6.306l.594.652a25.73 25.73 0 0 1 2.055 2.625 209.757 209.757 0 0 0 12.983-18.3 26.432 26.432 0 0 0 -1.044-2.492z" fill="#f4944d" transform="translate(127.414 80.29)"/><path d="m170.949 228.808q2.7 2.394 5.621 4.63c-.173.066-.338.132-.52.19a39.742 39.742 0 0 1 -12.8 1.964c-9.261.066-18.555-2.1-25.232-6.6a7.148 7.148 0 0 1 -2.858-2.992c4.581-1.436 10.4-8.089 10.78-7.883a83.367 83.367 0 0 0 11.787 5.159 39.527 39.527 0 0 0 9.492 2.237h.446c.289.33.561.619.718.825a26.966 26.966 0 0 0 2.566 2.47z" fill="#f7dea7" fill-rule="evenodd" transform="translate(136.98 72.569)"/><path d="m191.776 219.3a1.62 1.62 0 0 1 2.187 0 7.486 7.486 0 0 1 -.124 7.858 12.273 12.273 0 0 1 -1.931 2.311 52.744 52.744 0 0 0 -4.688-6.091 20.635 20.635 0 0 0 4.556-4.077z" fill="#413c58" fill-rule="evenodd" transform="translate(127.89 72.436)"/><path d="m188.779 231.039a19.165 19.165 0 0 1 -7.313 4.077 38.7 38.7 0 0 1 -4.614-3.871 25.661 25.661 0 0 1 -3.632-4.713c3.211.223 7.082 0 9.9-1.3.124-.058.248-.116.363-.182a13.212 13.212 0 0 0 1.3-.726 53.652 53.652 0 0 1 4.787 5.992c-.255.244-.519.492-.791.723z" fill="#f7dea7" transform="translate(130.335 71.486)"/><path d="m31.938 131.717-14.708 1.057c2.674-.182 5.34 1.849 7.775 5.53a36.1 36.1 0 0 1 2.65 4.886c.561 1.23 1.106 2.559 1.651 3.962.248.669.487 1.362.718 2.072a1.723 1.723 0 0 1 .066.19c.479 1.444.924 2.963 1.354 4.556l.074.289c.173.677.355 1.37.52 2.08a2.251 2.251 0 0 0 .107.437q.57 2.4 1.048 4.952l.1.57c.124.669.239 1.345.355 2.03a4.806 4.806 0 0 0 .107.677c.14.825.272 1.717.388 2.592.124.891.231 1.783.338 2.691 0 .256.058.5.083.759.074.685.149 1.37.215 2.055l.074.825c.083.916.165 1.849.231 2.79s.116 1.865.165 2.79v.825c0 .693.058 1.378.074 2.063v3.475 3.31c0 .693 0 1.378-.066 2.063v.578q-.124 2.616-.347 5.068l-.05.454c-.066.718-.14 1.436-.223 2.13v.3q-.3 2.476-.7 4.7v.2c-.14.735-.281 1.453-.429 2.154-.322 1.461-.669 2.848-1.056 4.127a36.549 36.549 0 0 1 -1.948 5.208c-1.9 3.987-4.259 6.364-6.933 6.554l14.708-1.023c8.122-.57 13.3-21.2 11.555-46.09s-9.774-44.48-17.896-43.886z" fill="#443f5c" transform="translate(157.572 87.657)"/><ellipse cx="14.741" cy="45.165" fill="#938bb7" rx="14.741" ry="45.165" transform="matrix(.99757621 -.06958236 .06958236 .99757621 160.089 221.428)"/><path d="m14.453 159.069-7.313.512c1.329-.091 2.658.982 3.879 2.922a19.09 19.09 0 0 1 1.329 2.575c.281.644.553 1.345.825 2.088.124.355.239.718.363 1.09v.107c.231.759.462 1.56.677 2.394a1 1 0 0 0 .041.149c.091.363.173.726.264 1.1l.05.231c.19.825.371 1.717.528 2.616a1.888 1.888 0 0 0 .058.3c.058.355.124.71.182 1.073l.05.355q.116.669.2 1.362c.058.462.116.941.173 1.411a1.349 1.349 0 0 0 .041.4c.041.355.074.718.107 1.081v.421c.041.487.083.974.116 1.469s.066.982.091 1.469v.421a9.4 9.4 0 0 0 .041 1.081v1.832 3.12c0 .916-.091 1.808-.157 2.666v.239a10.131 10.131 0 0 1 -.107 1.123.917.917 0 0 0 0 .157q-.149 1.238-.347 2.476v.107c-.066.388-.132.759-.206 1.131-.157.768-.33 1.494-.512 2.179a20.107 20.107 0 0 1 -.957 2.732c-.941 2.088-2.1 3.3-3.442 3.434l7.321-.512c4.036-.281 6.6-11.118 5.662-24.192s-4.954-23.4-8.957-23.119z" fill="#5b547c" transform="translate(159.334 82.88)"/><ellipse cx="7.338" cy="23.738" fill="#796fa7" rx="7.338" ry="23.738" transform="matrix(.99757621 -.06958236 .06958236 .99757621 159.108 242.972)"/><g fill="#443f5c"><path d="m35.41 119.946c11.027-28.987 34.452-46.725 59.866-61.706-34.13 5.7-64.62 29.788-78.066 61.706" transform="translate(157.576 100.485)"/><path d="m294.733 270.782a4.754 4.754 0 0 0 -.47-1.519l-11.308-36.078 1.114.652c6.05 3.582 9.211 5.283 10.73 5.283v-2.476c-1.189 0-6.793-3.343-9.492-4.952-1.832-1.081-3.3-1.94-3.978-2.245l-2.476-1.106 12.191 38.892c-1.956-.149-3.962.825-5.778 1.56a35.333 35.333 0 0 0 -7.759 4c-1.593 1.139-3.929 2.641-5.117 5.051a7.329 7.329 0 0 0 -.726 2.6c-.66 7.726 10.045 3.153 11.778 2.427a26.412 26.412 0 0 0 6.933-3.789c1.651-1.362 4.482-4.226 4.4-7.569l.157-.05z" transform="translate(113.151 70.784)"/><path d="m317.578 72.925.883-2.311c-1.75-.669-9.418-6.727-10.928-8.254l-1.923-1.94-2.864 40.651c-1.766-.825-4-.652-5.918-.644a35.261 35.261 0 0 0 -8.708.916c-1.9.47-4.622 1.015-6.6 2.823a7.1 7.1 0 0 0 -1.651 2.154c-3.442 6.95 8.2 6.6 10.07 6.6a26.3 26.3 0 0 0 7.833-.99c2.039-.66 5.72-2.3 6.867-5.439h.157l.058-.726a5.11 5.11 0 0 0 .107-1.593l2.757-38.323c2.944 2.42 8.094 6.399 9.86 7.076z" transform="translate(111.824 100.104)"/><path d="m348.907 156.269a26.345 26.345 0 0 0 7.173-3.3c1.75-1.246 4.762-3.912 4.952-7.255h.157l-.173-.71a4.812 4.812 0 0 0 -.371-1.552l-8.945-37.491a68.393 68.393 0 0 0 10.994 2.8l.157-2.476a66.457 66.457 0 0 1 -12.331-3.442l-2.42-1.273 9.467 39.619c-1.94-.281-4 .578-5.836 1.164a35.492 35.492 0 0 0 -8.015 3.458c-1.651 1.023-4.127 2.361-5.456 4.68a7.273 7.273 0 0 0 -.9 2.542c-1.23 7.66 9.772 3.846 11.547 3.236z" transform="translate(101.691 92.919)"/><path d="m332.617 295.49 9.467 39.619c-1.94-.281-4.011.578-5.844 1.164a35.66 35.66 0 0 0 -8.015 3.458c-1.651 1.023-4.127 2.361-5.456 4.68a7.272 7.272 0 0 0 -.9 2.542c-1.2 7.66 9.806 3.846 11.555 3.236a26.5 26.5 0 0 0 7.181-3.3c1.742-1.246 4.762-3.912 4.911-7.255h.157l-.173-.718a4.813 4.813 0 0 0 -.363-1.543l-8.931-37.5a68.4 68.4 0 0 0 10.994 2.8l.157-2.476a66.633 66.633 0 0 1 -12.331-3.442z" transform="translate(104.395 59.059)"/><path d="m364.4 189.806c-.784-1.552-1.4-2.765-1.733-3.3l-1.4-2.344-12.455 38.793c-1.51-1.255-3.714-1.6-5.588-2.055a35.74 35.74 0 0 0 -8.65-1.189c-1.948 0-4.73-.107-7.09 1.18a7.015 7.015 0 0 0 -2.08 1.7c-5 5.935 6.388 8.369 8.254 8.774a26.661 26.661 0 0 0 7.85.9c2.138-.165 6.1-.883 7.957-3.656l.157.05.223-.7a4.8 4.8 0 0 0 .487-1.51l11.555-36.152.305.611c3.384 6.661 5.332 10.21 6.6 11.11l1.411-2.039c-1.012-.723-4.363-7.342-5.803-10.173z" transform="translate(103.982 78.498)"/><path d="m173.42 131.616a9 9 0 0 1 2.047-4.036 17.8 17.8 0 0 1 3.376-3.079 28.063 28.063 0 0 1 8.122-3.912 19.553 19.553 0 0 1 4.581-.825 18.852 18.852 0 0 1 4.63.3 17.259 17.259 0 0 1 8.138 3.805 73.656 73.656 0 0 0 -8.436-.429 36.316 36.316 0 0 0 -3.945.314 32.808 32.808 0 0 0 -3.838.825 63.116 63.116 0 0 0 -7.717 2.658 32.113 32.113 0 0 0 -3.656 1.824 13.8 13.8 0 0 0 -3.302 2.555z" transform="translate(130.3 89.748)"/><path d="m81.34 151.771a12.851 12.851 0 0 1 4.515-7.759 17.094 17.094 0 0 1 8.411-3.912 27.5 27.5 0 0 1 8.931-.116 17.548 17.548 0 0 1 8.254 3.169 45.984 45.984 0 0 0 -8.386-.05 61.626 61.626 0 0 0 -8.015 1.024 24.861 24.861 0 0 0 -7.206 2.625 26.314 26.314 0 0 0 -6.504 5.019z" transform="translate(146.378 86.266)"/></g><g transform="translate(0 507.904)"><path d="m5 0h61.043a0 0 0 0 1 0 0v66.043a0 0 0 0 1 0 0h-66.043a0 0 0 0 1 0 0v-61.043a5 5 0 0 1 5-5z" fill="#2eafbe"/><path d="m66.043 0h66.043v66.043h-66.043z" fill="#d78380"/><path d="m0 66.043h66.043v66.043h-66.043z" fill="#f6ddaa"/><path d="m66.043 66.043h66.043v66.043h-66.043z" fill="#443f5b"/></g><circle cx="66.043" cy="573.947" fill="#fff" r="37.383"/><path d="m27.42 0 4.557 31.667-31.977-5.188z" fill="#443f5b" transform="matrix(.695 -.719 .719 .695 39.479 573.858)"/><path d="m5 0h639.914a5 5 0 0 1 5 5v127.087a0 0 0 0 1 0 0h-649.914a0 0 0 0 1 0 0v-127.087a5 5 0 0 1 5-5z" fill="none" transform="translate(0 507.904)"/><path d="m0 0h548.725a5 5 0 0 1 5 5v127.087a0 0 0 0 1 0 0h-553.725a0 0 0 0 1 0 0v-132.087a0 0 0 0 1 0 0z" fill="#d5d5d5" transform="translate(132.326 507.904)"/><text fill="#273656" font-family="Poppins-Bold, Poppins" font-size="56" font-weight="700" transform="translate(221.393 537.358)"><tspan x="0" y="59">Stylin’ Tunes</tspan></text></svg>