<svg xmlns="http://www.w3.org/2000/svg" viewBox="0 0 281.04 331.44"><defs><style>.cls-1,.cls-4{fill:#fff;}.cls-1,.cls-2,.cls-3,.cls-4{stroke:#3A2310;stroke-width:5px;}.cls-1,.cls-2{stroke-miterlimit:10;}.cls-2,.cls-3{fill:none;}.cls-3,.cls-4{stroke-linecap:round;stroke-linejoin:round;fill-rule:evenodd;}</style></defs><title>Bulldog_1</title><g id="Layer_2" data-name="Layer 2"><g id="Layer_1-2" data-name="Layer 1"><rect class="cls-1" x="51.51" y="1" width="228.54" height="276.41"/><rect class="cls-2" x="58.3" y="9.21" width="214.95" height="259.98"/><path class="cls-3" d="M94.75,224.17l17.75-76.92a3.56,3.56,0,0,1,6.9-.15l12.45,45a3.56,3.56,0,0,0,6.81.19l10-29.58a3.56,3.56,0,0,1,6.77.06l19.11,60.52a3.56,3.56,0,0,0,6.78,0L241.09,40.84"/><path class="cls-4" d="M93.36,274.2,66.55,221.56a19.85,19.85,0,1,0-28.51-10l-.51.26a19.85,19.85,0,1,0-8.67,28.95l26.8,52.62a19.85,19.85,0,1,0,27.59,8.2A18.65,18.65,0,0,0,82,299.5l.6-.31a21.55,21.55,0,0,0,1,2.22,19.85,19.85,0,1,0,9.78-27.21Z"/></g></g></svg>