<svg xmlns="http://www.w3.org/2000/svg" viewBox="0 0 354.32 145.97"><defs><style>.cls-1{fill:#fff;}.cls-1,.cls-2{stroke:#8C83A0;stroke-linecap:round;stroke-linejoin:round;stroke-width:5px;fill-rule:evenodd;}.cls-2{fill:none;}</style></defs><title>Bunny</title><g id="Layer_2" data-name="Layer 2"><g id="Layer_1-2" data-name="Layer 1"><path class="cls-1" d="M353.31,74.85c-.09,20.53-2.39,42.38-15.75,57.82a35.21,35.21,0,0,1-14,10.24c-6.31,2.37-13.26,2.34-20,1.68-25.34-2.47-49-13.24-72.1-24-8.2-3.83-25.36-9.8-29.53-18.58-2-4.26-1.23-12.91-1.55-17.67-.52-7.71-1.82-17-.94-24.55s7-14.3,12.18-19.48c13.55-13.64,28.83-26,46.66-33.19s38.56-8.67,56.13-.89a84.61,84.61,0,0,1,15.91,9.63,61.87,61.87,0,0,1,11.11,10c10.44,12.62,11.77,30.28,11.82,46.66C353.32,73.28,353.32,74.06,353.31,74.85Z"/><path class="cls-1" d="M1,74.85c.09,20.53,2.39,42.38,15.75,57.82a35.25,35.25,0,0,0,14,10.24c6.3,2.37,13.25,2.34,20,1.68,25.34-2.47,49-13.24,72.1-24,8.2-3.83,25.36-9.8,29.53-18.58,2-4.26,1.22-12.91,1.55-17.67.52-7.71,1.81-17,.94-24.55s-7-14.3-12.18-19.48C129.09,26.64,113.81,14.26,96,7.09S57.42-1.58,39.84,6.2a84.61,84.61,0,0,0-15.91,9.63,61.47,61.47,0,0,0-11.1,10C2.38,38.46,1.05,56.12,1,72.5Z"/><path class="cls-1" d="M215.31,56.29c-1.84-5.59-4.57-10.7-8.86-14.62a54.33,54.33,0,0,0-34.32-14c-10.09-.37-26.92,2.23-33.74,10.74-7,8.77-8,23.36-8.58,34.05-.53,10.29-.1,21.15,5.2,30,4.33,7.23,11.6,12.39,19.48,15.38s16.38,4,24.81,4.3c7.51.28,15.18,0,22.31-2.41s13.7-7.24,16.82-14.09c3.31-7.25,2.39-15.65,1.4-23.57C218.82,73.9,218,64.56,215.31,56.29Z"/><path class="cls-2" d="M217.62,66.1A65.43,65.43,0,0,1,253,48.49"/><path class="cls-2" d="M221.09,96.49c2.71,2.51,5.75,2.74,9.42,3.21s7.39.29,11.08.48"/><path class="cls-2" d="M130.16,63.12a34.53,34.53,0,0,0-19.27-4"/><path class="cls-2" d="M104.31,103.88c4.73-.47,9.49.06,14.23.11s9.67-.42,13.82-2.71c.45-.25.94-.6.94-1.11"/></g></g></svg>