<svg xmlns="http://www.w3.org/2000/svg" viewBox="0 0 340.97 203.73"><defs><style>.cls-1,.cls-2{fill:#fff;stroke:#CBC715;stroke-miterlimit:10;stroke-width:5px;}.cls-2{fill-rule:evenodd;}</style></defs><title>Cat</title><g id="Layer_2" data-name="Layer 2"><g id="Layer_1-2" data-name="Layer 1"><rect class="cls-1" x="17.73" y="1" width="305.5" height="180.74" rx="10.58"/><rect class="cls-1" x="91.82" y="-48.16" width="157.33" height="279.07" rx="1.66" transform="translate(261.86 -79.11) rotate(90)"/><rect class="cls-1" x="1" y="181.35" width="338.97" height="21.38" rx="3.03"/><rect class="cls-1" x="128.65" y="181.35" width="83.67" height="10.23"/><path class="cls-2" d="M170.19,148.07c-73.32,0-44.94-99.46-35.5-99.46,5.44,0,15.07,12.34,19,17.76a6.08,6.08,0,0,0,4.92,2.49h23.08a6.08,6.08,0,0,0,4.92-2.49c4-5.42,13.6-17.76,19-17.76C215.13,48.61,243.51,148.07,170.19,148.07Z"/><circle class="cls-1" cx="191.38" cy="96.48" r="8.47"/><circle class="cls-1" cx="149" cy="96.48" r="8.47"/><path class="cls-1" d="M156.6,123.67c0,2.24,1.47,6.14,7.82,6.12,5.89,0,6.45-6.7,6.45-6.7h0s.56,6.7,6.45,6.7c6.35,0,7.83-3.88,7.83-6.12"/><path class="cls-2" d="M170.87,111.27c-4.41,0-8,.19-8,3.08s8,5.24,8,5.24,8-2.35,8-5.24S175.28,111.27,170.87,111.27Z"/></g></g></svg>