<svg xmlns="http://www.w3.org/2000/svg" viewBox="0 0 256.92 304.24"><defs><style>.cls-1,.cls-2{fill:#fff;stroke:#22AFBF;stroke-width:5px;}.cls-1{stroke-miterlimit:10;}.cls-2{stroke-linecap:round;stroke-linejoin:round;}</style></defs><title>Flamingo</title><g id="Layer_2" data-name="Layer 2"><g id="Layer_1-2" data-name="Layer 1"><path class="cls-1" d="M206.31,91c25.91,26.92-24.61,50.33-23.89,78.15.88,33.89,81.69,41.29,20,97.14A120.54,120.54,0,1,1,40.61,87.64C90,43,157.64,40.46,206.31,91Z"/><path class="cls-1" d="M188.38,235.2a18.18,18.18,0,1,1-35.44,8.09c-2.24-9.79,3-23.27,12.83-25.5S186.15,225.41,188.38,235.2Z"/><path class="cls-1" d="M77.38,272.5a15.5,15.5,0,0,1-3-2c-5.75-4.92-7.7-13-7.68-20.61a27.86,27.86,0,0,1,2.11-11.51,14.48,14.48,0,0,1,8.26-7.94c11.47-3.79,26.91,2.78,36.19,8.9,3.91,2.58,10.82,8.07,9.75,13.36-1.15,5.69-12.19,10.55-17,11.73a16.44,16.44,0,0,0-3.33,1c-1.91.93-3.2,2.74-4.71,4.23C92.71,274.9,83.91,275.91,77.38,272.5Z"/><path class="cls-1" d="M22.33,206.8a10,10,0,0,0,4.59,1.93,21.89,21.89,0,0,1,3.79.53c2.44.81,3.9,3.23,5.66,5.11,4.76,5,15.75,7.23,21.77,3.12,4.2-2.85,4.44-9.18,2.34-13.8s-5.91-8.2-8.81-12.37c-2.39-3.43-4.16-7.26-6.57-10.68s-5.69-6.49-9.76-7.43c-10.09-2.31-17.71,12.22-18.48,20.47C16.41,198.59,18.52,204,22.33,206.8Z"/><path class="cls-1" d="M115,77a23.71,23.71,0,0,0-5.38,3.11C103.12,85.27,93.84,97.93,98,106.75c2.15,4.6,8.36,5.84,13.25,4.5s9-4.53,13.62-6.73c3.76-1.82,7.83-3,11.58-4.8s7.32-4.58,8.89-8.46a11.8,11.8,0,0,0-2.18-11.67C137.06,72.33,123.92,73.15,115,77Z"/><path class="cls-1" d="M34,128.47c-2.4,13.25,4.61,22.38,16,29.23a15.23,15.23,0,0,0,5.53,2.41c5,.72,9.47-3.78,11-8.61s1.17-10.05,1.84-15.08c.56-4.14,1.84-8.17,2.35-12.32s.19-8.62-2.19-12.06a11.79,11.79,0,0,0-11-4.59c-3.54.41-5,3.09-7.74,4.68s-6.62,1.35-8.7,3.72c-1.59,1.82-1.48,4.84-3.38,6.35a21.48,21.48,0,0,0-2.17,1.44,4.9,4.9,0,0,0-1,2.12C34.38,126.68,34.18,127.58,34,128.47Z"/><path class="cls-2" d="M166.31,22.74C168,16,163.35,8.56,167.88,1h0c2.33,6.55,9,9.5,15.39,12.9a40.76,40.76,0,0,1,8,5.22c7.39,6.62,3.56,37-9,40.28-2.79.74-21.13-9.28-18.69-29.09C163.94,27,165.74,25,166.31,22.74Z"/><path class="cls-1" d="M189.51,112.69,234.86,300.5c.53,2.24,3.82,3.33,7.29,2.41l8.51-2.24c3.45-.91,5.77-3.45,5.16-5.66L204.5,108.36"/><polygon class="cls-1" points="204.5 108.36 189.62 54.49 182.66 56.33 176.44 57.97 189.51 112.69 204.5 108.36"/><path class="cls-2" d="M168,1.35C170.28,7.9,186.07,15,187.4,15.6c2.55,1.09,5.31,2.38,6.5,4.88a6,6,0,0,1-3.26,7.9c-1.37.49-3,.51-4,1.59a4.31,4.31,0,0,0-.81,1.56c-.72,2.19-.91,4.58-2.08,6.57s-3.84,3.42-5.79,2.18c-2.16-1.37-2-5-4.28-6.2-1.8-.94-4.07.23-6-.39s-6.37-2.15-5.29-3.8C166.49,23.59,163.45,8.91,168,1.35Z"/></g></g></svg>