<svg xmlns="http://www.w3.org/2000/svg" viewBox="0 0 269.43 156.71"><defs><style>.cls-1{fill:none;fill-rule:evenodd;}.cls-1,.cls-2{stroke:#F58020;stroke-miterlimit:10;stroke-width:5px;}.cls-2{fill:#fff;}</style></defs><title>Fox</title><g id="Layer_2" data-name="Layer 2"><g id="Layer_1-2" data-name="Layer 1"><path class="cls-1" d="M144.15,65.68c7.77-1.37,13.79,1.67,14.06,5.67s-5.16,7.58-11.28,8.67"/><path class="cls-1" d="M166.55,63.78a17.59,17.59,0,0,1,9.49,2.6c2.32,1.58,3.5,3.59,3.2,5.6s-1.94,3.6-4.21,4.68a19.57,19.57,0,0,1-8.54,1.73c-6.51,0-12.24-2.66-12.71-6.67S159,63.75,166.55,63.78Z"/><path class="cls-1" d="M185.19,80.64A20.59,20.59,0,0,1,177.62,77c-2-1.58-3.2-3.52-3-5.52s1.77-3.71,4.4-4.72a16.93,16.93,0,0,1,10.12-.14"/><path class="cls-1" d="M189.11,66.58a16.56,16.56,0,0,1,8.8,5.68c1.76,2.41,2,4.82.86,6.49s-3.23,2.42-5.58,2.69a20.61,20.61,0,0,1-8-.8"/><path class="cls-1" d="M210.59,79.64c2.88,3.54,4.06,7.75,3.59,10.77a6.8,6.8,0,0,1-1.35,3.64,4.16,4.16,0,0,1-2.53,1.65,5.41,5.41,0,0,1-3-.3,14.31,14.31,0,0,1-2.88-1.6,29.9,29.9,0,0,1-5.13-4.9,28,28,0,0,1-3.87-6.17c-1-2.13-1.37-4.4-.5-6.2s3-2.81,6-2.54A15,15,0,0,1,210.59,79.64Z"/><path class="cls-1" d="M205.67,106.09a16.53,16.53,0,0,1-.84-2.91,12.69,12.69,0,0,1-.36-2.83,20,20,0,0,1,.1-2.62,7.64,7.64,0,0,1,.5-1.73,10.74,10.74,0,0,1,.74-1.57,7.68,7.68,0,0,1,.83-1.34A5.56,5.56,0,0,1,209,91.21a4.19,4.19,0,0,1,3,0,6.78,6.78,0,0,1,1.62.87,9.27,9.27,0,0,1,1.47,1.47,18.65,18.65,0,0,1,1.37,1.94,12.43,12.43,0,0,1,1.06,1.61l.95,1.77c.32.62.51,1.28.82,2"/><path class="cls-1" d="M219.3,100.84a22.1,22.1,0,0,1,1.62,8c0,2.47-.68,4.65-2.33,5.83s-4,1-6.46-.41a16.36,16.36,0,0,1-6.46-8.14"/><path class="cls-1" d="M229.23,116.26c4.24,4.73,6.29,10.66,3.69,13.77-1.31,1.52-3.63,2-6.3,1.31A18.51,18.51,0,0,1,213.94,117c-.35-2.81.49-5,2.23-6.07s4-.77,6.27.21A20.37,20.37,0,0,1,229.23,116.26Z"/><path class="cls-1" d="M234.76,140.93a17.72,17.72,0,0,1-6-7.64c-1-2.56-.73-4.95.65-6.39s3.62-1.81,6.17-1.37a19.43,19.43,0,0,1,8,3.78"/><path class="cls-1" d="M243.61,129.31c5.29,4,8.19,9.69,6,13.11s-8.94,3-14.89-1.49"/><path class="cls-1" d="M260.42,140.46c5.83,3.41,9.32,8.75,7.54,12.39s-8.55,3.93-14.89.23S243.64,143.27,246,140,254.59,137.07,260.42,140.46Z"/><circle class="cls-2" cx="74.54" cy="74.54" r="73.53"/><circle class="cls-2" cx="74.54" cy="74.54" r="58.34"/></g></g></svg>