<svg xmlns="http://www.w3.org/2000/svg" viewBox="0 0 486 336.634">
  <defs>
    <style>
      .cls-1 {
        fill: #cac631;
      }

      .cls-2 {
        fill: #f0efef;
      }

      .cls-3 {
        fill: #435969;
      }

      .cls-10, .cls-12, .cls-14, .cls-15, .cls-4 {
        fill: none;
      }

      .cls-13, .cls-14, .cls-16, .cls-4 {
        stroke: #36adbd;
      }

      .cls-10, .cls-12, .cls-13, .cls-14, .cls-15, .cls-16, .cls-4 {
        stroke-miterlimit: 10;
      }

      .cls-4 {
        stroke-width: 0.903px;
      }

      .cls-5 {
        fill: #36adbd;
      }

      .cls-6 {
        fill: #afdee5;
      }

      .cls-7 {
        fill: #d7eff2;
      }

      .cls-8 {
        fill: #f3cd75;
      }

      .cls-9 {
        fill: #f8e1ac;
      }

      .cls-10 {
        stroke: #f0efef;
        stroke-width: 0.637px;
      }

      .cls-11 {
        fill: #eb583d;
      }

      .cls-12 {
        stroke: #435969;
        stroke-width: 1.274px;
      }

      .cls-13, .cls-16 {
        fill: #fff;
      }

      .cls-13, .cls-14, .cls-15 {
        stroke-width: 1.152px;
      }

      .cls-15 {
        stroke: #da847e;
      }

      .cls-16 {
        stroke-width: 1.145px;
      }
    </style>
  </defs>
  <g id="Group_898" data-name="Group 898" transform="translate(-159 -2928.366)">
    <circle id="Ellipse_290" data-name="Ellipse 290" class="cls-1" cx="109" cy="109" r="109" transform="translate(393 3047)"/>
    <g id="WTCSS_bulletinboard_layout" transform="translate(159 3047)">
      <rect id="Rectangle_15" data-name="Rectangle 15" class="cls-2" width="282.098" height="178.1"/>
      <g id="Group_9" data-name="Group 9" transform="translate(76.661 141.224)">
        <g id="Group_8" data-name="Group 8">
          <path id="Path_26" data-name="Path 26" class="cls-3" d="M65.9,121.7h5.933v17.566h9.655v5H65.9Z" transform="translate(-65.9 -121.351)"/>
          <path id="Path_27" data-name="Path 27" class="cls-3" d="M98.562,144.384l-1.512-3.955H87.278l-1.629,3.955H79.6L89.372,121.7h6.049l9.539,22.684Zm-9.539-8.608H95.3l-3.141-8.027Z" transform="translate(-63.663 -121.351)"/>
          <path id="Path_28" data-name="Path 28" class="cls-3" d="M121.952,121.7l-8.143,15.472v7.212h-5.933v-7.1L99.5,121.7h5.933l5.351,9.772,5.235-9.772h5.933Z" transform="translate(-60.413 -121.351)"/>
          <path id="Path_29" data-name="Path 29" class="cls-3" d="M137.513,122.912a11.784,11.784,0,0,1,4.421,4.188,11.345,11.345,0,0,1,1.629,5.933,12.08,12.08,0,0,1-1.629,6.049,10.952,10.952,0,0,1-4.421,4.188,13.8,13.8,0,0,1-12.564,0,11.385,11.385,0,0,1-6.049-10.237,11.345,11.345,0,0,1,1.629-5.933,11.784,11.784,0,0,1,4.421-4.188,13.8,13.8,0,0,1,12.564,0Zm-9.306,4.3a6.718,6.718,0,0,0-2.327,2.443,6.589,6.589,0,0,0-.814,3.374,6.312,6.312,0,0,0,.814,3.374,6.445,6.445,0,0,0,5.467,3.374,6.165,6.165,0,0,0,3.141-.931,5.627,5.627,0,0,0,2.21-2.443,6.884,6.884,0,0,0,.814-3.374,6.589,6.589,0,0,0-.814-3.374,6.439,6.439,0,0,0-2.21-2.443,5.85,5.85,0,0,0-3.141-.931A7.076,7.076,0,0,0,128.206,127.216Z" transform="translate(-57.246 -121.4)"/>
          <path id="Path_30" data-name="Path 30" class="cls-3" d="M149.412,138.451a4.377,4.377,0,0,0,3.257,1.28,4.3,4.3,0,0,0,3.141-1.28,4.7,4.7,0,0,0,1.163-3.49V121.7h5.933v13.262a10.114,10.114,0,0,1-1.28,5.118,7.823,7.823,0,0,1-3.606,3.374,11.492,11.492,0,0,1-5.467,1.163,11.81,11.81,0,0,1-5.467-1.163,9.182,9.182,0,0,1-3.606-3.374,10.114,10.114,0,0,1-1.28-5.118V121.7h5.933v13.262A4.942,4.942,0,0,0,149.412,138.451Z" transform="translate(-53.441 -121.351)"/>
          <path id="Path_31" data-name="Path 31" class="cls-3" d="M161.7,121.7h19.427v4.886H174.38v17.8h-5.933v-17.8H161.7V121.7Z" transform="translate(-50.257 -121.351)"/>
        </g>
      </g>
      <g id="Group_10" data-name="Group 10" transform="translate(17.217 19.892)">
        <rect id="Rectangle_16" data-name="Rectangle 16" class="cls-4" width="49.673" height="44.438"/>
        <rect id="Rectangle_17" data-name="Rectangle 17" class="cls-5" width="49.673" height="44.438" transform="translate(53.395)"/>
        <rect id="Rectangle_18" data-name="Rectangle 18" class="cls-5" width="102.486" height="53.511" transform="translate(0 48.16)"/>
        <rect id="Rectangle_19" data-name="Rectangle 19" class="cls-4" width="36.178" height="101.672" transform="translate(211.603)"/>
        <rect id="Rectangle_20" data-name="Rectangle 20" class="cls-4" width="99.229" height="44.438" transform="translate(107.372)"/>
        <rect id="Rectangle_21" data-name="Rectangle 21" class="cls-5" width="99.229" height="12.098" transform="translate(107.372 48.16)"/>
        <rect id="Rectangle_22" data-name="Rectangle 22" class="cls-5" width="99.229" height="12.098" transform="translate(107.372 68.867)"/>
        <rect id="Rectangle_23" data-name="Rectangle 23" class="cls-5" width="99.229" height="12.098" transform="translate(107.372 89.573)"/>
        <line id="Line_1" data-name="Line 1" class="cls-4" y1="44.438" x2="99.229" transform="translate(107.372)"/>
        <line id="Line_2" data-name="Line 2" class="cls-4" x1="99.229" y1="44.438" transform="translate(107.372)"/>
        <line id="Line_3" data-name="Line 3" class="cls-4" x2="49.673" y2="44.438"/>
        <line id="Line_4" data-name="Line 4" class="cls-4" y1="44.438" x2="49.673"/>
      </g>
    </g>
    <g id="WTCSS_bulletinboard_mobile" transform="translate(465 2947)">
      <rect id="Rectangle_24" data-name="Rectangle 24" class="cls-2" width="132.4" height="247"/>
      <g id="Group_12" data-name="Group 12">
        <g id="Group_11" data-name="Group 11">
          <path id="Path_32" data-name="Path 32" class="cls-3" d="M13.4,189.9h5.4l5.5,11.2,5.5-11.2h5.4V209H30.8V196.9L26,207.1H22.8l-4.9-10.2V209H13.5V189.9Z"/>
          <path id="Path_33" data-name="Path 33" class="cls-3" d="M53.3,190.9A10.007,10.007,0,0,1,57,204.5a9.846,9.846,0,0,1-3.7,3.6,10.416,10.416,0,0,1-5.3,1.3,10.416,10.416,0,0,1-5.3-1.3,9.16,9.16,0,0,1-3.7-3.6,9.687,9.687,0,0,1-1.3-5.1,9.333,9.333,0,0,1,1.3-5,8.923,8.923,0,0,1,3.7-3.5,10.416,10.416,0,0,1,5.3-1.3A11.536,11.536,0,0,1,53.3,190.9Zm-7.8,3.7a6.06,6.06,0,0,0-1.9,2,5.3,5.3,0,0,0-.7,2.8,5.664,5.664,0,0,0,.7,2.9,5.235,5.235,0,0,0,1.9,2,5.179,5.179,0,0,0,5.2,0,6.06,6.06,0,0,0,1.9-2,5.664,5.664,0,0,0,.7-2.9,5.3,5.3,0,0,0-.7-2.8,5.235,5.235,0,0,0-1.9-2,5.179,5.179,0,0,0-5.2,0Z"/>
          <path id="Path_34" data-name="Path 34" class="cls-3" d="M73.6,190.5a5.083,5.083,0,0,1,2.5,1.7,4.206,4.206,0,0,1,0,5.2,4.316,4.316,0,0,1-2.4,1.5,4.556,4.556,0,0,1,2.9,1.7,4.9,4.9,0,0,1,1,3.2,4.47,4.47,0,0,1-.9,2.8,6.518,6.518,0,0,1-2.6,1.9,11.418,11.418,0,0,1-3.9.6H60.8V190h9.1A8.53,8.53,0,0,1,73.6,190.5ZM71.3,197a1.678,1.678,0,0,0,.6-1.4,1.486,1.486,0,0,0-.6-1.3,2.04,2.04,0,0,0-1.6-.4H65.9v3.7h3.8A2.835,2.835,0,0,0,71.3,197Zm.4,7.6a1.9,1.9,0,0,0,.8-1.5,1.6,1.6,0,0,0-.8-1.4,3.282,3.282,0,0,0-2.1-.5H65.8v4h3.8A4.025,4.025,0,0,0,71.7,204.6Z"/>
          <path id="Path_35" data-name="Path 35" class="cls-3" d="M80.3,189.9h5V209h-5Z"/>
          <path id="Path_36" data-name="Path 36" class="cls-3" d="M89,189.9h5v14.8h8.1v4.2H89Z"/>
          <path id="Path_37" data-name="Path 37" class="cls-3" d="M104.3,189.9h15v4H109.2v3.6h9.1v3.9h-9.1V205h10.3v4H104.2V189.9Z"/>
          <path id="Path_38" data-name="Path 38" class="cls-3" d="M28,220.7a9.16,9.16,0,0,1,4.9,8.4,9.333,9.333,0,0,1-1.3,5,9.048,9.048,0,0,1-3.6,3.4,11.908,11.908,0,0,1-5.4,1.2h-8V219.6h8.2A9.948,9.948,0,0,1,28,220.7Zm-2.6,13.2a5.194,5.194,0,0,0,1.7-1.9,6.527,6.527,0,0,0,.6-2.9,5.664,5.664,0,0,0-.7-2.9,4.722,4.722,0,0,0-1.8-1.9,4.953,4.953,0,0,0-2.7-.7H19.4v11h3.4A5.279,5.279,0,0,0,25.4,233.9Z"/>
          <path id="Path_39" data-name="Path 39" class="cls-3" d="M35.4,219.5h15v4H40.3v3.6h9.1V231H40.3v3.6H50.6v4H35.4Z"/>
          <path id="Path_40" data-name="Path 40" class="cls-3" d="M63.6,223.8a9.335,9.335,0,0,0-2.9-.6,3.339,3.339,0,0,0-1.5.3,1.016,1.016,0,0,0-.5,1,1.231,1.231,0,0,0,.5,1,10.54,10.54,0,0,0,1.1.7c.5.2,1.1.4,2,.7,1.3.4,2.4.8,3.3,1.1a5.485,5.485,0,0,1,2.2,1.8,4.964,4.964,0,0,1,.9,3.1,5.183,5.183,0,0,1-1,3.3,5.786,5.786,0,0,1-2.8,2,10.016,10.016,0,0,1-3.9.7,14.961,14.961,0,0,1-4.7-.8,13.622,13.622,0,0,1-4.1-2.3l1.9-3.9a10.783,10.783,0,0,0,3.4,2.1,10.223,10.223,0,0,0,3.5.8,3.425,3.425,0,0,0,1.8-.4,1.425,1.425,0,0,0,.6-1.2,1.606,1.606,0,0,0-.5-1.1,3.458,3.458,0,0,0-1.2-.7,16.7,16.7,0,0,0-2-.6,23.253,23.253,0,0,1-3.2-1.1,5.248,5.248,0,0,1-2.2-1.7,4.86,4.86,0,0,1-.9-3,5.384,5.384,0,0,1,.9-3.1,5.816,5.816,0,0,1,2.7-2.1,10.187,10.187,0,0,1,4-.7,14.533,14.533,0,0,1,4.1.6,12.481,12.481,0,0,1,3.5,1.6l-1.9,4A12.761,12.761,0,0,0,63.6,223.8Z"/>
          <path id="Path_41" data-name="Path 41" class="cls-3" d="M71.3,219.5h5v19.1h-5Z"/>
          <path id="Path_42" data-name="Path 42" class="cls-3" d="M92.6,228.8h4.3v7.6a15.932,15.932,0,0,1-3.7,1.8,13.184,13.184,0,0,1-4.2.7,10.048,10.048,0,0,1-5.2-1.3,9.826,9.826,0,0,1-3.7-3.6,9.687,9.687,0,0,1-1.3-5.1,9.4,9.4,0,0,1,1.4-5,9.18,9.18,0,0,1,3.8-3.5,10.792,10.792,0,0,1,5.4-1.3,12.5,12.5,0,0,1,4.2.8,10.679,10.679,0,0,1,3.6,2.1l-2.8,3.5a7.76,7.76,0,0,0-2.4-1.6,6.6,6.6,0,0,0-2.7-.6,4.953,4.953,0,0,0-2.7.7,5.2,5.2,0,0,0-1.9,2,6.531,6.531,0,0,0-.7,2.9,5.664,5.664,0,0,0,.7,2.9,4.82,4.82,0,0,0,2,2,5.3,5.3,0,0,0,2.8.7,7.467,7.467,0,0,0,3.3-.9v-4.8Z"/>
          <path id="Path_43" data-name="Path 43" class="cls-3" d="M113.2,219.5h4.6v19.1h-4.4l-8.7-11.4v11.4H100V219.5h4.4l8.7,11.5Z"/>
        </g>
      </g>
      <g id="Group_13" data-name="Group 13">
        <path id="Path_44" data-name="Path 44" class="cls-3" d="M100,173.9H32.3a6.231,6.231,0,0,1-6.2-6.2V24.2A6.231,6.231,0,0,1,32.3,18H100a6.231,6.231,0,0,1,6.2,6.2V167.7A6.167,6.167,0,0,1,100,173.9Z"/>
        <rect id="Rectangle_25" data-name="Rectangle 25" class="cls-6" width="80" height="113.2" transform="translate(26.2 29.5)"/>
        <ellipse id="Ellipse_3" data-name="Ellipse 3" class="cls-7" cx="8.5" cy="8.6" rx="8.5" ry="8.6" transform="translate(57.7 149.7)"/>
      </g>
    </g>
    <g id="WTCSS_bulletinboard_postit" transform="translate(570.2 2957.2)">
      <g id="Group_107" data-name="Group 107">
        <g id="Group_106" data-name="Group 106">
          <path id="Path_174" data-name="Path 174" class="cls-8" d="M54.8,73.4l-52-5L9.1,2.8,74.8,9.1l-5,52"/>
          <path id="Path_175" data-name="Path 175" class="cls-9" d="M57.3,73.7,53,73.2l1.5-15.5L70,59.2l-.4,4.3A11.372,11.372,0,0,1,57.3,73.7Z"/>
        </g>
      </g>
      <g id="Group_108" data-name="Group 108">
        <line id="Line_16" data-name="Line 16" class="cls-10" x2="3.6" y2="5.4" transform="translate(39.5 5.8)"/>
        <circle id="Ellipse_60" data-name="Ellipse 60" class="cls-11" cx="2.3" cy="2.3" r="2.3" transform="translate(37.2 4)"/>
      </g>
      <path id="Path_176" data-name="Path 176" class="cls-12" d="M12,26.7V22.8c0,.8.1,1.6.1,2.4a3.561,3.561,0,0,0,5.8,2.5,20.948,20.948,0,0,1,1.7-1.4,3.722,3.722,0,0,1,2-.7c1.9,0,2.3,1.6,2.9,2.8.5.9,1.4,1.8,2.4,1.5A3.331,3.331,0,0,0,28,29c1.4-1.7,2.8-3.4,4.2-5.2a1.149,1.149,0,0,1,.9-.6,1.012,1.012,0,0,1,.7.4c.8.9,1.4,2,2.2,2.9A3.611,3.611,0,0,0,39.1,28c1-.2,1.9-1,2.9-1.1,2.1-.1,3,2.5,4.3,4a5.235,5.235,0,0,0,5.3,1.5"/>
      <path id="Path_177" data-name="Path 177" class="cls-12" d="M35.9,40.7v3.5a1.374,1.374,0,0,0,.4,1.2,1.645,1.645,0,0,0,1,.2,14.1,14.1,0,0,0,4.9-1.2c2.1-.8,4.5-2.1,6.4-.9.8.5,1.4,1.5,2.3,1.8,1.3.4,2.6-.7,3.9-1.2,2.8-1,5.8,1.1,8.8,1.2"/>
      <path id="Path_178" data-name="Path 178" class="cls-12" d="M13.2,55.9a1.839,1.839,0,0,0,1.2,1.7,3.33,3.33,0,0,0,2.2.1c2.4-.6,4.6-2.9,7-2.3,1.2.3,2.1,1.2,3.2,1.8,4.3,2.2,10.1-1.3,14.1,1.3"/>
    </g>
    <g id="WTCSS_bulletinboard_notebook" transform="translate(214.4 2926.2)">
      <rect id="Rectangle_26" data-name="Rectangle 26" class="cls-13" width="103" height="115.7" transform="matrix(0.991, -0.133, 0.133, 0.991, 2.785, 20.138)"/>
      <line id="Line_5" data-name="Line 5" class="cls-14" y1="11.1" x2="82.8" transform="translate(18.2 25.5)"/>
      <line id="Line_6" data-name="Line 6" class="cls-14" y1="11" x2="82.8" transform="translate(19.9 38.3)"/>
      <line id="Line_7" data-name="Line 7" class="cls-14" y1="11.1" x2="82.8" transform="translate(21.6 51)"/>
      <line id="Line_8" data-name="Line 8" class="cls-14" y1="11.1" x2="82.8" transform="translate(23.3 63.7)"/>
      <line id="Line_9" data-name="Line 9" class="cls-14" y1="11.1" x2="82.8" transform="translate(25 76.4)"/>
      <line id="Line_10" data-name="Line 10" class="cls-14" y1="11" x2="82.8" transform="translate(26.7 89.2)"/>
      <line id="Line_11" data-name="Line 11" class="cls-14" y1="11.1" x2="82.8" transform="translate(28.4 101.9)"/>
      <line id="Line_12" data-name="Line 12" class="cls-15" x2="13.1" y2="97.4" transform="translate(12.2 27.9)"/>
      <g id="Group_45" data-name="Group 45">
        <g id="Group_21" data-name="Group 21">
          <g id="Group_14" data-name="Group 14">
            <path id="Path_45" data-name="Path 45" class="cls-16" d="M30.8,12.5l-1.8.3c.2,1.3-.2,2.4-.9,2.4l.2,1.5,4.2-.6-.2-1.5C31.6,14.8,30.9,13.8,30.8,12.5Z"/>
          </g>
          <g id="Group_15" data-name="Group 15">
            <path id="Path_46" data-name="Path 46" class="cls-16" d="M26.5,13.1l-1.8.2c.2,1.3-.2,2.4-.9,2.4l.2,1.5,4.2-.6L28,15.1C27.4,15.3,26.7,14.4,26.5,13.1Z"/>
          </g>
          <g id="Group_16" data-name="Group 16">
            <path id="Path_47" data-name="Path 47" class="cls-16" d="M22.3,13.7l-1.8.2c.2,1.3-.2,2.4-.9,2.4l.2,1.5,4.2-.6-.2-1.5C23.2,15.9,22.5,14.9,22.3,13.7Z"/>
          </g>
          <g id="Group_17" data-name="Group 17">
            <path id="Path_48" data-name="Path 48" class="cls-16" d="M18.1,14.2l-1.8.2c.2,1.3-.2,2.4-.9,2.4l.2,1.5,4.2-.6-.2-1.5C18.9,16.4,18.2,15.5,18.1,14.2Z"/>
          </g>
          <g id="Group_18" data-name="Group 18">
            <path id="Path_49" data-name="Path 49" class="cls-16" d="M13.8,14.8,12,15c.2,1.3-.2,2.4-.9,2.4l.2,1.5,4.2-.6-.2-1.5C14.7,17,14,16,13.8,14.8Z"/>
          </g>
          <g id="Group_19" data-name="Group 19">
            <path id="Path_50" data-name="Path 50" class="cls-16" d="M9.6,15.3l-1.8.2c.2,1.3-.2,2.4-.9,2.5l.2,1.5,4.2-.6-.2-1.5C10.4,17.5,9.8,16.6,9.6,15.3Z"/>
          </g>
          <g id="Group_20" data-name="Group 20">
            <path id="Path_51" data-name="Path 51" class="cls-16" d="M5.4,15.9l-1.8.2c.2,1.3-.3,2.4-1,2.5l.2,1.5,4.3-.6L6.9,18C6.2,18.1,5.5,17.2,5.4,15.9Z"/>
          </g>
        </g>
        <g id="Group_29" data-name="Group 29">
          <g id="Group_22" data-name="Group 22">
            <path id="Path_52" data-name="Path 52" class="cls-16" d="M56.2,9.1l-1.8.2c.2,1.3-.2,2.4-.9,2.4l.2,1.5,4.2-.6-.2-1.5C57,11.4,56.3,10.4,56.2,9.1Z"/>
          </g>
          <g id="Group_23" data-name="Group 23">
            <path id="Path_53" data-name="Path 53" class="cls-16" d="M51.9,9.7l-1.8.2c.2,1.3-.2,2.4-.9,2.4l.2,1.5,4.2-.6-.2-1.5C52.8,11.9,52.1,11,51.9,9.7Z"/>
          </g>
          <g id="Group_24" data-name="Group 24">
            <path id="Path_54" data-name="Path 54" class="cls-16" d="M47.7,10.3l-1.8.2c.2,1.3-.2,2.4-.9,2.4l.2,1.5,4.2-.6-.2-1.5C48.6,12.5,47.9,11.5,47.7,10.3Z"/>
          </g>
          <g id="Group_25" data-name="Group 25">
            <path id="Path_55" data-name="Path 55" class="cls-16" d="M43.5,10.8l-1.8.2c.2,1.3-.2,2.4-.9,2.4l.2,1.5,4.2-.6L45,12.9C44.3,13,43.6,12.1,43.5,10.8Z"/>
          </g>
          <g id="Group_26" data-name="Group 26">
            <path id="Path_56" data-name="Path 56" class="cls-16" d="M39.2,11.4l-1.8.2c.2,1.3-.2,2.4-.9,2.4l.2,1.5,4.2-.6-.2-1.5C40.1,13.6,39.4,12.6,39.2,11.4Z"/>
          </g>
          <g id="Group_27" data-name="Group 27">
            <path id="Path_57" data-name="Path 57" class="cls-16" d="M35,11.9l-1.8.2c.2,1.3-.2,2.4-.9,2.4l.2,1.5,4.2-.6-.2-1.5C35.9,14.1,35.2,13.2,35,11.9Z"/>
          </g>
          <g id="Group_28" data-name="Group 28">
            <path id="Path_58" data-name="Path 58" class="cls-16" d="M30.8,12.5l-1.8.2c.2,1.3-.2,2.4-.9,2.4l.2,1.5,4.2-.6-.2-1.5C31.6,14.7,30.9,13.7,30.8,12.5Z"/>
          </g>
        </g>
        <g id="Group_37" data-name="Group 37">
          <g id="Group_30" data-name="Group 30">
            <path id="Path_59" data-name="Path 59" class="cls-16" d="M81.9,5.7l-1.8.2c.2,1.3-.2,2.4-.9,2.4l.2,1.5,4.2-.6-.2-1.5C82.7,7.9,82.1,7,81.9,5.7Z"/>
          </g>
          <g id="Group_31" data-name="Group 31">
            <path id="Path_60" data-name="Path 60" class="cls-16" d="M77.7,6.2l-1.8.2c.1,1.3-.3,2.4-.9,2.5l.2,1.5,4.2-.6-.2-1.5C78.5,8.5,77.8,7.5,77.7,6.2Z"/>
          </g>
          <g id="Group_32" data-name="Group 32">
            <path id="Path_61" data-name="Path 61" class="cls-16" d="M73.4,6.8,71.6,7c.2,1.3-.2,2.4-.9,2.4l.2,1.5,4.2-.6L75,8.9C74.3,9,73.6,8.1,73.4,6.8Z"/>
          </g>
          <g id="Group_33" data-name="Group 33">
            <path id="Path_62" data-name="Path 62" class="cls-16" d="M69.2,7.4l-1.8.2c.2,1.3-.2,2.4-.9,2.4l.2,1.5,4.2-.6-.2-1.5C70,9.6,69.4,8.6,69.2,7.4Z"/>
          </g>
          <g id="Group_34" data-name="Group 34">
            <path id="Path_63" data-name="Path 63" class="cls-16" d="M64.9,7.9l-1.8.2c.2,1.3-.2,2.4-.9,2.4l.2,1.5,4.2-.6L66.5,10C65.8,10.1,65.1,9.2,64.9,7.9Z"/>
          </g>
          <g id="Group_35" data-name="Group 35">
            <path id="Path_64" data-name="Path 64" class="cls-16" d="M60.7,8.5l-1.8.2c.2,1.3-.2,2.4-.9,2.4l.2,1.5,4.2-.6-.2-1.5C61.6,10.7,60.9,9.7,60.7,8.5Z"/>
          </g>
          <g id="Group_36" data-name="Group 36">
            <path id="Path_65" data-name="Path 65" class="cls-16" d="M56.5,9l-1.8.2c.2,1.3-.2,2.4-.9,2.4l.2,1.5,4.2-.6L58,11.2C57.3,11.2,56.6,10.3,56.5,9Z"/>
          </g>
        </g>
        <g id="Group_44" data-name="Group 44">
          <g id="Group_38" data-name="Group 38">
            <path id="Path_66" data-name="Path 66" class="cls-16" d="M103.1,2.8l-1.8.2c.2,1.3-.2,2.4-.9,2.4l.2,1.5,4.2-.6L104.6,5C103.9,5.1,103.2,4.1,103.1,2.8Z"/>
          </g>
          <g id="Group_39" data-name="Group 39">
            <path id="Path_67" data-name="Path 67" class="cls-16" d="M98.8,3.4,97,3.6c.2,1.3-.2,2.4-.9,2.4l.2,1.5,4.2-.6-.2-1.5C99.7,5.6,99,4.7,98.8,3.4Z"/>
          </g>
          <g id="Group_40" data-name="Group 40">
            <path id="Path_68" data-name="Path 68" class="cls-16" d="M94.6,4l-1.8.2c.2,1.3-.2,2.4-.9,2.4l.2,1.5,4.2-.6L96.1,6C95.4,6.2,94.8,5.2,94.6,4Z"/>
          </g>
          <g id="Group_41" data-name="Group 41">
            <path id="Path_69" data-name="Path 69" class="cls-16" d="M90.4,4.5l-1.8.2c.2,1.3-.2,2.4-.9,2.4l.2,1.5L92.1,8l-.2-1.5C91.2,6.7,90.5,5.8,90.4,4.5Z"/>
          </g>
          <g id="Group_42" data-name="Group 42">
            <path id="Path_70" data-name="Path 70" class="cls-16" d="M86.1,5.1l-1.8.2c.2,1.3-.2,2.4-.9,2.4l.2,1.5,4.2-.6-.2-1.5C87,7.3,86.3,6.3,86.1,5.1Z"/>
          </g>
          <g id="Group_43" data-name="Group 43">
            <path id="Path_71" data-name="Path 71" class="cls-16" d="M81.9,5.6l-1.8.2c.2,1.3-.2,2.4-.9,2.4l.2,1.5,4.2-.6-.2-1.5C82.7,7.8,82.1,6.9,81.9,5.6Z"/>
          </g>
        </g>
      </g>
      <path id="Path_72" data-name="Path 72" class="cls-12" d="M22.7,65.3l.3,1.5c.4,1.8,3.9,2.3,5.9.8a15.257,15.257,0,0,1,1.6-1.1,5.36,5.36,0,0,1,1.9-.7c1.8-.2,2.4.7,3.1,1.4a2.507,2.507,0,0,0,2.5.6,2.089,2.089,0,0,0,1-.8c1.2-1.3,2.4-2.6,3.7-3.8a1.346,1.346,0,0,1,.9-.5,2.353,2.353,0,0,1,.8.2c.9.4,1.6,1.1,2.4,1.5a4.41,4.41,0,0,0,3.2.5c1-.2,1.8-.9,2.8-1.1,2-.4,3.1,1.2,4.6,2a7.638,7.638,0,0,0,5.4.2"/>
      <path id="Path_73" data-name="Path 73" class="cls-12" d="M62.5,73.2l.3,1.5c.4,1.8,3.9,2.3,5.9.8a15.257,15.257,0,0,1,1.6-1.1,5.36,5.36,0,0,1,1.9-.7c1.8-.2,2.4.7,3.1,1.4a2.507,2.507,0,0,0,2.5.6,2.089,2.089,0,0,0,1-.8c1.2-1.3,2.4-2.6,3.7-3.8a1.346,1.346,0,0,1,.9-.5,2.354,2.354,0,0,1,.8.2c.9.4,1.6,1.1,2.4,1.5a4.41,4.41,0,0,0,3.2.5c1-.2,1.8-.9,2.8-1.1,2-.4,3.1,1.2,4.6,2a7.638,7.638,0,0,0,5.4.2"/>
      <path id="Path_74" data-name="Path 74" class="cls-12" d="M47.3,48.6c.1,1.2.2,2.3.3,3.5a1.457,1.457,0,0,0,.5,1.2,1.729,1.729,0,0,0,1,.1,15.974,15.974,0,0,0,4.8-1.6c2-1,4.3-2.5,6.3-1.5.9.5,1.5,1.4,2.5,1.5,1.4.3,2.5-1,3.7-1.6,2.7-1.3,5.9.6,8.9.4"/>
      <path id="Path_75" data-name="Path 75" class="cls-12" d="M43.8,103.7c-.1-.8-.2-1.6-.3-2.5l.3,1.5c.4,1.8,3.9,2.3,5.9.8a15.257,15.257,0,0,1,1.6-1.1,5.36,5.36,0,0,1,1.9-.7c1.8-.2,2.4.7,3.1,1.4a2.507,2.507,0,0,0,2.5.6,2.089,2.089,0,0,0,1-.8c1.2-1.3,2.4-2.6,3.7-3.8a1.346,1.346,0,0,1,.9-.5,2.354,2.354,0,0,1,.8.2c.9.4,1.6,1.1,2.4,1.5a4.41,4.41,0,0,0,3.2.5c1-.2,1.8-.9,2.8-1.1,2-.4,3.1,1.2,4.6,2a7.638,7.638,0,0,0,5.4.2"/>
      <path id="Path_76" data-name="Path 76" class="cls-12" d="M28.3,76.6c.1,1.2.2,2.3.3,3.5a1.457,1.457,0,0,0,.5,1.2,1.729,1.729,0,0,0,1,.1,15.974,15.974,0,0,0,4.8-1.6c2-1,4.3-2.5,6.3-1.5.9.5,1.5,1.4,2.5,1.5,1.4.3,2.5-1,3.7-1.6,2.7-1.3,5.9.6,8.9.4"/>
      <path id="Path_77" data-name="Path 77" class="cls-12" d="M25.7,41.8a2.073,2.073,0,0,0,1.5,1.5,3.408,3.408,0,0,0,2.2-.3c2.3-1,4.1-3.6,6.6-3.4a13.764,13.764,0,0,1,3.4,1.2c4.6,1.5,9.7-2.9,14.1-1"/>
      <path id="Path_78" data-name="Path 78" class="cls-12" d="M87.4,32.3a1.889,1.889,0,0,1-.9,1.9,3.983,3.983,0,0,1-2.2.5c-2.5-.2-5-2-7.3-1A12.266,12.266,0,0,0,74.2,36c-3.8,3-10.1.5-13.7,3.8"/>
      <g id="Group_46" data-name="Group 46">
        <line id="Line_13" data-name="Line 13" class="cls-10" x2="3.5" y2="5.4" transform="translate(55.1 15.7)"/>
        <circle id="Ellipse_4" data-name="Ellipse 4" class="cls-11" cx="2.3" cy="2.3" r="2.3" transform="translate(52.7 13.9)"/>
      </g>
    </g>
  </g>
</svg>
