<svg xmlns="http://www.w3.org/2000/svg" xmlns:xlink="http://www.w3.org/1999/xlink" viewBox="0 0 285.32 564.02"><defs><style>.cls-1{fill:#f2f2f2;}.cls-2{fill:#402312;}.cls-3{fill:#e5efed;}.cls-4{opacity:0.6;fill:url(#linear-gradient);}.cls-5{fill:#36adbd;}</style><linearGradient id="linear-gradient" x1="1835.96" y1="263.5" x2="1884.57" y2="-14.05" gradientTransform="matrix(-1, 0, 0, 1, 1957.98, 0)" gradientUnits="userSpaceOnUse"><stop offset="0.01" stop-color="#402312" stop-opacity="0.2"/><stop offset="0.28" stop-color="#e4caa5" stop-opacity="0.5"/><stop offset="0.39" stop-color="#e5dfcd" stop-opacity="0.5"/><stop offset="0.5" stop-color="#e5efec" stop-opacity="0.5"/><stop offset="0.67" stop-color="#e5efed" stop-opacity="0.5"/><stop offset="0.74" stop-color="#e4eeec" stop-opacity="0.49"/><stop offset="0.8" stop-color="#e3eceb" stop-opacity="0.44"/><stop offset="0.85" stop-color="#e0e7e7" stop-opacity="0.37"/><stop offset="0.91" stop-color="#dce1e3" stop-opacity="0.26"/><stop offset="0.96" stop-color="#d7d9dd" stop-opacity="0.12"/><stop offset="1" stop-color="#d3d2d8" stop-opacity="0"/></linearGradient></defs><title>CoffeeMug</title><g id="Layer_2" data-name="Layer 2"><g id="Layer_1-2" data-name="Layer 1"><path class="cls-1" d="M0,250.24c0,11,40.51,19.84,106.87,19.84s121.38-8.88,121.38-19.84c0-11.41-55-19.84-121.38-19.84S0,239.28,0,250.24Z"/><path class="cls-2" d="M106.91,266.08c72.37,0,113.08-10.05,116.21-15.84-3.13-5.79-43.84-15.83-116.21-15.83s-99.3,10-102.43,15.83C7.61,256,34.53,266.08,106.91,266.08Z"/><path class="cls-3" d="M114.85,564c87.42,0,113.51-25,113.51-34.94V251.24c0-3.32-5.81-8.56-5.81-6,0,13.47-26.57,16-119.36,16C33.13,261.26,6.82,259,7.41,248c.39-7.24-7.41-.12-7.41,3.2V529.08C0,539,13.93,564,114.85,564Z"/><path class="cls-3" d="M171.48,340.56v100c0,14.86,41.51,26,76.34,32.68a29.83,29.83,0,0,0,5.64.53,28.85,28.85,0,0,0,18-6.17c13.53-10.89,14-62.49,13.8-78.05-.08-6.71-1.14-65.85-13.8-76.05a29.3,29.3,0,0,0-23.68-5.64C213,314.59,171.48,325.7,171.48,340.56Zm26.5,15a18.82,18.82,0,0,1,12.72-17.77,325.49,325.49,0,0,1,32.55-9,18.91,18.91,0,0,1,21.28,10.35c2,6.58,2,96.26-.07,103a18.83,18.83,0,0,1-21.21,10.18,323.9,323.9,0,0,1-32.55-9A18.82,18.82,0,0,1,198,425.55Z"/><path class="cls-4" d="M38,254.05c16.28-.34,31.15-12.27,36.88-27.51s3-32.93-5.34-46.93c-7.2-12.09-18.12-21.55-25.95-33.25s-12.21-27.62-4.89-39.64a10.8,10.8,0,0,1,4.14-4.23c3.09-1.53,6.8-.56,10.21-1.09,8.13-1.25,12.55-11,11.32-19.09s-6.39-15-11-21.85-8.86-14.6-8-22.78c.71-7,5-13,9.85-18.08C68.25,5.84,89.75,2.78,108.5,0c1.34,27.48,13.88,53.17,28.36,76.57s31.22,45.57,42.51,70.66,16.76,54.27,7.47,80.18c-4.82,13.43-16.17,26.79-30.4,25.66Z"/><path class="cls-5" d="M142.65,350.27,152,380.42l7.63,41.85-15.8,4.28L127,387.17l-9.58-34.92,17.83-5.07a66.68,66.68,0,0,0-72.15,19.1,45.25,45.25,0,0,1,15.76-7.4q16.22-4.38,27.52.48t14.92,18.18q2.3,8.52,0,15.17a69.14,69.14,0,0,1-8,15.08,68.6,68.6,0,0,0-6.75,12.6,17.53,17.53,0,0,0-.29,11L84.9,437.18a32.42,32.42,0,0,1-1.2-11.73,28,28,0,0,1,2.35-9.16,100.26,100.26,0,0,1,4.88-9,49.83,49.83,0,0,0,4.84-9.5,13.9,13.9,0,0,0,.14-8.39q-2.64-9.8-13.56-6.84-12,3.27-8.34,17.59L52,406a46.23,46.23,0,0,1-1.39-18.42A66.65,66.65,0,0,0,158.7,458.89a12.42,12.42,0,0,1-8.78-1.5A13.31,13.31,0,0,1,143.8,449a13.15,13.15,0,0,1,1-10.22,12.75,12.75,0,0,1,8.22-6.08,12.73,12.73,0,0,1,16.34,9.38,15.34,15.34,0,0,1,.54,3.18,66.68,66.68,0,0,0-27.26-95Zm-28.84,113.2a12.87,12.87,0,0,1-8.28,6.18,12.63,12.63,0,0,1-10.11-1.2,14.46,14.46,0,0,1-5.11-18.59,12.69,12.69,0,0,1,8.22-6.08,12.74,12.74,0,0,1,16.34,9.38A13.23,13.23,0,0,1,113.81,463.47Z"/></g></g></svg>