<svg xmlns="http://www.w3.org/2000/svg" viewBox="0 0 799.982 229.421">
  <defs>
    <style>
      .cls-1, .cls-13, .cls-5 {
        fill: #273656;
      }

      .cls-1 {
        opacity: 0.83;
      }

      .cls-2, .cls-9 {
        fill: #f3cd75;
      }

      .cls-2 {
        opacity: 0.895;
      }

      .cls-3, .cls-7, .cls-8 {
        fill: #ed583f;
      }

      .cls-3 {
        opacity: 0.877;
      }

      .cls-10, .cls-4 {
        fill: #dfd8d2;
      }

      .cls-4 {
        opacity: 0.944;
      }

      .cls-5 {
        opacity: 0.969;
      }

      .cls-11, .cls-6 {
        fill: #2eafbe;
      }

      .cls-6 {
        opacity: 0.833;
      }

      .cls-7 {
        opacity: 0.854;
      }

      .cls-8 {
        opacity: 0.824;
      }

      .cls-9 {
        opacity: 0.938;
      }

      .cls-10 {
        opacity: 0.985;
      }

      .cls-11 {
        opacity: 0.958;
      }

      .cls-12, .cls-14 {
        fill: #fff;
        stroke: #707070;
      }

      .cls-12 {
        opacity: 0.805;
      }

      .cls-13 {
        opacity: 0.892;
      }

      .cls-14 {
        opacity: 0.812;
      }

      .cls-15 {
        stroke: none;
      }

      .cls-16 {
        fill: none;
      }
    </style>
  </defs>
  <g id="Group_939" data-name="Group 939" transform="translate(6080.429 -16.71) rotate(180)">
    <rect id="Rectangle_25" data-name="Rectangle 25" class="cls-1" width="45.701" height="73.065" transform="matrix(-0.766, 0.643, -0.643, -0.766, 5659.646, -142.03)"/>
    <rect id="Rectangle_24" data-name="Rectangle 24" class="cls-2" width="31.513" height="50.382" transform="translate(5362.667 -147.542) rotate(-87)"/>
    <rect id="Rectangle_22" data-name="Rectangle 22" class="cls-3" width="25.086" height="40.106" transform="translate(5725.812 -89.301) rotate(-97)"/>
    <rect id="Rectangle_21" data-name="Rectangle 21" class="cls-4" width="43.855" height="70.113" transform="matrix(-0.921, -0.391, 0.391, -0.921, 5550.512, -54.627)"/>
    <ellipse id="Ellipse_22" data-name="Ellipse 22" class="cls-5" cx="37.669" cy="37.669" rx="37.669" ry="37.669" transform="translate(6002.508 -169.356) rotate(-88)"/>
    <ellipse id="Ellipse_14" data-name="Ellipse 14" class="cls-6" cx="29.709" cy="29.709" rx="29.709" ry="29.709" transform="matrix(-0.545, 0.839, -0.839, -0.545, 6049.775, -66.543)"/>
    <rect id="Rectangle_26" data-name="Rectangle 26" class="cls-7" width="58.624" height="53.32" transform="translate(5280.447 -165.938) rotate(-51)"/>
    <rect id="Rectangle_23" data-name="Rectangle 23" class="cls-8" width="36.068" height="32.805" transform="translate(5979.315 -145.69) rotate(-9)"/>
    <ellipse id="Ellipse_13" data-name="Ellipse 13" class="cls-9" cx="28.985" cy="28.985" rx="28.985" ry="28.985" transform="matrix(0.358, -0.934, 0.934, 0.358, 5310.811, -87.223)"/>
    <rect id="Rectangle_27" data-name="Rectangle 27" class="cls-10" width="80.89" height="34.703" transform="translate(5809.422 -176.364) rotate(172)"/>
    <ellipse id="Ellipse_18" data-name="Ellipse 18" class="cls-11" cx="42.133" cy="42.133" rx="42.133" ry="42.133" transform="translate(5893.114 -97.194) rotate(158)"/>
    <g id="Ellipse_15" data-name="Ellipse 15" class="cls-12" transform="translate(5987.029 -68.359) rotate(-166)">
      <ellipse class="cls-15" cx="24.478" cy="24.478" rx="24.478" ry="24.478"/>
      <ellipse class="cls-16" cx="24.478" cy="24.478" rx="23.978" ry="23.978"/>
    </g>
    <ellipse id="Ellipse_12" data-name="Ellipse 12" class="cls-13" cx="37.684" cy="37.684" rx="37.684" ry="37.684" transform="translate(5525.812 -136.288) rotate(-167)"/>
    <g id="Rectangle_28" data-name="Rectangle 28" class="cls-14" transform="translate(5773.627 -210.191) rotate(-60)">
      <rect class="cls-15" width="41.502" height="37.747"/>
      <rect class="cls-16" x="0.5" y="0.5" width="40.502" height="36.747"/>
    </g>
  </g>
</svg>
